SplineFontDB: 3.2
FontName: Kilroy4-Bold
FullName: Kilroy4 Bold
FamilyName: Kilroy4
Weight: Bold
Copyright: Copyright 2020 The Roboto Serif Project Authors (https://github.com/googlefonts/RobotoSerif) OFL
Version: 1.008
ItalicAngle: 0
UnderlinePosition: -200
UnderlineWidth: 100
Ascent: 800
Descent: 200
InvalidEm: 0
sfntRevision: 0x0001020c
LayerCount: 2
Layer: 0 1 "Back" 1
Layer: 1 1 "Fore" 0
XUID: [1021 1018 -1064020043 11107]
StyleMap: 0x0020
FSType: 0
OS2Version: 4
OS2_WeightWidthSlopeOnly: 0
OS2_UseTypoMetrics: 1
CreationTime: 1586430965
ModificationTime: 1751867166
PfmFamily: 81
TTFWeight: 700
TTFWidth: 5
LineGap: 0
VLineGap: 0
Panose: 0 0 0 0 0 0 0 0 0 0
OS2TypoAscent: 927
OS2TypoAOffset: 0
OS2TypoDescent: -244
OS2TypoDOffset: 0
OS2TypoLinegap: 0
OS2WinAscent: 1048
OS2WinAOffset: 0
OS2WinDescent: 251
OS2WinDOffset: 0
HheadAscent: 927
HheadAOffset: 0
HheadDescent: -244
HheadDOffset: 0
OS2SubXSize: 650
OS2SubYSize: 600
OS2SubXOff: 0
OS2SubYOff: 75
OS2SupXSize: 650
OS2SupYSize: 600
OS2SupXOff: 0
OS2SupYOff: 350
OS2StrikeYSize: 100
OS2StrikeYPos: 311
OS2CapHeight: 710
OS2XHeight: 518
OS2Vendor: 'COMM'
OS2CodePages: 20000193.00000000
OS2UnicodeRanges: a10000ef.4000267a.00000000.00000000
Lookup: 5 0 0 "'locl' Localized Forms in Latin lookup 0" { "'locl' Localized Forms in Latin lookup 0 subtable"  } ['locl' ('latn' <'AZE ' 'CRT ' 'TRK ' > ) ]
Lookup: 1 0 0 "Single Substitution lookup 1" { "Single Substitution lookup 1 subtable"  } []
Lookup: 5 0 0 "'locl' Localized Forms in Latin lookup 2" { "'locl' Localized Forms in Latin lookup 2 subtable"  } ['locl' ('latn' <'PLK ' > ) ]
Lookup: 1 0 0 "Single Substitution lookup 3" { "Single Substitution lookup 3 subtable"  } []
Lookup: 6 0 0 "'locl' Localized Forms in Latin lookup 4" { "'locl' Localized Forms in Latin lookup 4 subtable"  } ['locl' ('latn' <'CAT ' > ) ]
Lookup: 4 0 0 "Ligature Substitution lookup 5" { "Ligature Substitution lookup 5 subtable"  } []

StartChar: .notdef
Encoding: 256 -1 0
Width: 400
GlyphClass: 1
Flags: W
LayerCount: 2
Fore
SplineSet
0 0 m 1,0,-1
 0 700 l 1,1,-1
 400 700 l 1,2,-1
 400 0 l 1,3,-1
 0 0 l 1,0,-1
50 650 m 1,4,-1
 50 50 l 1,5,-1
 350 50 l 1,6,-1
 350 650 l 1,7,-1
 50 650 l 1,4,-1
EndSplineSet
EndChar

StartChar: A
Encoding: 65 65 4
Width: 770
GlyphClass: 2
Flags: W
AnchorPoint: "Anchor-2" 609 0 basechar 0
AnchorPoint: "Anchor-1" 384 0 basechar 0
AnchorPoint: "Anchor-0" 384 721 basechar 0
LayerCount: 2
Fore
SplineSet
201 297 m 1,0,-1
 474 297 l 1,1,-1
 486 200 l 1,2,-1
 190 200 l 1,3,-1
 201 297 l 1,0,-1
330 658 m 1,4,-1
 362 656 l 1,5,-1
 200 130 l 2,6,7
 200 124 200 124 205 118.5 c 128,-1,8
 210 113 210 113 221.5 110 c 128,-1,9
 233 107 233 107 253 107 c 2,10,-1
 262 107 l 1,11,-1
 262 0 l 1,12,-1
 25 0 l 1,13,-1
 25 107 l 1,14,-1
 31 107 l 2,15,16
 52 107 52 107 70.5 120 c 128,-1,17
 89 133 89 133 100 171 c 2,18,-1
 271 718 l 1,19,-1
 490 718 l 1,20,-1
 662 171 l 2,21,22
 674 133 674 133 694.5 120 c 128,-1,23
 715 107 715 107 740 107 c 2,24,-1
 746 107 l 1,25,-1
 746 0 l 1,26,-1
 421 0 l 1,27,-1
 421 107 l 1,28,-1
 430 107 l 2,29,30
 454 107 454 107 468 108.5 c 128,-1,31
 482 110 482 110 487.5 112.5 c 128,-1,32
 493 115 493 115 493 118 c 2,33,-1
 330 658 l 1,4,-1
EndSplineSet
EndChar

StartChar: B
Encoding: 66 66 11
Width: 769
GlyphClass: 2
Flags: W
AnchorPoint: "Anchor-0" 319 741 basechar 0
LayerCount: 2
Fore
SplineSet
451 710 m 2,0,1
 509 710 509 710 553.5 700.5 c 128,-1,2
 598 691 598 691 627.5 670.5 c 128,-1,3
 657 650 657 650 672 617.5 c 128,-1,4
 687 585 687 585 687 540 c 0,5,6
 687 488 687 488 663.5 453.5 c 128,-1,7
 640 419 640 419 594 401 c 128,-1,8
 548 383 548 383 481 379 c 1,9,-1
 488 406 l 1,10,-1
 488 335 l 1,11,-1
 480 370 l 1,12,13
 556 363 556 363 608 344 c 128,-1,14
 660 325 660 325 687.5 289.5 c 128,-1,15
 715 254 715 254 715 197 c 0,16,17
 715 145 715 145 698.5 107.5 c 128,-1,18
 682 70 682 70 649 46.5 c 128,-1,19
 616 23 616 23 568 11.5 c 128,-1,20
 520 0 520 0 458 0 c 2,21,-1
 46 0 l 1,22,-1
 46 107 l 1,23,-1
 57 107 l 2,24,25
 82 107 82 107 99.5 114 c 128,-1,26
 117 121 117 121 117 143 c 2,27,-1
 117 567 l 2,28,29
 117 589 117 589 99.5 596 c 128,-1,30
 82 603 82 603 57 603 c 2,31,-1
 46 603 l 1,32,-1
 46 710 l 1,33,-1
 451 710 l 2,0,1
246 420 m 1,34,-1
 412 420 l 2,35,36
 445 420 445 420 465 430 c 128,-1,37
 485 440 485 440 495 461.5 c 128,-1,38
 505 483 505 483 505 519 c 0,39,40
 505 546 505 546 495.5 565.5 c 128,-1,41
 486 585 486 585 466 595.5 c 128,-1,42
 446 606 446 606 415 606 c 2,43,-1
 298 606 l 1,44,-1
 298 104 l 1,45,-1
 420 104 l 2,46,47
 457 104 457 104 481 116 c 128,-1,48
 505 128 505 128 517 152.5 c 128,-1,49
 529 177 529 177 529 213 c 0,50,51
 529 250 529 250 516 274 c 128,-1,52
 503 298 503 298 476.5 310 c 128,-1,53
 450 322 450 322 408 322 c 2,54,-1
 246 322 l 1,55,-1
 246 420 l 1,34,-1
EndSplineSet
EndChar

StartChar: C
Encoding: 67 67 12
Width: 780
GlyphClass: 2
Flags: W
AnchorPoint: "Anchor-1" 412 0 basechar 0
AnchorPoint: "Anchor-0" 412 741 basechar 0
LayerCount: 2
Fore
SplineSet
419 624 m 0,0,1
 370 624 370 624 336 610 c 128,-1,2
 302 596 302 596 280.5 564.5 c 128,-1,3
 259 533 259 533 249 481.5 c 128,-1,4
 239 430 239 430 239 355 c 0,5,6
 239 278 239 278 250 226 c 128,-1,7
 261 174 261 174 283.5 143 c 128,-1,8
 306 112 306 112 341 98.5 c 128,-1,9
 376 85 376 85 425 85 c 0,10,11
 488 85 488 85 528 105.5 c 128,-1,12
 568 126 568 126 593 163.5 c 128,-1,13
 618 201 618 201 634 253 c 1,14,-1
 727 212 l 1,15,16
 705 136 705 136 664 83.5 c 128,-1,17
 623 31 623 31 559.5 3 c 128,-1,18
 496 -25 496 -25 406 -25 c 0,19,20
 325 -25 325 -25 260 -2 c 128,-1,21
 195 21 195 21 148 68.5 c 128,-1,22
 101 116 101 116 75.5 187.5 c 128,-1,23
 50 259 50 259 50 355 c 0,24,25
 50 454 50 454 76 525.5 c 128,-1,26
 102 597 102 597 149 643 c 128,-1,27
 196 689 196 689 259.5 712 c 128,-1,28
 323 735 323 735 398 735 c 256,29,30
 473 735 473 735 523.5 705.5 c 128,-1,31
 574 676 574 676 603 621 c 128,-1,32
 632 566 632 566 640 488 c 1,33,-1
 600 539 l 1,34,-1
 619 720 l 1,35,-1
 716 720 l 1,36,-1
 716 460 l 1,37,-1
 603 460 l 1,38,39
 590 509 590 509 566 546 c 128,-1,40
 542 583 542 583 506 603.5 c 128,-1,41
 470 624 470 624 419 624 c 0,0,1
EndSplineSet
EndChar

StartChar: D
Encoding: 68 68 14
Width: 837
GlyphClass: 2
Flags: W
AnchorPoint: "Anchor-1" 421 0 basechar 0
AnchorPoint: "Anchor-0" 421 741 basechar 0
LayerCount: 2
Fore
SplineSet
46 603 m 1,0,-1
 46 710 l 1,1,-1
 418 710 l 2,2,3
 501 710 501 710 569 689.5 c 128,-1,4
 637 669 637 669 685.5 626 c 128,-1,5
 734 583 734 583 760.5 516.5 c 128,-1,6
 787 450 787 450 787 359 c 0,7,8
 787 269 787 269 760.5 201 c 128,-1,9
 734 133 734 133 685.5 88.5 c 128,-1,10
 637 44 637 44 569 22 c 128,-1,11
 501 0 501 0 418 0 c 2,12,-1
 46 0 l 1,13,-1
 46 107 l 1,14,-1
 57 107 l 2,15,16
 82 107 82 107 99.5 114 c 128,-1,17
 117 121 117 121 117 143 c 2,18,-1
 117 567 l 2,19,20
 117 589 117 589 99.5 596 c 128,-1,21
 82 603 82 603 57 603 c 2,22,-1
 46 603 l 1,0,-1
397 604 m 2,23,-1
 298 604 l 1,24,-1
 298 106 l 1,25,-1
 397 106 l 2,26,27
 449 106 449 106 486.5 120.5 c 128,-1,28
 524 135 524 135 548.5 165.5 c 128,-1,29
 573 196 573 196 585 244 c 128,-1,30
 597 292 597 292 597 359 c 256,31,32
 597 426 597 426 585 472.5 c 128,-1,33
 573 519 573 519 548.5 548 c 128,-1,34
 524 577 524 577 486.5 590.5 c 128,-1,35
 449 604 449 604 397 604 c 2,23,-1
EndSplineSet
EndChar

StartChar: E
Encoding: 69 69 15
Width: 724
GlyphClass: 2
Flags: W
AnchorPoint: "Anchor-2" 501 0 basechar 0
AnchorPoint: "Anchor-1" 428 0 basechar 0
AnchorPoint: "Anchor-0" 428 741 basechar 0
LayerCount: 2
Fore
SplineSet
665 225 m 1,0,-1
 665 0 l 1,1,-1
 46 0 l 1,2,-1
 46 107 l 1,3,-1
 57 107 l 2,4,5
 81 107 81 107 99 114 c 128,-1,6
 117 121 117 121 117 143 c 2,7,-1
 117 567 l 2,8,9
 117 589 117 589 99 596 c 128,-1,10
 81 603 81 603 57 603 c 2,11,-1
 46 603 l 1,12,-1
 46 710 l 1,13,-1
 648 710 l 1,14,-1
 648 510 l 1,15,-1
 540 510 l 1,16,-1
 532 559 l 2,17,18
 529 577 529 577 519.5 586.5 c 128,-1,19
 510 596 510 596 491 600 c 128,-1,20
 472 604 472 604 441 604 c 2,21,-1
 298 604 l 1,22,-1
 298 106 l 1,23,-1
 440 106 l 2,24,25
 468 106 468 106 487 108 c 128,-1,26
 506 110 506 110 517.5 115 c 128,-1,27
 529 120 529 120 534.5 129 c 128,-1,28
 540 138 540 138 543 151 c 2,29,-1
 555 225 l 1,30,-1
 665 225 l 1,0,-1
282 411 m 1,31,32
 328 415 328 415 373.5 418.5 c 128,-1,33
 419 422 419 422 464.5 426.5 c 128,-1,34
 510 431 510 431 555 434 c 1,35,-1
 555 296 l 1,36,37
 510 301 510 301 464.5 304.5 c 128,-1,38
 419 308 419 308 373.5 311.5 c 128,-1,39
 328 315 328 315 282 318 c 1,40,-1
 282 411 l 1,31,32
EndSplineSet
Substitution2: "'ss01' Style Set 1 lookup 61 subtable" E.alt
EndChar

StartChar: F
Encoding: 70 70 20
Width: 703
GlyphClass: 2
Flags: W
AnchorPoint: "Anchor-0" 312 741 basechar 0
LayerCount: 2
Fore
SplineSet
298 604 m 1,0,-1
 298 117 l 2,1,2
 298 114 298 114 304 112.5 c 128,-1,3
 310 111 310 111 320.5 109.5 c 128,-1,4
 331 108 331 108 345 107.5 c 128,-1,5
 359 107 359 107 374 107 c 2,6,-1
 393 107 l 1,7,-1
 393 0 l 1,8,-1
 46 0 l 1,9,-1
 46 107 l 1,10,-1
 56 107 l 2,11,12
 82 107 82 107 99.5 114 c 128,-1,13
 117 121 117 121 117 143 c 2,14,-1
 117 567 l 2,15,16
 117 589 117 589 99.5 596 c 128,-1,17
 82 603 82 603 56 603 c 2,18,-1
 46 603 l 1,19,-1
 46 710 l 1,20,-1
 648 710 l 1,21,-1
 648 508 l 1,22,-1
 538 508 l 1,23,-1
 528 559 l 2,24,25
 525 577 525 577 515 586.5 c 128,-1,26
 505 596 505 596 485 600 c 128,-1,27
 465 604 465 604 434 604 c 2,28,-1
 298 604 l 1,0,-1
282 396 m 1,29,30
 328 400 328 400 373.5 404 c 128,-1,31
 419 408 419 408 464 412 c 128,-1,32
 509 416 509 416 555 419 c 1,33,-1
 555 281 l 1,34,35
 510 285 510 285 464.5 288.5 c 128,-1,36
 419 292 419 292 373.5 296 c 128,-1,37
 328 300 328 300 282 303 c 1,38,-1
 282 396 l 1,29,30
EndSplineSet
Substitution2: "'ss01' Style Set 1 lookup 61 subtable" F.alt
EndChar

StartChar: G
Encoding: 71 71 21
Width: 840
GlyphClass: 2
Flags: W
AnchorPoint: "Anchor-1" 428 0 basechar 0
AnchorPoint: "Anchor-0" 428 741 basechar 0
LayerCount: 2
Fore
SplineSet
725 208 m 2,0,-1
 725 91 l 1,1,2
 710 75 710 75 681 54.5 c 128,-1,3
 652 34 652 34 611 16 c 128,-1,4
 570 -2 570 -2 520 -13.5 c 128,-1,5
 470 -25 470 -25 412 -25 c 0,6,7
 330 -25 330 -25 263 -1.5 c 128,-1,8
 196 22 196 22 148.5 69.5 c 128,-1,9
 101 117 101 117 75.5 188.5 c 128,-1,10
 50 260 50 260 50 355 c 0,11,12
 50 451 50 451 76.5 522.5 c 128,-1,13
 103 594 103 594 151 641 c 128,-1,14
 199 688 199 688 263.5 711.5 c 128,-1,15
 328 735 328 735 405 735 c 0,16,17
 478 735 478 735 527.5 707.5 c 128,-1,18
 577 680 577 680 606 629.5 c 128,-1,19
 635 579 635 579 645 509 c 1,20,-1
 608 561 l 1,21,-1
 623 720 l 1,22,-1
 719 720 l 1,23,-1
 719 482 l 1,24,-1
 610 482 l 1,25,26
 595 521 595 521 569.5 553.5 c 128,-1,27
 544 586 544 586 508.5 605.5 c 128,-1,28
 473 625 473 625 424 625 c 0,29,30
 376 625 376 625 341 609.5 c 128,-1,31
 306 594 306 594 283.5 561 c 128,-1,32
 261 528 261 528 250 477 c 128,-1,33
 239 426 239 426 239 355 c 0,34,35
 239 281 239 281 251 229.5 c 128,-1,36
 263 178 263 178 286.5 146.5 c 128,-1,37
 310 115 310 115 345 100 c 128,-1,38
 380 85 380 85 426 85 c 0,39,40
 462 85 462 85 488 92 c 128,-1,41
 514 99 514 99 531.5 109 c 128,-1,42
 549 119 549 119 560 128 c 1,43,-1
 560 208 l 2,44,45
 560 233 560 233 537.5 240.5 c 128,-1,46
 515 248 515 248 485 248 c 2,47,-1
 455 248 l 1,48,-1
 455 355 l 1,49,-1
 803 355 l 1,50,-1
 803 248 l 1,51,-1
 779 248 l 2,52,53
 751 248 751 248 738 240.5 c 128,-1,54
 725 233 725 233 725 208 c 2,0,-1
EndSplineSet
EndChar

StartChar: H
Encoding: 72 72 22
Width: 863
GlyphClass: 2
Flags: W
AnchorPoint: "Anchor-1" 432 0 basechar 0
AnchorPoint: "Anchor-0" 432 741 basechar 0
LayerCount: 2
Fore
SplineSet
210 419 m 1,0,-1
 627 419 l 1,1,-1
 627 312 l 1,2,-1
 210 312 l 1,3,-1
 210 419 l 1,0,-1
46 0 m 1,4,-1
 46 107 l 1,5,-1
 56 107 l 2,6,7
 82 107 82 107 99.5 114 c 128,-1,8
 117 121 117 121 117 143 c 2,9,-1
 117 567 l 2,10,11
 117 589 117 589 99.5 596 c 128,-1,12
 82 603 82 603 56 603 c 2,13,-1
 46 603 l 1,14,-1
 46 710 l 1,15,-1
 368 710 l 1,16,-1
 368 604 l 1,17,-1
 359 604 l 2,18,19
 350 604 350 604 339 603 c 128,-1,20
 328 602 328 602 318.5 600.5 c 128,-1,21
 309 599 309 599 303.5 597.5 c 128,-1,22
 298 596 298 596 298 593 c 2,23,-1
 298 116 l 2,24,25
 298 113 298 113 303.5 112 c 128,-1,26
 309 111 309 111 318.5 109.5 c 128,-1,27
 328 108 328 108 339 107.5 c 128,-1,28
 350 107 350 107 359 107 c 2,29,-1
 368 107 l 1,30,-1
 368 0 l 1,31,-1
 46 0 l 1,4,-1
495 0 m 1,32,-1
 495 106 l 1,33,-1
 503 106 l 2,34,35
 513 106 513 106 524 107 c 128,-1,36
 535 108 535 108 544 109.5 c 128,-1,37
 553 111 553 111 559 112.5 c 128,-1,38
 565 114 565 114 565 117 c 2,39,-1
 565 594 l 2,40,41
 565 597 565 597 559 598 c 128,-1,42
 553 599 553 599 544 600.5 c 128,-1,43
 535 602 535 602 524 602.5 c 128,-1,44
 513 603 513 603 503 603 c 2,45,-1
 495 603 l 1,46,-1
 495 710 l 1,47,-1
 817 710 l 1,48,-1
 817 603 l 1,49,-1
 806 603 l 2,50,51
 781 603 781 603 763.5 596 c 128,-1,52
 746 589 746 589 746 567 c 2,53,-1
 746 143 l 2,54,55
 746 121 746 121 763.5 114 c 128,-1,56
 781 107 781 107 806 107 c 2,57,-1
 817 107 l 1,58,-1
 817 0 l 1,59,-1
 495 0 l 1,32,-1
EndSplineSet
EndChar

StartChar: I
Encoding: 73 73 23
Width: 436
GlyphClass: 2
Flags: W
AnchorPoint: "Anchor-2" 287 0 basechar 0
AnchorPoint: "Anchor-1" 219 0 basechar 0
AnchorPoint: "Anchor-0" 219 741 basechar 0
LayerCount: 2
Fore
SplineSet
128 143 m 2,0,-1
 128 567 l 2,1,2
 128 589 128 589 110 596 c 128,-1,3
 92 603 92 603 65 603 c 2,4,-1
 46 603 l 1,5,-1
 46 710 l 1,6,-1
 391 710 l 1,7,-1
 391 603 l 1,8,-1
 371 603 l 2,9,10
 344 603 344 603 326.5 596 c 128,-1,11
 309 589 309 589 309 567 c 2,12,-1
 309 143 l 2,13,14
 309 121 309 121 326.5 114 c 128,-1,15
 344 107 344 107 371 107 c 2,16,-1
 391 107 l 1,17,-1
 391 0 l 1,18,-1
 46 0 l 1,19,-1
 46 107 l 1,20,-1
 65 107 l 2,21,22
 92 107 92 107 110 114 c 128,-1,23
 128 121 128 121 128 143 c 2,0,-1
EndSplineSet
EndChar

StartChar: J
Encoding: 74 74 28
Width: 701
GlyphClass: 2
Flags: W
AnchorPoint: "Anchor-0" 471 741 basechar 0
LayerCount: 2
Fore
SplineSet
301 710 m 1,0,-1
 660 710 l 1,1,-1
 660 603 l 1,2,-1
 640 603 l 2,3,4
 615 603 615 603 597.5 596 c 128,-1,5
 580 589 580 589 580 567 c 2,6,-1
 580 233 l 2,7,8
 580 164 580 164 559 115 c 128,-1,9
 538 66 538 66 499.5 35 c 128,-1,10
 461 4 461 4 407 -10.5 c 128,-1,11
 353 -25 353 -25 287 -25 c 0,12,13
 223 -25 223 -25 173.5 -12 c 128,-1,14
 124 1 124 1 91.5 18 c 128,-1,15
 59 35 59 35 45 47 c 1,16,-1
 45 256 l 1,17,-1
 208 256 l 1,18,-1
 208 46 l 1,19,20
 189 52 189 52 174 63.5 c 128,-1,21
 159 75 159 75 150 88 c 128,-1,22
 141 101 141 101 138.5 112.5 c 128,-1,23
 136 124 136 124 142 129 c 1,24,25
 153 120 153 120 173.5 110 c 128,-1,26
 194 100 194 100 220.5 92.5 c 128,-1,27
 247 85 247 85 279 85 c 0,28,29
 319 85 319 85 345 99 c 128,-1,30
 371 113 371 113 384.5 147.5 c 128,-1,31
 398 182 398 182 398 245 c 2,32,-1
 398 567 l 2,33,34
 398 582 398 582 388.5 589.5 c 128,-1,35
 379 597 379 597 363 600 c 128,-1,36
 347 603 347 603 329 603 c 2,37,-1
 301 603 l 1,38,-1
 301 710 l 1,0,-1
EndSplineSet
EndChar

StartChar: K
Encoding: 75 75 29
Width: 846
GlyphClass: 2
Flags: W
AnchorPoint: "Anchor-1" 436 0 basechar 0
AnchorPoint: "Anchor-0" 436 741 basechar 0
LayerCount: 2
Fore
SplineSet
46 0 m 1,0,-1
 46 107 l 1,1,-1
 57 107 l 2,2,3
 82 107 82 107 99.5 114 c 128,-1,4
 117 121 117 121 117 143 c 2,5,-1
 117 567 l 2,6,7
 117 589 117 589 99.5 596 c 128,-1,8
 82 603 82 603 57 603 c 2,9,-1
 46 603 l 1,10,-1
 46 710 l 1,11,-1
 374 710 l 1,12,-1
 374 603 l 1,13,-1
 362 603 l 2,14,15
 350 603 350 603 338.5 602.5 c 128,-1,16
 327 602 327 602 318 600.5 c 128,-1,17
 309 599 309 599 303.5 597.5 c 128,-1,18
 298 596 298 596 298 593 c 2,19,-1
 298 116 l 2,20,21
 298 114 298 114 303.5 112.5 c 128,-1,22
 309 111 309 111 317 109.5 c 128,-1,23
 325 108 325 108 335 107.5 c 128,-1,24
 345 107 345 107 353 107 c 2,25,-1
 361 107 l 1,26,-1
 361 0 l 1,27,-1
 46 0 l 1,0,-1
470 0 m 1,28,-1
 470 107 l 1,29,-1
 480 107 l 2,30,31
 495 107 495 107 507 108 c 128,-1,32
 519 109 519 109 527 111.5 c 128,-1,33
 535 114 535 114 535 117 c 2,34,-1
 333 348 l 1,35,-1
 333 372 l 1,36,-1
 571 592 l 2,37,38
 571 596 571 596 562.5 598 c 128,-1,39
 554 600 554 600 540.5 601.5 c 128,-1,40
 527 603 527 603 511 603 c 2,41,-1
 496 603 l 1,42,-1
 496 710 l 1,43,-1
 786 710 l 1,44,-1
 786 603 l 1,45,-1
 767 603 l 2,46,47
 753 603 753 603 741 600 c 128,-1,48
 729 597 729 597 717.5 591 c 128,-1,49
 706 585 706 585 694 573 c 2,50,-1
 457 355 l 1,51,-1
 477 443 l 1,52,-1
 753 128 l 2,53,54
 761 120 761 120 769.5 115 c 128,-1,55
 778 110 778 110 787 108.5 c 128,-1,56
 796 107 796 107 806 107 c 2,57,-1
 819 107 l 1,58,-1
 819 0 l 1,59,-1
 470 0 l 1,28,-1
EndSplineSet
EndChar

StartChar: L
Encoding: 76 76 30
Width: 696
GlyphClass: 2
Flags: W
AnchorPoint: "Anchor-2" 530 710 basechar 0
AnchorPoint: "Anchor-1" 427 0 basechar 0
AnchorPoint: "Anchor-0" 427 741 basechar 0
LayerCount: 2
Fore
SplineSet
389 710 m 1,0,-1
 46 710 l 1,1,-1
 46 603 l 1,2,-1
 56 603 l 2,3,4
 82 603 82 603 99.5 596 c 128,-1,5
 117 589 117 589 117 567 c 2,6,-1
 117 143 l 2,7,8
 117 121 117 121 99.5 114 c 128,-1,9
 82 107 82 107 56 107 c 2,10,-1
 46 107 l 1,11,-1
 46 0 l 1,12,-1
 653 0 l 1,13,-1
 653 261 l 1,14,-1
 541 261 l 1,15,-1
 527 151 l 2,16,17
 525 133 525 133 516 123 c 128,-1,18
 507 113 507 113 485.5 109.5 c 128,-1,19
 464 106 464 106 426 106 c 2,20,-1
 298 106 l 1,21,-1
 298 567 l 2,22,23
 298 589 298 589 318 596 c 128,-1,24
 338 603 338 603 370 603 c 2,25,-1
 389 603 l 1,26,-1
 389 710 l 1,0,-1
EndSplineSet
EndChar

StartChar: M
Encoding: 77 77 31
Width: 1027
GlyphClass: 2
Flags: W
AnchorPoint: "Anchor-1" 501 0 basechar 0
LayerCount: 2
Fore
SplineSet
46 0 m 1,0,-1
 46 107 l 1,1,-1
 57 107 l 2,2,3
 73 107 73 107 84 110 c 128,-1,4
 95 113 95 113 102 121 c 128,-1,5
 109 129 109 129 109 143 c 2,6,-1
 109 567 l 2,7,8
 109 582 109 582 102 589.5 c 128,-1,9
 95 597 95 597 83.5 600 c 128,-1,10
 72 603 72 603 57 603 c 2,11,-1
 46 603 l 1,12,-1
 46 710 l 1,13,-1
 381 710 l 1,14,-1
 542 197 l 1,15,-1
 485 221 l 1,16,-1
 650 710 l 1,17,-1
 980 710 l 1,18,-1
 980 603 l 1,19,-1
 970 603 l 2,20,21
 945 603 945 603 927 596 c 128,-1,22
 909 589 909 589 909 567 c 2,23,-1
 909 143 l 2,24,25
 909 121 909 121 927 114 c 128,-1,26
 945 107 945 107 970 107 c 2,27,-1
 980 107 l 1,28,-1
 980 0 l 1,29,-1
 659 0 l 1,30,-1
 659 107 l 1,31,-1
 668 107 l 2,32,33
 679 107 679 107 693 108 c 128,-1,34
 707 109 707 109 718 111.5 c 128,-1,35
 729 114 729 114 729 117 c 2,36,-1
 729 690 l 1,37,-1
 749 691 l 1,38,-1
 517 -6 l 1,39,-1
 428 -6 l 1,40,-1
 200 690 l 1,41,-1
 221 692 l 1,42,-1
 221 117 l 2,43,44
 221 114 221 114 228 111.5 c 128,-1,45
 235 109 235 109 245 108 c 128,-1,46
 255 107 255 107 262 107 c 2,47,-1
 268 107 l 1,48,-1
 268 0 l 1,49,-1
 46 0 l 1,0,-1
EndSplineSet
EndChar

StartChar: N
Encoding: 78 78 32
Width: 834
GlyphClass: 2
Flags: W
AnchorPoint: "Anchor-1" 427 0 basechar 0
AnchorPoint: "Anchor-0" 427 741 basechar 0
LayerCount: 2
Fore
SplineSet
46 0 m 1,0,-1
 46 107 l 1,1,-1
 57 107 l 2,2,3
 74 107 74 107 86.5 110 c 128,-1,4
 99 113 99 113 106 121 c 128,-1,5
 113 129 113 129 113 143 c 2,6,-1
 113 567 l 2,7,8
 113 582 113 582 106 589.5 c 128,-1,9
 99 597 99 597 86.5 600 c 128,-1,10
 74 603 74 603 57 603 c 2,11,-1
 46 603 l 1,12,-1
 46 710 l 1,13,-1
 356 710 l 1,14,-1
 644 149 l 1,15,-1
 619 146 l 1,16,-1
 619 593 l 2,17,18
 619 597 619 597 611 599 c 128,-1,19
 603 601 603 601 592 602 c 128,-1,20
 581 603 581 603 570 603 c 2,21,-1
 557 603 l 1,22,-1
 557 710 l 1,23,-1
 793 710 l 1,24,-1
 793 603 l 1,25,-1
 783 603 l 2,26,27
 766 603 766 603 754.5 600.5 c 128,-1,28
 743 598 743 598 737 591.5 c 128,-1,29
 731 585 731 585 731 570 c 2,30,-1
 731 0 l 1,31,-1
 527 0 l 1,32,-1
 185 666 l 1,33,-1
 225 657 l 1,34,-1
 225 117 l 2,35,36
 225 114 225 114 233 111.5 c 128,-1,37
 241 109 241 109 252.5 108 c 128,-1,38
 264 107 264 107 274 107 c 2,39,-1
 287 107 l 1,40,-1
 287 0 l 1,41,-1
 46 0 l 1,0,-1
EndSplineSet
EndChar

StartChar: O
Encoding: 79 79 34
Width: 837
GlyphClass: 2
Flags: W
AnchorPoint: "Anchor-2" 461 0 basechar 0
AnchorPoint: "Anchor-1" 419 0 basechar 0
AnchorPoint: "Anchor-0" 419 741 basechar 0
LayerCount: 2
Fore
SplineSet
419 -25 m 256,0,1
 335 -25 335 -25 267.5 -1 c 128,-1,2
 200 23 200 23 151 70.5 c 128,-1,3
 102 118 102 118 76 189.5 c 128,-1,4
 50 261 50 261 50 355 c 0,5,6
 50 450 50 450 76 521 c 128,-1,7
 102 592 102 592 151 639.5 c 128,-1,8
 200 687 200 687 267.5 711 c 128,-1,9
 335 735 335 735 419 735 c 256,10,11
 503 735 503 735 571 711 c 128,-1,12
 639 687 639 687 687 639.5 c 128,-1,13
 735 592 735 592 761 521 c 128,-1,14
 787 450 787 450 787 355 c 0,15,16
 787 261 787 261 761 189.5 c 128,-1,17
 735 118 735 118 687 70.5 c 128,-1,18
 639 23 639 23 571 -1 c 128,-1,19
 503 -25 503 -25 419 -25 c 256,0,1
419 87 m 256,20,21
 465 87 465 87 499 101 c 128,-1,22
 533 115 533 115 554.5 146 c 128,-1,23
 576 177 576 177 587 228 c 128,-1,24
 598 279 598 279 598 355 c 0,25,26
 598 430 598 430 587 481.5 c 128,-1,27
 576 533 576 533 554.5 564 c 128,-1,28
 533 595 533 595 499 609 c 128,-1,29
 465 623 465 623 419 623 c 256,30,31
 373 623 373 623 339.5 609 c 128,-1,32
 306 595 306 595 283.5 564 c 128,-1,33
 261 533 261 533 250 481.5 c 128,-1,34
 239 430 239 430 239 355 c 256,35,36
 239 280 239 280 250 228.5 c 128,-1,37
 261 177 261 177 283 146 c 128,-1,38
 305 115 305 115 339 101 c 128,-1,39
 373 87 373 87 419 87 c 256,20,21
EndSplineSet
EndChar

StartChar: P
Encoding: 80 80 40
Width: 733
GlyphClass: 2
Flags: W
AnchorPoint: "Anchor-0" 319 741 basechar 0
LayerCount: 2
Fore
SplineSet
298 117 m 2,0,-1
 298 604 l 1,1,-1
 411 604 l 2,2,3
 446 604 446 604 469 592 c 128,-1,4
 492 580 492 580 503.5 555 c 128,-1,5
 515 530 515 530 515 492 c 0,6,7
 515 452 515 452 503.5 426 c 128,-1,8
 492 400 492 400 468.5 388 c 128,-1,9
 445 376 445 376 409 376 c 2,10,-1
 273 376 l 1,11,-1
 273 270 l 1,12,-1
 440 270 l 2,13,14
 516 270 516 270 573 296 c 128,-1,15
 630 322 630 322 662 372.5 c 128,-1,16
 694 423 694 423 694 496 c 0,17,18
 694 603 694 603 626.5 656.5 c 128,-1,19
 559 710 559 710 443 710 c 2,20,-1
 46 710 l 1,21,-1
 46 609 l 1,22,-1
 56 609 l 2,23,24
 81 609 81 609 98.5 602 c 128,-1,25
 116 595 116 595 116 573 c 2,26,-1
 116 137 l 2,27,28
 116 115 116 115 98.5 108 c 128,-1,29
 81 101 81 101 56 101 c 2,30,-1
 46 101 l 1,31,-1
 46 0 l 1,32,-1
 390 0 l 1,33,-1
 390 107 l 1,34,-1
 367 107 l 2,35,36
 353 107 353 107 340.5 107.5 c 128,-1,37
 328 108 328 108 318.5 109.5 c 128,-1,38
 309 111 309 111 303.5 112.5 c 128,-1,39
 298 114 298 114 298 117 c 2,0,-1
EndSplineSet
EndChar

StartChar: Q
Encoding: 81 81 41
Width: 837
GlyphClass: 1
Flags: W
LayerCount: 2
Fore
SplineSet
358 -3 m 1,0,-1
 478 19 l 1,1,2
 480 -36 480 -36 492 -69 c 128,-1,3
 504 -102 504 -102 535 -116.5 c 128,-1,4
 566 -131 566 -131 622 -131 c 0,5,6
 655 -131 655 -131 684 -126.5 c 128,-1,7
 713 -122 713 -122 739.5 -115 c 128,-1,8
 766 -108 766 -108 789 -101 c 1,9,-1
 789 -252 l 1,10,11
 758 -258 758 -258 715 -262.5 c 128,-1,12
 672 -267 672 -267 630 -267 c 0,13,14
 542 -267 542 -267 481 -240 c 128,-1,15
 420 -213 420 -213 389 -154.5 c 128,-1,16
 358 -96 358 -96 358 -3 c 1,0,-1
419 -25 m 256,17,18
 335 -25 335 -25 267.5 -1 c 128,-1,19
 200 23 200 23 151 70.5 c 128,-1,20
 102 118 102 118 76 189.5 c 128,-1,21
 50 261 50 261 50 355 c 0,22,23
 50 450 50 450 76 521 c 128,-1,24
 102 592 102 592 151 639.5 c 128,-1,25
 200 687 200 687 267.5 711 c 128,-1,26
 335 735 335 735 419 735 c 256,27,28
 503 735 503 735 571 711 c 128,-1,29
 639 687 639 687 687 639.5 c 128,-1,30
 735 592 735 592 761 521 c 128,-1,31
 787 450 787 450 787 355 c 0,32,33
 787 261 787 261 761 189.5 c 128,-1,34
 735 118 735 118 687 70.5 c 128,-1,35
 639 23 639 23 571 -1 c 128,-1,36
 503 -25 503 -25 419 -25 c 256,17,18
419 87 m 256,37,38
 465 87 465 87 499 101 c 128,-1,39
 533 115 533 115 555.5 146 c 128,-1,40
 578 177 578 177 589.5 228 c 128,-1,41
 601 279 601 279 601 355 c 0,42,43
 602 430 602 430 590.5 481.5 c 128,-1,44
 579 533 579 533 556.5 564 c 128,-1,45
 534 595 534 595 499.5 609 c 128,-1,46
 465 623 465 623 419 623 c 256,47,48
 373 623 373 623 339.5 609 c 128,-1,49
 306 595 306 595 283.5 564 c 128,-1,50
 261 533 261 533 250 481.5 c 128,-1,51
 239 430 239 430 239 355 c 256,52,53
 239 280 239 280 250 228.5 c 128,-1,54
 261 177 261 177 283 146 c 128,-1,55
 305 115 305 115 339 101 c 128,-1,56
 373 87 373 87 419 87 c 256,37,38
EndSplineSet
EndChar

StartChar: R
Encoding: 82 82 42
Width: 809
GlyphClass: 2
Flags: W
AnchorPoint: "Anchor-1" 453 0 basechar 0
AnchorPoint: "Anchor-0" 453 741 basechar 0
LayerCount: 2
Fore
SplineSet
400 320 m 1,0,-1
 559 0 l 1,1,-1
 777 0 l 1,2,-1
 777 107 l 1,3,-1
 767 107 l 2,4,5
 747 107 747 107 731 111.5 c 128,-1,6
 715 116 715 116 701 129.5 c 128,-1,7
 687 143 687 143 672 168 c 2,8,-1
 555 379 l 1,9,-1
 400 320 l 1,0,-1
298 117 m 2,10,-1
 298 607 l 1,11,-1
 422 607 l 2,12,13
 458 607 458 607 480.5 595 c 128,-1,14
 503 583 503 583 513.5 560.5 c 128,-1,15
 524 538 524 538 524 507 c 0,16,17
 524 472 524 472 512.5 444 c 128,-1,18
 501 416 501 416 477 400 c 128,-1,19
 453 384 453 384 416 384 c 2,20,-1
 271 384 l 1,21,-1
 271 282 l 1,22,-1
 478 282 l 1,23,24
 483 287 483 287 485 291.5 c 128,-1,25
 487 296 487 296 490 301.5 c 128,-1,26
 493 307 493 307 500 316 c 1,27,28
 565 328 565 328 611.5 354 c 128,-1,29
 658 380 658 380 683 422 c 128,-1,30
 708 464 708 464 708 520 c 0,31,32
 708 585 708 585 678 627 c 128,-1,33
 648 669 648 669 591 689.5 c 128,-1,34
 534 710 534 710 451 710 c 2,35,-1
 46 710 l 1,36,-1
 46 603 l 1,37,-1
 57 603 l 2,38,39
 81 603 81 603 99 596 c 128,-1,40
 117 589 117 589 117 567 c 2,41,-1
 117 143 l 2,42,43
 117 121 117 121 99 114 c 128,-1,44
 81 107 81 107 57 107 c 2,45,-1
 46 107 l 1,46,-1
 46 0 l 1,47,-1
 383 0 l 1,48,-1
 383 107 l 1,49,-1
 367 107 l 2,50,51
 353 107 353 107 340.5 107.5 c 128,-1,52
 328 108 328 108 318.5 109.5 c 128,-1,53
 309 111 309 111 303.5 112.5 c 128,-1,54
 298 114 298 114 298 117 c 2,10,-1
EndSplineSet
EndChar

StartChar: S
Encoding: 83 83 43
Width: 693
GlyphClass: 2
Flags: W
AnchorPoint: "Anchor-1" 381 0 basechar 0
AnchorPoint: "Anchor-0" 381 741 basechar 0
LayerCount: 2
Fore
SplineSet
364 70 m 0,0,1
 409 70 409 70 436 77.5 c 128,-1,2
 463 85 463 85 475 103.5 c 128,-1,3
 487 122 487 122 487 156 c 0,4,5
 487 185 487 185 474.5 205 c 128,-1,6
 462 225 462 225 438.5 238.5 c 128,-1,7
 415 252 415 252 379.5 263 c 128,-1,8
 344 274 344 274 298 284 c 0,9,10
 250 295 250 295 208 310 c 128,-1,11
 166 325 166 325 134.5 349.5 c 128,-1,12
 103 374 103 374 85.5 414 c 128,-1,13
 68 454 68 454 68 517 c 0,14,15
 68 591 68 591 97 639.5 c 128,-1,16
 126 688 126 688 182.5 711.5 c 128,-1,17
 239 735 239 735 323 735 c 0,18,19
 397 735 397 735 441.5 713.5 c 128,-1,20
 486 692 486 692 508.5 647 c 128,-1,21
 531 602 531 602 537 533 c 1,22,-1
 504 594 l 1,23,-1
 521 720 l 1,24,-1
 613 720 l 1,25,-1
 613 502 l 1,26,-1
 507 502 l 1,27,28
 496 544 496 544 474 575.5 c 128,-1,29
 452 607 452 607 418 624 c 128,-1,30
 384 641 384 641 333 641 c 0,31,32
 297 641 297 641 273.5 632 c 128,-1,33
 250 623 250 623 239.5 605 c 128,-1,34
 229 587 229 587 229 557 c 0,35,36
 229 529 229 529 239 512 c 128,-1,37
 249 495 249 495 270 484 c 128,-1,38
 291 473 291 473 324 464.5 c 128,-1,39
 357 456 357 456 402 446 c 0,40,41
 451 436 451 436 496 422 c 128,-1,42
 541 408 541 408 576 383.5 c 128,-1,43
 611 359 611 359 631.5 318.5 c 128,-1,44
 652 278 652 278 652 216 c 0,45,46
 652 132 652 132 621 79 c 128,-1,47
 590 26 590 26 529.5 0.5 c 128,-1,48
 469 -25 469 -25 381 -25 c 0,49,50
 305 -25 305 -25 251.5 -5 c 128,-1,51
 198 15 198 15 168.5 64 c 128,-1,52
 139 113 139 113 132 198 c 1,53,-1
 165 142 l 1,54,-1
 145 -4 l 1,55,-1
 52 -4 l 1,56,-1
 52 236 l 1,57,-1
 166 236 l 1,58,59
 182 177 182 177 208 140.5 c 128,-1,60
 234 104 234 104 273 87 c 128,-1,61
 312 70 312 70 364 70 c 0,0,1
EndSplineSet
EndChar

StartChar: Scaron
Encoding: 138 352 44
Width: 693
GlyphClass: 1
Flags: W
LayerCount: 2
Fore
SplineSet
289 792 m 1,0,-1
 409 792 l 1,1,-1
 553 948 l 1,2,-1
 553 995 l 1,3,-1
 480 995 l 1,4,-1
 309 883 l 1,5,-1
 396 885 l 1,6,-1
 222 995 l 1,7,-1
 145 995 l 1,8,-1
 145 948 l 1,9,-1
 289 792 l 1,0,-1
364 70 m 0,10,11
 409 70 409 70 436 77.5 c 128,-1,12
 463 85 463 85 475 103.5 c 128,-1,13
 487 122 487 122 487 156 c 0,14,15
 487 185 487 185 474.5 205 c 128,-1,16
 462 225 462 225 438.5 238.5 c 128,-1,17
 415 252 415 252 379.5 263 c 128,-1,18
 344 274 344 274 298 284 c 0,19,20
 250 295 250 295 208 310 c 128,-1,21
 166 325 166 325 134.5 349.5 c 128,-1,22
 103 374 103 374 85.5 414 c 128,-1,23
 68 454 68 454 68 517 c 0,24,25
 68 591 68 591 97 639.5 c 128,-1,26
 126 688 126 688 182.5 711.5 c 128,-1,27
 239 735 239 735 323 735 c 0,28,29
 397 735 397 735 441.5 713.5 c 128,-1,30
 486 692 486 692 508.5 647 c 128,-1,31
 531 602 531 602 537 533 c 1,32,-1
 504 594 l 1,33,-1
 521 720 l 1,34,-1
 613 720 l 1,35,-1
 613 502 l 1,36,-1
 507 502 l 1,37,38
 496 544 496 544 474 575.5 c 128,-1,39
 452 607 452 607 418 624 c 128,-1,40
 384 641 384 641 333 641 c 0,41,42
 297 641 297 641 273.5 632 c 128,-1,43
 250 623 250 623 239.5 605 c 128,-1,44
 229 587 229 587 229 557 c 0,45,46
 229 529 229 529 239 512 c 128,-1,47
 249 495 249 495 270 484 c 128,-1,48
 291 473 291 473 324 464.5 c 128,-1,49
 357 456 357 456 402 446 c 0,50,51
 451 436 451 436 496 422 c 128,-1,52
 541 408 541 408 576 383.5 c 128,-1,53
 611 359 611 359 631.5 318.5 c 128,-1,54
 652 278 652 278 652 216 c 0,55,56
 652 132 652 132 621 79 c 128,-1,57
 590 26 590 26 529.5 0.5 c 128,-1,58
 469 -25 469 -25 381 -25 c 0,59,60
 305 -25 305 -25 251.5 -5 c 128,-1,61
 198 15 198 15 168.5 64 c 128,-1,62
 139 113 139 113 132 198 c 1,63,-1
 165 142 l 1,64,-1
 145 -4 l 1,65,-1
 52 -4 l 1,66,-1
 52 236 l 1,67,-1
 166 236 l 1,68,69
 182 177 182 177 208 140.5 c 128,-1,70
 234 104 234 104 273 87 c 128,-1,71
 312 70 312 70 364 70 c 0,10,11
EndSplineSet
EndChar

StartChar: T
Encoding: 84 84 45
Width: 769
GlyphClass: 2
Flags: W
AnchorPoint: "Anchor-1" 390 0 basechar 0
AnchorPoint: "Anchor-0" 390 741 basechar 0
LayerCount: 2
Fore
SplineSet
294 143 m 2,0,-1
 294 602 l 1,1,-1
 250 602 l 2,2,3
 215 602 215 602 197 596 c 128,-1,4
 179 590 179 590 172.5 578 c 128,-1,5
 166 566 166 566 164 547 c 2,6,-1
 154 430 l 1,7,-1
 44 430 l 1,8,-1
 44 710 l 1,9,-1
 725 710 l 1,10,-1
 725 430 l 1,11,-1
 615 430 l 1,12,-1
 605 547 l 2,13,14
 603 566 603 566 596.5 578 c 128,-1,15
 590 590 590 590 572 596 c 128,-1,16
 554 602 554 602 519 602 c 2,17,-1
 475 602 l 1,18,-1
 475 143 l 2,19,20
 475 121 475 121 495 114 c 128,-1,21
 515 107 515 107 541 107 c 2,22,-1
 561 107 l 1,23,-1
 561 0 l 1,24,-1
 208 0 l 1,25,-1
 208 107 l 1,26,-1
 227 107 l 2,27,28
 254 107 254 107 274 114 c 128,-1,29
 294 121 294 121 294 143 c 2,0,-1
EndSplineSet
EndChar

StartChar: U
Encoding: 85 85 46
Width: 800
GlyphClass: 2
Flags: W
AnchorPoint: "Anchor-2" 459 0 basechar 0
AnchorPoint: "Anchor-1" 405 0 basechar 0
AnchorPoint: "Anchor-0" 405 741 basechar 0
LayerCount: 2
Fore
SplineSet
292 288 m 2,0,1
 292 235 292 235 302.5 199 c 128,-1,2
 313 163 313 163 332 141 c 128,-1,3
 351 119 351 119 378.5 109 c 128,-1,4
 406 99 406 99 440 99 c 0,5,6
 477 99 477 99 505 109.5 c 128,-1,7
 533 120 533 120 552 142.5 c 128,-1,8
 571 165 571 165 580.5 201 c 128,-1,9
 590 237 590 237 590 288 c 2,10,-1
 590 585 l 2,11,12
 590 590 590 590 584.5 593.5 c 128,-1,13
 579 597 579 597 570 598.5 c 128,-1,14
 561 600 561 600 549.5 601.5 c 128,-1,15
 538 603 538 603 527 603 c 2,16,-1
 515 603 l 1,17,-1
 515 710 l 1,18,-1
 760 710 l 1,19,-1
 760 603 l 1,20,-1
 750 603 l 2,21,22
 736 603 736 603 724 600 c 128,-1,23
 712 597 712 597 705 588.5 c 128,-1,24
 698 580 698 580 698 564 c 2,25,-1
 698 257 l 2,26,27
 698 181 698 181 675.5 127 c 128,-1,28
 653 73 653 73 613.5 39.5 c 128,-1,29
 574 6 574 6 523.5 -9.5 c 128,-1,30
 473 -25 473 -25 417 -25 c 0,31,32
 348 -25 348 -25 291.5 -8.5 c 128,-1,33
 235 8 235 8 194.5 42.5 c 128,-1,34
 154 77 154 77 132.5 131.5 c 128,-1,35
 111 186 111 186 111 261 c 2,36,-1
 111 567 l 2,37,38
 111 589 111 589 93.5 596 c 128,-1,39
 76 603 76 603 50 603 c 2,40,-1
 39 603 l 1,41,-1
 39 710 l 1,42,-1
 368 710 l 1,43,-1
 368 603 l 1,44,-1
 356 603 l 2,45,46
 346 603 346 603 334.5 602.5 c 128,-1,47
 323 602 323 602 313.5 600.5 c 128,-1,48
 304 599 304 599 298 597.5 c 128,-1,49
 292 596 292 596 292 593 c 2,50,-1
 292 288 l 2,0,1
EndSplineSet
EndChar

StartChar: V
Encoding: 86 86 51
Width: 769
GlyphClass: 2
Flags: W
AnchorPoint: "Anchor-0" 360 741 basechar 0
LayerCount: 2
Fore
SplineSet
442 56 m 1,0,-1
 405 60 l 1,1,-1
 570 580 l 2,2,3
 570 587 570 587 564 592 c 128,-1,4
 558 597 558 597 544 600 c 128,-1,5
 530 603 530 603 508 603 c 2,6,-1
 498 603 l 1,7,-1
 498 710 l 1,8,-1
 746 710 l 1,9,-1
 746 603 l 1,10,-1
 740 603 l 2,11,12
 718 603 718 603 700 590 c 128,-1,13
 682 577 682 577 670 539 c 2,14,-1
 496 -5 l 1,15,-1
 281 -5 l 1,16,-1
 105 539 l 2,17,18
 93 578 93 578 72.5 590.5 c 128,-1,19
 52 603 52 603 28 603 c 2,20,-1
 22 603 l 1,21,-1
 22 710 l 1,22,-1
 349 710 l 1,23,-1
 349 603 l 1,24,-1
 339 603 l 2,25,26
 315 603 315 603 301 601.5 c 128,-1,27
 287 600 287 600 280.5 598 c 128,-1,28
 274 596 274 596 274 592 c 2,29,-1
 442 56 l 1,0,-1
EndSplineSet
EndChar

StartChar: W
Encoding: 87 87 52
Width: 1094
GlyphClass: 2
Flags: W
AnchorPoint: "Anchor-0" 562 741 basechar 0
LayerCount: 2
Fore
SplineSet
22 710 m 1,0,-1
 336 710 l 1,1,-1
 336 603 l 1,2,-1
 323 603 l 2,3,4
 310 603 310 603 297.5 601.5 c 128,-1,5
 285 600 285 600 277 598 c 128,-1,6
 269 596 269 596 269 592 c 2,7,-1
 380 102 l 1,8,-1
 353 114 l 1,9,-1
 506 710 l 1,10,-1
 687 710 l 1,11,-1
 830 106 l 1,12,-1
 798 96 l 1,13,-1
 919 582 l 2,14,15
 919 588 919 588 913 592.5 c 128,-1,16
 907 597 907 597 896 600 c 128,-1,17
 885 603 885 603 870 603 c 2,18,-1
 857 603 l 1,19,-1
 857 710 l 1,20,-1
 1072 710 l 1,21,-1
 1072 603 l 1,22,-1
 1064 603 l 2,23,24
 1044 603 1044 603 1031 592 c 128,-1,25
 1018 581 1018 581 1012 558 c 2,26,-1
 876 0 l 1,27,-1
 685 0 l 1,28,-1
 544 594 l 1,29,-1
 579 592 l 1,30,-1
 426 0 l 1,31,-1
 228 0 l 1,32,-1
 87 575 l 2,33,34
 83 594 83 594 67.5 598.5 c 128,-1,35
 52 603 52 603 30 603 c 2,36,-1
 22 603 l 1,37,-1
 22 710 l 1,0,-1
EndSplineSet
EndChar

StartChar: X
Encoding: 88 88 53
Width: 774
GlyphClass: 2
Flags: W
AnchorPoint: "Anchor-1" 355 0 basechar 0
AnchorPoint: "Anchor-0" 378 741 basechar 0
LayerCount: 2
Fore
SplineSet
33 603 m 1,0,-1
 33 710 l 1,1,-1
 366 710 l 1,2,-1
 366 603 l 1,3,-1
 351 603 l 2,4,5
 339 603 339 603 326.5 602 c 128,-1,6
 314 601 314 601 306.5 599 c 128,-1,7
 299 597 299 597 299 594 c 2,8,-1
 451 396 l 1,9,-1
 476 389 l 1,10,-1
 665 141 l 2,11,12
 683 119 683 119 697 113 c 128,-1,13
 711 107 711 107 732 107 c 2,14,-1
 747 107 l 1,15,-1
 747 0 l 1,16,-1
 407 0 l 1,17,-1
 407 107 l 1,18,-1
 422 107 l 2,19,20
 435 107 435 107 447 108 c 128,-1,21
 459 109 459 109 467 111.5 c 128,-1,22
 475 114 475 114 475 117 c 2,23,-1
 309 333 l 1,24,-1
 285 339 l 1,25,-1
 109 569 l 2,26,27
 92 591 92 591 77.5 597 c 128,-1,28
 63 603 63 603 41 603 c 2,29,-1
 33 603 l 1,0,-1
28 0 m 1,30,-1
 28 107 l 1,31,-1
 42 107 l 2,32,33
 61 107 61 107 74.5 116.5 c 128,-1,34
 88 126 88 126 107 153 c 2,35,-1
 279 392 l 1,36,-1
 369 348 l 1,37,-1
 210 124 l 2,38,39
 210 120 210 120 217 116 c 128,-1,40
 224 112 224 112 235.5 109.5 c 128,-1,41
 247 107 247 107 257 107 c 2,42,-1
 272 107 l 1,43,-1
 272 0 l 1,44,-1
 28 0 l 1,30,-1
481 335 m 1,45,-1
 407 400 l 1,46,-1
 543 586 l 2,47,48
 543 591 543 591 535 595 c 128,-1,49
 527 599 527 599 516 601 c 128,-1,50
 505 603 505 603 494 603 c 2,51,-1
 483 603 l 1,52,-1
 483 710 l 1,53,-1
 722 710 l 1,54,-1
 722 603 l 1,55,-1
 714 603 l 2,56,57
 694 603 694 603 679.5 593.5 c 128,-1,58
 665 584 665 584 646 558 c 2,59,-1
 481 335 l 1,45,-1
EndSplineSet
EndChar

StartChar: Y
Encoding: 89 89 54
Width: 738
GlyphClass: 2
Flags: W
AnchorPoint: "Anchor-1" 373 0 basechar 0
AnchorPoint: "Anchor-0" 373 741 basechar 0
LayerCount: 2
Fore
SplineSet
283 293 m 1,0,-1
 292 245 l 1,1,-1
 107 551 l 2,2,3
 96 570 96 570 85.5 581.5 c 128,-1,4
 75 593 75 593 63.5 598 c 128,-1,5
 52 603 52 603 35 603 c 2,6,-1
 26 603 l 1,7,-1
 26 710 l 1,8,-1
 344 710 l 1,9,-1
 344 603 l 1,10,-1
 332 603 l 2,11,12
 315 603 315 603 302.5 601.5 c 128,-1,13
 290 600 290 600 283.5 598 c 128,-1,14
 277 596 277 596 277 592 c 2,15,-1
 439 300 l 1,16,-1
 372 293 l 1,17,-1
 536 583 l 2,18,19
 536 589 536 589 529 593 c 128,-1,20
 522 597 522 597 511.5 600 c 128,-1,21
 501 603 501 603 489 603 c 2,22,-1
 479 603 l 1,23,-1
 479 710 l 1,24,-1
 711 710 l 1,25,-1
 711 603 l 1,26,-1
 702 603 l 2,27,28
 689 603 689 603 678 597 c 128,-1,29
 667 591 667 591 657 579.5 c 128,-1,30
 647 568 647 568 635 548 c 2,31,-1
 451 238 l 1,32,-1
 464 293 l 1,33,-1
 464 143 l 2,34,35
 464 121 464 121 483.5 114 c 128,-1,36
 503 107 503 107 530 107 c 2,37,-1
 549 107 l 1,38,-1
 549 0 l 1,39,-1
 198 0 l 1,40,-1
 198 107 l 1,41,-1
 217 107 l 2,42,43
 245 107 245 107 264 114 c 128,-1,44
 283 121 283 121 283 143 c 2,45,-1
 283 293 l 1,0,-1
EndSplineSet
EndChar

StartChar: Z
Encoding: 90 90 57
Width: 697
GlyphClass: 2
Flags: W
AnchorPoint: "Anchor-1" 369 0 basechar 0
AnchorPoint: "Anchor-0" 369 741 basechar 0
LayerCount: 2
Fore
SplineSet
263 604 m 2,0,1
 239 604 239 604 224 602 c 128,-1,2
 209 600 209 600 200 595.5 c 128,-1,3
 191 591 191 591 186.5 582.5 c 128,-1,4
 182 574 182 574 180 560 c 2,5,-1
 170 481 l 1,6,-1
 61 481 l 1,7,-1
 61 710 l 1,8,-1
 629 710 l 1,9,-1
 629 580 l 1,10,-1
 183 39 l 1,11,-1
 153 106 l 1,12,-1
 427 106 l 2,13,14
 463 106 463 106 482.5 109.5 c 128,-1,15
 502 113 502 113 510.5 122.5 c 128,-1,16
 519 132 519 132 521 150 c 2,17,-1
 536 259 l 1,18,-1
 646 259 l 1,19,-1
 646 0 l 1,20,-1
 46 0 l 1,21,-1
 46 133 l 1,22,-1
 479 658 l 1,23,-1
 507 604 l 1,24,-1
 263 604 l 2,0,1
EndSplineSet
EndChar

StartChar: Zcaron
Encoding: 142 381 58
Width: 697
GlyphClass: 1
Flags: W
LayerCount: 2
Fore
SplineSet
293 792 m 1,0,-1
 412 792 l 1,1,-1
 557 948 l 1,2,-1
 557 995 l 1,3,-1
 484 995 l 1,4,-1
 313 883 l 1,5,-1
 400 885 l 1,6,-1
 226 995 l 1,7,-1
 148 995 l 1,8,-1
 148 948 l 1,9,-1
 293 792 l 1,0,-1
263 604 m 2,10,11
 239 604 239 604 224 602 c 128,-1,12
 209 600 209 600 200 595.5 c 128,-1,13
 191 591 191 591 186.5 582.5 c 128,-1,14
 182 574 182 574 180 560 c 2,15,-1
 170 481 l 1,16,-1
 61 481 l 1,17,-1
 61 710 l 1,18,-1
 629 710 l 1,19,-1
 629 580 l 1,20,-1
 183 39 l 1,21,-1
 153 106 l 1,22,-1
 427 106 l 2,23,24
 463 106 463 106 482.5 109.5 c 128,-1,25
 502 113 502 113 510.5 122.5 c 128,-1,26
 519 132 519 132 521 150 c 2,27,-1
 536 259 l 1,28,-1
 646 259 l 1,29,-1
 646 0 l 1,30,-1
 46 0 l 1,31,-1
 46 133 l 1,32,-1
 479 658 l 1,33,-1
 507 604 l 1,34,-1
 263 604 l 2,10,11
EndSplineSet
EndChar

StartChar: AE
Encoding: 198 198 59
Width: 1109
GlyphClass: 2
Flags: W
AnchorPoint: "Anchor-0" 684 741 basechar 0
LayerCount: 2
Fore
SplineSet
206 303 m 1,0,-1
 536 303 l 1,1,-1
 548 206 l 1,2,-1
 195 206 l 1,3,-1
 206 303 l 1,0,-1
663 410 m 1,4,5
 707 413 707 413 753.5 416.5 c 128,-1,6
 800 420 800 420 847 424.5 c 128,-1,7
 894 429 894 429 940 433 c 1,8,-1
 940 296 l 1,9,10
 896 299 896 299 850 302 c 128,-1,11
 804 305 804 305 756.5 309.5 c 128,-1,12
 709 314 709 314 663 317 c 1,13,-1
 663 410 l 1,4,5
435 0 m 1,14,-1
 435 107 l 1,15,-1
 444 107 l 2,16,17
 464 107 464 107 478 110 c 128,-1,18
 492 113 492 113 500 120 c 128,-1,19
 508 127 508 127 508 138 c 2,20,-1
 508 613 l 1,21,-1
 474 607 l 1,22,-1
 192 130 l 2,23,24
 192 124 192 124 196.5 118.5 c 128,-1,25
 201 113 201 113 212 110 c 128,-1,26
 223 107 223 107 245 107 c 2,27,-1
 253 107 l 1,28,-1
 253 0 l 1,29,-1
 8 0 l 1,30,-1
 8 107 l 1,31,-1
 14 107 l 2,32,33
 30 107 30 107 42.5 113 c 128,-1,34
 55 119 55 119 67 133 c 128,-1,35
 79 147 79 147 93 171 c 2,36,-1
 333 574 l 1,37,38
 333 587 333 587 328.5 593 c 128,-1,39
 324 599 324 599 315 601 c 128,-1,40
 306 603 306 603 291 603 c 2,41,-1
 284 603 l 1,42,-1
 284 710 l 1,43,-1
 1032 710 l 1,44,-1
 1032 510 l 1,45,-1
 922 510 l 1,46,-1
 912 560 l 2,47,48
 907 578 907 578 897.5 587.5 c 128,-1,49
 888 597 888 597 869.5 600.5 c 128,-1,50
 851 604 851 604 822 604 c 2,51,-1
 689 604 l 1,52,-1
 689 106 l 1,53,-1
 820 106 l 2,54,55
 849 106 849 106 868 108 c 128,-1,56
 887 110 887 110 898 115 c 128,-1,57
 909 120 909 120 914.5 129 c 128,-1,58
 920 138 920 138 923 151 c 2,59,-1
 937 225 l 1,60,-1
 1050 225 l 1,61,-1
 1050 0 l 1,62,-1
 435 0 l 1,14,-1
EndSplineSet
EndChar

StartChar: Eth
Encoding: 208 208 60
Width: 837
GlyphClass: 1
Flags: W
LayerCount: 2
Fore
SplineSet
42 417 m 1,0,-1
 456 417 l 1,1,-1
 456 310 l 1,2,-1
 42 310 l 1,3,-1
 42 417 l 1,0,-1
46 603 m 1,4,-1
 46 710 l 1,5,-1
 418 710 l 2,6,7
 501 710 501 710 569 689.5 c 128,-1,8
 637 669 637 669 685.5 626 c 128,-1,9
 734 583 734 583 760.5 516.5 c 128,-1,10
 787 450 787 450 787 359 c 0,11,12
 787 269 787 269 760.5 201 c 128,-1,13
 734 133 734 133 685.5 88.5 c 128,-1,14
 637 44 637 44 569 22 c 128,-1,15
 501 0 501 0 418 0 c 2,16,-1
 46 0 l 1,17,-1
 46 107 l 1,18,-1
 57 107 l 2,19,20
 82 107 82 107 99.5 114 c 128,-1,21
 117 121 117 121 117 143 c 2,22,-1
 117 567 l 2,23,24
 117 589 117 589 99.5 596 c 128,-1,25
 82 603 82 603 57 603 c 2,26,-1
 46 603 l 1,4,-1
397 604 m 2,27,-1
 298 604 l 1,28,-1
 298 106 l 1,29,-1
 397 106 l 2,30,31
 449 106 449 106 486.5 120.5 c 128,-1,32
 524 135 524 135 548.5 165.5 c 128,-1,33
 573 196 573 196 585 244 c 128,-1,34
 597 292 597 292 597 359 c 256,35,36
 597 426 597 426 585 472.5 c 128,-1,37
 573 519 573 519 548.5 548 c 128,-1,38
 524 577 524 577 486.5 590.5 c 128,-1,39
 449 604 449 604 397 604 c 2,27,-1
EndSplineSet
EndChar

StartChar: Oslash
Encoding: 216 216 61
Width: 837
GlyphClass: 2
Flags: W
AnchorPoint: "Anchor-0" 418 731 basechar 0
LayerCount: 2
Fore
SplineSet
419 623 m 0,0,1
 373 623 373 623 339.5 609 c 128,-1,2
 306 595 306 595 284.5 564 c 128,-1,3
 263 533 263 533 252.5 481.5 c 128,-1,4
 242 430 242 430 242 355 c 0,5,6
 242 276 242 276 251.5 223.5 c 128,-1,7
 261 171 261 171 281.5 141.5 c 128,-1,8
 302 112 302 112 336 99.5 c 128,-1,9
 370 87 370 87 419 87 c 0,10,11
 465 87 465 87 498 101 c 128,-1,12
 531 115 531 115 552.5 146 c 128,-1,13
 574 177 574 177 584.5 228.5 c 128,-1,14
 595 280 595 280 595 355 c 0,15,16
 595 434 595 434 585.5 486.5 c 128,-1,17
 576 539 576 539 555.5 568.5 c 128,-1,18
 535 598 535 598 501 610.5 c 128,-1,19
 467 623 467 623 419 623 c 0,0,1
419 -25 m 0,20,21
 340 -25 340 -25 272.5 1.5 c 128,-1,22
 205 28 205 28 155 77.5 c 128,-1,23
 105 127 105 127 77.5 197.5 c 128,-1,24
 50 268 50 268 50 355 c 0,25,26
 50 450 50 450 76 521 c 128,-1,27
 102 592 102 592 151 639.5 c 128,-1,28
 200 687 200 687 267.5 711 c 128,-1,29
 335 735 335 735 419 735 c 0,30,31
 498 735 498 735 565.5 708.5 c 128,-1,32
 633 682 633 682 682.5 632 c 128,-1,33
 732 582 732 582 759.5 512 c 128,-1,34
 787 442 787 442 787 355 c 0,35,36
 787 261 787 261 761 189.5 c 128,-1,37
 735 118 735 118 687 70.5 c 128,-1,38
 639 23 639 23 571 -1 c 128,-1,39
 503 -25 503 -25 419 -25 c 0,20,21
-12 -25 m 1,40,-1
 726 735 l 1,41,-1
 849 735 l 1,42,-1
 112 -25 l 1,43,-1
 -12 -25 l 1,40,-1
EndSplineSet
EndChar

StartChar: Thorn
Encoding: 222 222 62
Width: 766
GlyphClass: 1
Flags: W
LayerCount: 2
Fore
SplineSet
390 710 m 1,0,-1
 46 710 l 1,1,-1
 46 609 l 1,2,-1
 56 609 l 2,3,4
 84 609 84 609 100 602 c 128,-1,5
 116 595 116 595 116 573 c 2,6,-1
 116 137 l 2,7,8
 116 115 116 115 100 108 c 128,-1,9
 84 101 84 101 56 101 c 2,10,-1
 46 101 l 1,11,-1
 46 0 l 1,12,-1
 390 0 l 1,13,-1
 390 106 l 1,14,-1
 367 106 l 2,15,16
 353 106 353 106 340.5 107 c 128,-1,17
 328 108 328 108 318.5 109.5 c 128,-1,18
 309 111 309 111 303.5 112.5 c 128,-1,19
 298 114 298 114 298 117 c 2,20,-1
 298 594 l 2,21,22
 298 596 298 596 303.5 597.5 c 128,-1,23
 309 599 309 599 318.5 600.5 c 128,-1,24
 328 602 328 602 340.5 602.5 c 128,-1,25
 353 603 353 603 367 603 c 2,26,-1
 390 603 l 1,27,-1
 390 710 l 1,0,-1
719 365 m 0,28,29
 719 425 719 425 690 465 c 128,-1,30
 661 505 661 505 607 525 c 128,-1,31
 553 545 553 545 475 545 c 2,32,-1
 221 545 l 1,33,-1
 227 447 l 1,34,-1
 438 447 l 2,35,36
 473 447 473 447 495 438.5 c 128,-1,37
 517 430 517 430 527.5 411 c 128,-1,38
 538 392 538 392 538 361 c 0,39,40
 538 331 538 331 527.5 311 c 128,-1,41
 517 291 517 291 494 281.5 c 128,-1,42
 471 272 471 272 435 272 c 2,43,-1
 245 272 l 1,44,-1
 245 176 l 1,45,-1
 472 176 l 2,46,47
 548 176 548 176 603 197.5 c 128,-1,48
 658 219 658 219 688.5 261 c 128,-1,49
 719 303 719 303 719 365 c 0,28,29
EndSplineSet
EndChar

StartChar: OE
Encoding: 140 338 63
Width: 1138
GlyphClass: 1
Flags: W
LayerCount: 2
Fore
SplineSet
691 411 m 1,0,1
 738 415 738 415 784 418.5 c 128,-1,2
 830 422 830 422 875.5 426.5 c 128,-1,3
 921 431 921 431 968 434 c 1,4,-1
 968 296 l 1,5,6
 921 300 921 300 875.5 304 c 128,-1,7
 830 308 830 308 784 311.5 c 128,-1,8
 738 315 738 315 691 318 c 1,9,-1
 691 411 l 1,0,1
439 106 m 2,10,-1
 537 106 l 1,11,-1
 537 604 l 1,12,-1
 439 604 l 2,13,14
 388 604 388 604 350.5 590.5 c 128,-1,15
 313 577 313 577 288.5 547 c 128,-1,16
 264 517 264 517 251.5 469 c 128,-1,17
 239 421 239 421 239 351 c 256,18,19
 239 281 239 281 251.5 234 c 128,-1,20
 264 187 264 187 288.5 159 c 128,-1,21
 313 131 313 131 350.5 118.5 c 128,-1,22
 388 106 388 106 439 106 c 2,10,-1
418 0 m 2,23,24
 335 0 335 0 267 20.5 c 128,-1,25
 199 41 199 41 150.5 84 c 128,-1,26
 102 127 102 127 76 193.5 c 128,-1,27
 50 260 50 260 50 351 c 256,28,29
 50 442 50 442 76 509.5 c 128,-1,30
 102 577 102 577 150.5 621.5 c 128,-1,31
 199 666 199 666 267 688 c 128,-1,32
 335 710 335 710 418 710 c 2,33,-1
 1062 710 l 1,34,-1
 1062 510 l 1,35,-1
 944 510 l 1,36,-1
 934 559 l 2,37,38
 932 577 932 577 923.5 586.5 c 128,-1,39
 915 596 915 596 897 600 c 128,-1,40
 879 604 879 604 848 604 c 2,41,-1
 718 604 l 1,42,-1
 718 106 l 1,43,-1
 847 106 l 2,44,45
 876 106 876 106 894 108 c 128,-1,46
 912 110 912 110 922.5 115 c 128,-1,47
 933 120 933 120 938 129 c 128,-1,48
 943 138 943 138 946 151 c 2,49,-1
 960 225 l 1,50,-1
 1079 225 l 1,51,-1
 1079 0 l 1,52,-1
 418 0 l 2,23,24
EndSplineSet
EndChar

StartChar: Ereversedcyr
Encoding: 492 1069 64
Width: 752
GlyphClass: 2
Flags: W
AnchorPoint: "Anchor-1" 363 0 basechar 0
AnchorPoint: "Anchor-0" 363 741 basechar 0
LayerCount: 2
Fore
SplineSet
539 400 m 1,0,-1
 539 329 l 1,1,2
 503 326 503 326 466.5 324 c 128,-1,3
 430 322 430 322 394 320.5 c 128,-1,4
 358 319 358 319 322 317 c 128,-1,5
 286 315 286 315 251 313 c 1,6,-1
 251 416 l 1,7,8
 286 413 286 413 322 411.5 c 128,-1,9
 358 410 358 410 394 408 c 128,-1,10
 430 406 430 406 466.5 404 c 128,-1,11
 503 402 503 402 539 400 c 1,0,-1
365 -17 m 0,12,13
 291 -17 291 -17 242 8 c 128,-1,14
 193 33 193 33 164.5 80 c 128,-1,15
 136 127 136 127 124 193 c 1,16,-1
 166 166 l 1,17,-1
 147 -5 l 1,18,-1
 63 -5 l 1,19,-1
 63 232 l 1,20,-1
 161 232 l 1,21,22
 177 182 177 182 201 145 c 128,-1,23
 225 108 225 108 260 88 c 128,-1,24
 295 68 295 68 343 68 c 0,25,26
 385 68 385 68 417 85.5 c 128,-1,27
 449 103 449 103 471 138.5 c 128,-1,28
 493 174 493 174 504 228 c 128,-1,29
 515 282 515 282 515 355 c 0,30,31
 515 427 515 427 505 481 c 128,-1,32
 495 535 495 535 473.5 570.5 c 128,-1,33
 452 606 452 606 419 624 c 128,-1,34
 386 642 386 642 341 642 c 0,35,36
 293 642 293 642 258.5 622 c 128,-1,37
 224 602 224 602 200 565.5 c 128,-1,38
 176 529 176 529 161 478 c 1,39,-1
 63 478 l 1,40,-1
 63 715 l 1,41,-1
 147 715 l 1,42,-1
 166 544 l 1,43,-1
 123 514 l 1,44,45
 136 580 136 580 164.5 628 c 128,-1,46
 193 676 193 676 242.5 702 c 128,-1,47
 292 728 292 728 365 728 c 0,48,49
 441 728 441 728 504 704 c 128,-1,50
 567 680 567 680 613 633 c 128,-1,51
 659 586 659 586 684.5 516.5 c 128,-1,52
 710 447 710 447 710 355 c 0,53,54
 710 268 710 268 683.5 199 c 128,-1,55
 657 130 657 130 610.5 81.5 c 128,-1,56
 564 33 564 33 501 8 c 128,-1,57
 438 -17 438 -17 365 -17 c 0,12,13
EndSplineSet
Substitution2: "'ss01' Style Set 1 lookup 61 subtable" Ecyr.alt1
EndChar

StartChar: a
Encoding: 97 97 65
Width: 661
GlyphClass: 2
Flags: W
AnchorPoint: "Anchor-2" 496 -10 basechar 0
AnchorPoint: "Anchor-1" 340 0 basechar 0
AnchorPoint: "Anchor-0" 306 569 basechar 0
LayerCount: 2
Fore
SplineSet
409 355 m 1,0,-1
 409 274 l 1,1,2
 353 264 353 264 316 253.5 c 128,-1,3
 279 243 279 243 257.5 232 c 128,-1,4
 236 221 236 221 226 209.5 c 128,-1,5
 216 198 216 198 213 184 c 128,-1,6
 210 170 210 170 210 155 c 0,7,8
 210 130 210 130 218 116.5 c 128,-1,9
 226 103 226 103 241.5 98 c 128,-1,10
 257 93 257 93 278 93 c 256,11,12
 299 93 299 93 319 100 c 128,-1,13
 339 107 339 107 361.5 124.5 c 128,-1,14
 384 142 384 142 408 174 c 1,15,-1
 421 134 l 1,16,17
 396 81 396 81 368 49.5 c 128,-1,18
 340 18 340 18 305 3 c 128,-1,19
 270 -12 270 -12 224 -12 c 0,20,21
 165 -12 165 -12 126.5 3.5 c 128,-1,22
 88 19 88 19 69.5 51.5 c 128,-1,23
 51 84 51 84 51 136 c 0,24,25
 51 182 51 182 67 215.5 c 128,-1,26
 83 249 83 249 122.5 274 c 128,-1,27
 162 299 162 299 231.5 318.5 c 128,-1,28
 301 338 301 338 409 355 c 1,0,-1
433 0 m 1,29,-1
 409 120 l 1,30,-1
 401 120 l 1,31,-1
 401 412 l 2,32,33
 401 430 401 430 395.5 443.5 c 128,-1,34
 390 457 390 457 371 464.5 c 128,-1,35
 352 472 352 472 311 472 c 0,36,37
 255 472 255 472 217.5 462.5 c 128,-1,38
 180 453 180 453 168 445 c 1,39,40
 163 448 163 448 164 458 c 128,-1,41
 165 468 165 468 172 480 c 128,-1,42
 179 492 179 492 192 500.5 c 128,-1,43
 205 509 205 509 223 507 c 1,44,-1
 223 378 l 1,45,-1
 80 378 l 1,46,-1
 80 524 l 1,47,48
 96 533 96 533 129 546 c 128,-1,49
 162 559 162 559 211 569.5 c 128,-1,50
 260 580 260 580 325 580 c 0,51,52
 384 580 384 580 429.5 570 c 128,-1,53
 475 560 475 560 506.5 540 c 128,-1,54
 538 520 538 520 554 489.5 c 128,-1,55
 570 459 570 459 570 417 c 2,56,-1
 570 141 l 2,57,58
 570 130 570 130 575.5 123 c 128,-1,59
 581 116 581 116 593 112.5 c 128,-1,60
 605 109 605 109 624 104 c 2,61,-1
 633 102 l 1,62,-1
 633 0 l 1,63,-1
 433 0 l 1,29,-1
EndSplineSet
Substitution2: "'ss06' Style Set 6 lookup 66 subtable" a.alt
EndChar

StartChar: b
Encoding: 98 98 72
Width: 730
GlyphClass: 2
Flags: W
AnchorPoint: "Anchor-1" 349 0 basechar 0
AnchorPoint: "Anchor-0" 329 755 basechar 0
LayerCount: 2
Fore
SplineSet
436 -12 m 0,0,1
 376 -12 376 -12 334 10 c 128,-1,2
 292 32 292 32 264 72.5 c 128,-1,3
 236 113 236 113 216 168 c 1,4,-1
 224 207 l 1,5,6
 252 174 252 174 277 153 c 128,-1,7
 302 132 302 132 328.5 122 c 128,-1,8
 355 112 355 112 389 112 c 0,9,10
 420 112 420 112 443 122 c 128,-1,11
 466 132 466 132 481 153 c 128,-1,12
 496 174 496 174 503.5 208 c 128,-1,13
 511 242 511 242 511 289 c 0,14,15
 511 333 511 333 505 364 c 128,-1,16
 499 395 499 395 486 415 c 128,-1,17
 473 435 473 435 451.5 444.5 c 128,-1,18
 430 454 430 454 399 454 c 0,19,20
 366 454 366 454 338 445 c 128,-1,21
 310 436 310 436 282.5 412.5 c 128,-1,22
 255 389 255 389 223 346 c 1,23,-1
 222 394 l 1,24,25
 247 451 247 451 278 492.5 c 128,-1,26
 309 534 309 534 351 556.5 c 128,-1,27
 393 579 393 579 448 579 c 0,28,29
 529 579 529 579 582 542 c 128,-1,30
 635 505 635 505 661.5 440 c 128,-1,31
 688 375 688 375 688 289 c 0,32,33
 688 204 688 204 659 135.5 c 128,-1,34
 630 67 630 67 573.5 27.5 c 128,-1,35
 517 -12 517 -12 436 -12 c 0,0,1
88 642 m 2,36,37
 88 653 88 653 81.5 659 c 128,-1,38
 75 665 75 665 63 668.5 c 128,-1,39
 51 672 51 672 34 676 c 2,40,-1
 25 678 l 1,41,-1
 25 780 l 1,42,-1
 259 780 l 1,43,-1
 259 132 l 1,44,-1
 264 130 l 1,45,-1
 202 -19 l 1,46,-1
 88 -19 l 1,47,-1
 88 642 l 2,36,37
EndSplineSet
EndChar

StartChar: c
Encoding: 99 99 73
Width: 618
GlyphClass: 2
Flags: W
AnchorPoint: "Anchor-1" 342 0 basechar 0
AnchorPoint: "Anchor-0" 331 569 basechar 0
LayerCount: 2
Fore
SplineSet
372 101 m 0,0,1
 405 101 405 101 429 109.5 c 128,-1,2
 453 118 453 118 471 136 c 128,-1,3
 489 154 489 154 503 180 c 1,4,-1
 586 128 l 1,5,6
 568 84 568 84 534 52.5 c 128,-1,7
 500 21 500 21 454 4.5 c 128,-1,8
 408 -12 408 -12 352 -12 c 0,9,10
 257 -12 257 -12 187.5 21 c 128,-1,11
 118 54 118 54 80 120 c 128,-1,12
 42 186 42 186 42 284 c 256,13,14
 42 382 42 382 78.5 447.5 c 128,-1,15
 115 513 115 513 184 546 c 128,-1,16
 253 579 253 579 353 579 c 0,17,18
 408 579 408 579 450.5 573.5 c 128,-1,19
 493 568 493 568 522 561 c 128,-1,20
 551 554 551 554 565 548 c 1,21,-1
 565 343 l 1,22,-1
 425 343 l 1,23,-1
 425 519 l 1,24,25
 437 519 437 519 445.5 509 c 128,-1,26
 454 499 454 499 459 485.5 c 128,-1,27
 464 472 464 472 467 461 c 128,-1,28
 470 450 470 450 470 446 c 1,29,30
 450 456 450 456 423.5 462 c 128,-1,31
 397 468 397 468 360 468 c 0,32,33
 308 468 308 468 277 450.5 c 128,-1,34
 246 433 246 433 232.5 392.5 c 128,-1,35
 219 352 219 352 219 284 c 0,36,37
 219 231 219 231 227 195 c 128,-1,38
 235 159 235 159 253 138.5 c 128,-1,39
 271 118 271 118 300.5 109.5 c 128,-1,40
 330 101 330 101 372 101 c 0,0,1
EndSplineSet
EndChar

StartChar: d
Encoding: 100 100 75
Width: 734
GlyphClass: 2
Flags: W
AnchorPoint: "Anchor-2" 696 735 basechar 0
AnchorPoint: "Anchor-1" 343 0 basechar 0
LayerCount: 2
Fore
SplineSet
643 136 m 2,0,1
 643 120 643 120 657 114.5 c 128,-1,2
 671 109 671 109 697 103 c 2,3,-1
 706 101 l 1,4,-1
 706 0 l 1,5,-1
 508 0 l 1,6,-1
 481 130 l 1,7,-1
 471 116 l 1,8,-1
 471 642 l 2,9,10
 471 653 471 653 464.5 658.5 c 128,-1,11
 458 664 458 664 445 667.5 c 128,-1,12
 432 671 432 671 413 676 c 2,13,-1
 405 678 l 1,14,-1
 405 780 l 1,15,-1
 643 780 l 1,16,-1
 643 136 l 2,0,1
294 579 m 0,17,18
 346 579 346 579 386.5 557 c 128,-1,19
 427 535 427 535 457 494.5 c 128,-1,20
 487 454 487 454 508 398 c 1,21,-1
 505 369 l 1,22,23
 477 399 477 399 452.5 417.5 c 128,-1,24
 428 436 428 436 402.5 445 c 128,-1,25
 377 454 377 454 346 454 c 256,26,27
 315 454 315 454 291 445 c 128,-1,28
 267 436 267 436 251 415 c 128,-1,29
 235 394 235 394 227 360 c 128,-1,30
 219 326 219 326 219 278 c 0,31,32
 219 233 219 233 225 201.5 c 128,-1,33
 231 170 231 170 244 150.5 c 128,-1,34
 257 131 257 131 278 121.5 c 128,-1,35
 299 112 299 112 330 112 c 0,36,37
 364 112 364 112 392.5 121.5 c 128,-1,38
 421 131 421 131 448.5 153.5 c 128,-1,39
 476 176 476 176 507 216 c 1,40,-1
 508 173 l 1,41,42
 484 116 484 116 453 74.5 c 128,-1,43
 422 33 422 33 380.5 10.5 c 128,-1,44
 339 -12 339 -12 282 -12 c 0,45,46
 201 -12 201 -12 147.5 25 c 128,-1,47
 94 62 94 62 68 127.5 c 128,-1,48
 42 193 42 193 42 278 c 0,49,50
 42 364 42 364 71 432 c 128,-1,51
 100 500 100 500 156.5 539.5 c 128,-1,52
 213 579 213 579 294 579 c 0,17,18
EndSplineSet
EndChar

StartChar: e
Encoding: 101 101 76
Width: 646
GlyphClass: 2
Flags: W
AnchorPoint: "Anchor-2" 511 1 basechar 0
AnchorPoint: "Anchor-1" 354 0 basechar 0
AnchorPoint: "Anchor-0" 330 569 basechar 0
LayerCount: 2
Fore
SplineSet
207 280 m 0,0,1
 207 223 207 223 218 187 c 128,-1,2
 229 151 229 151 249.5 131.5 c 128,-1,3
 270 112 270 112 299 105 c 128,-1,4
 328 98 328 98 363 98 c 0,5,6
 403 98 403 98 430 104.5 c 128,-1,7
 457 111 457 111 478 126.5 c 128,-1,8
 499 142 499 142 518 168 c 1,9,-1
 602 112 l 1,10,11
 580 71 580 71 544.5 42.5 c 128,-1,12
 509 14 509 14 461.5 0 c 128,-1,13
 414 -14 414 -14 353 -14 c 0,14,15
 257 -14 257 -14 187 18 c 128,-1,16
 117 50 117 50 79.5 115 c 128,-1,17
 42 180 42 180 42 278 c 0,18,19
 42 370 42 370 77.5 437.5 c 128,-1,20
 113 505 113 505 179 542.5 c 128,-1,21
 245 580 245 580 335 580 c 0,22,23
 407 580 407 580 458 559 c 128,-1,24
 509 538 509 538 541 496.5 c 128,-1,25
 573 455 573 455 588.5 392 c 128,-1,26
 604 329 604 329 605 245 c 1,27,-1
 138 245 l 1,28,-1
 138 328 l 1,29,-1
 468 328 l 1,30,-1
 450 295 l 1,31,32
 448 353 448 353 441 390 c 128,-1,33
 434 427 434 427 421 448 c 128,-1,34
 408 469 408 469 387 477 c 128,-1,35
 366 485 366 485 337 485 c 0,36,37
 306 485 306 485 282 475.5 c 128,-1,38
 258 466 258 466 241.5 443 c 128,-1,39
 225 420 225 420 216 380 c 128,-1,40
 207 340 207 340 207 280 c 0,0,1
EndSplineSet
EndChar

StartChar: f
Encoding: 102 102 81
Width: 492
GlyphClass: 2
Flags: W
AnchorPoint: "Anchor-0" 289 755 basechar 0
LayerCount: 2
Fore
SplineSet
34 569 m 1,0,-1
 459 569 l 1,1,-1
 459 463 l 1,2,-1
 34 463 l 1,3,-1
 34 569 l 1,0,-1
515 775 m 1,4,-1
 515 665 l 1,5,6
 504 668 504 668 471.5 673 c 128,-1,7
 439 678 439 678 398 678 c 0,8,9
 364 678 364 678 342.5 670.5 c 128,-1,10
 321 663 321 663 311 644.5 c 128,-1,11
 301 626 301 626 301 595 c 2,12,-1
 301 101 l 2,13,14
 301 98 301 98 315.5 96 c 128,-1,15
 330 94 330 94 349.5 93.5 c 128,-1,16
 369 93 369 93 384 93 c 2,17,-1
 406 93 l 1,18,-1
 406 0 l 1,19,-1
 39 0 l 1,20,-1
 39 93 l 1,21,-1
 64 93 l 2,22,23
 96 93 96 93 113.5 108.5 c 128,-1,24
 131 124 131 124 131 165 c 2,25,-1
 131 609 l 2,26,27
 131 679 131 679 163.5 717.5 c 128,-1,28
 196 756 196 756 252.5 771.5 c 128,-1,29
 309 787 309 787 378 787 c 0,30,31
 428 787 428 787 466 782.5 c 128,-1,32
 504 778 504 778 515 775 c 1,4,-1
EndSplineSet
Substitution2: "'ss04' Style Set 4 lookup 64 subtable" f.alt
EndChar

StartChar: g
Encoding: 103 103 82
Width: 739
GlyphClass: 2
Flags: W
AnchorPoint: "Anchor-0" 353 569 basechar 0
LayerCount: 2
Fore
SplineSet
721 454 m 1,0,1
 679 460 679 460 648.5 463 c 128,-1,2
 618 466 618 466 593.5 467.5 c 128,-1,3
 569 469 569 469 541 469 c 1,4,-1
 519 478 l 1,5,6
 534 515 534 515 551 543 c 128,-1,7
 568 571 568 571 590.5 589 c 128,-1,8
 613 607 613 607 645 614 c 128,-1,9
 677 621 677 621 721 617 c 1,10,-1
 721 454 l 1,0,1
339 185 m 0,11,12
 261 185 261 185 203.5 208.5 c 128,-1,13
 146 232 146 232 115.5 276.5 c 128,-1,14
 85 321 85 321 85 381 c 256,15,16
 85 441 85 441 116 485.5 c 128,-1,17
 147 530 147 530 204.5 555 c 128,-1,18
 262 580 262 580 339 580 c 0,19,20
 418 580 418 580 476 555 c 128,-1,21
 534 530 534 530 565 485.5 c 128,-1,22
 596 441 596 441 596 381 c 256,23,24
 596 321 596 321 565 276.5 c 128,-1,25
 534 232 534 232 476 208.5 c 128,-1,26
 418 185 418 185 339 185 c 0,11,12
339 277 m 0,27,28
 376 277 376 277 397.5 288 c 128,-1,29
 419 299 419 299 428.5 322 c 128,-1,30
 438 345 438 345 438 379 c 0,31,32
 438 415 438 415 428.5 438.5 c 128,-1,33
 419 462 419 462 397.5 473.5 c 128,-1,34
 376 485 376 485 339 485 c 0,35,36
 304 485 304 485 283 473.5 c 128,-1,37
 262 462 262 462 252 438.5 c 128,-1,38
 242 415 242 415 242 379 c 0,39,40
 242 345 242 345 251.5 322 c 128,-1,41
 261 299 261 299 282.5 288 c 128,-1,42
 304 277 304 277 339 277 c 0,27,28
208 -254 m 2,43,44
 143 -254 143 -254 102 -243 c 128,-1,45
 61 -232 61 -232 41 -207.5 c 128,-1,46
 21 -183 21 -183 21 -146 c 0,47,48
 21 -111 21 -111 37.5 -87.5 c 128,-1,49
 54 -64 54 -64 90 -46 c 128,-1,50
 126 -28 126 -28 183 -12 c 1,51,-1
 228 -27 l 1,52,53
 205 -44 205 -44 193.5 -58 c 128,-1,54
 182 -72 182 -72 178 -87 c 128,-1,55
 174 -102 174 -102 174 -121 c 0,56,57
 174 -134 174 -134 179 -145 c 128,-1,58
 184 -156 184 -156 198 -163 c 128,-1,59
 212 -170 212 -170 238 -170 c 2,60,-1
 432 -170 l 2,61,62
 467 -170 467 -170 485.5 -162 c 128,-1,63
 504 -154 504 -154 510.5 -138 c 128,-1,64
 517 -122 517 -122 517 -98 c 0,65,66
 517 -77 517 -77 507 -62.5 c 128,-1,67
 497 -48 497 -48 475 -48 c 2,68,-1
 169 -48 l 1,69,-1
 189 -38 l 1,70,71
 147 -35 147 -35 117 -21 c 128,-1,72
 87 -7 87 -7 71 19 c 128,-1,73
 55 45 55 45 55 80 c 256,74,75
 55 115 55 115 74 143 c 128,-1,76
 93 171 93 171 127 193 c 128,-1,77
 161 215 161 215 205 232 c 1,78,-1
 264 219 l 1,79,80
 241 202 241 202 228 188.5 c 128,-1,81
 215 175 215 175 209.5 164 c 128,-1,82
 204 153 204 153 204 139 c 0,83,84
 204 117 204 117 216.5 109 c 128,-1,85
 229 101 229 101 259 101 c 2,86,-1
 509 101 l 2,87,88
 566 101 566 101 604.5 83.5 c 128,-1,89
 643 66 643 66 662.5 31 c 128,-1,90
 682 -4 682 -4 682 -56 c 0,91,92
 682 -123 682 -123 650 -167 c 128,-1,93
 618 -211 618 -211 561.5 -232.5 c 128,-1,94
 505 -254 505 -254 430 -254 c 2,95,-1
 208 -254 l 2,43,44
EndSplineSet
Substitution2: "'ss02' Style Set 2 lookup 62 subtable" g.alt
EndChar

StartChar: h
Encoding: 104 104 83
Width: 740
GlyphClass: 2
Flags: W
AnchorPoint: "Anchor-1" 377 0 basechar 0
AnchorPoint: "Anchor-0" 388 755 basechar 0
LayerCount: 2
Fore
SplineSet
277 780 m 1,0,-1
 277 101 l 2,1,2
 277 98 277 98 285 96 c 128,-1,3
 293 94 293 94 304.5 93.5 c 128,-1,4
 316 93 316 93 326 93 c 2,5,-1
 331 93 l 1,6,-1
 331 0 l 1,7,-1
 42 0 l 1,8,-1
 42 93 l 1,9,-1
 45 93 l 2,10,11
 65 93 65 93 78 99 c 128,-1,12
 91 105 91 105 98 120.5 c 128,-1,13
 105 136 105 136 105 163 c 2,14,-1
 105 642 l 2,15,16
 105 653 105 653 99 658.5 c 128,-1,17
 93 664 93 664 80.5 668 c 128,-1,18
 68 672 68 672 51 676 c 2,19,-1
 42 678 l 1,20,-1
 42 780 l 1,21,-1
 277 780 l 1,0,-1
711 0 m 1,22,-1
 422 0 l 1,23,-1
 422 93 l 1,24,-1
 427 93 l 2,25,26
 437 93 437 93 449 93.5 c 128,-1,27
 461 94 461 94 469 96.5 c 128,-1,28
 477 99 477 99 477 101 c 2,29,-1
 477 394 l 2,30,31
 477 411 477 411 471 424 c 128,-1,32
 465 437 465 437 451 444 c 128,-1,33
 437 451 437 451 414 451 c 0,34,35
 389 451 389 451 362.5 439.5 c 128,-1,36
 336 428 336 428 308 405.5 c 128,-1,37
 280 383 280 383 249 349 c 1,38,-1
 253 416 l 1,39,40
 279 464 279 464 316 501 c 128,-1,41
 353 538 353 538 398 559.5 c 128,-1,42
 443 581 443 581 493 581 c 0,43,44
 545 581 545 581 579.5 563 c 128,-1,45
 614 545 614 545 631 510.5 c 128,-1,46
 648 476 648 476 648 426 c 2,47,-1
 648 163 l 2,48,49
 648 136 648 136 654.5 120.5 c 128,-1,50
 661 105 661 105 674 99 c 128,-1,51
 687 93 687 93 707 93 c 2,52,-1
 711 93 l 1,53,-1
 711 0 l 1,22,-1
EndSplineSet
EndChar

StartChar: i
Encoding: 105 105 84
Width: 373
GlyphClass: 2
Flags: W
AnchorPoint: "Anchor-2" 252 -10 basechar 0
AnchorPoint: "Anchor-1" 195 -10 basechar 0
AnchorPoint: "Anchor-0" 198 569 basechar 0
LayerCount: 2
Fore
SplineSet
184 632 m 0,0,1
 133 632 133 632 105 655 c 128,-1,2
 77 678 77 678 77 726 c 0,3,4
 77 772 77 772 105 795.5 c 128,-1,5
 133 819 133 819 184 819 c 0,6,7
 234 819 234 819 262 795.5 c 128,-1,8
 290 772 290 772 290 726 c 0,9,10
 290 678 290 678 262 655 c 128,-1,11
 234 632 234 632 184 632 c 0,0,1
278 569 m 1,12,-1
 278 159 l 2,13,14
 278 120 278 120 293.5 106.5 c 128,-1,15
 309 93 309 93 339 93 c 2,16,-1
 342 93 l 1,17,-1
 342 0 l 1,18,-1
 42 0 l 1,19,-1
 42 93 l 1,20,-1
 46 93 l 2,21,22
 75 93 75 93 91 106.5 c 128,-1,23
 107 120 107 120 107 159 c 2,24,-1
 107 428 l 2,25,26
 107 444 107 444 93 449.5 c 128,-1,27
 79 455 79 455 51 461 c 2,28,-1
 42 463 l 1,29,-1
 42 569 l 1,30,-1
 278 569 l 1,12,-1
EndSplineSet
Substitution2: "Single Substitution lookup 1 subtable" idotaccent
EndChar

StartChar: icircumflex
Encoding: 238 238 87
Width: 373
GlyphClass: 1
Flags: W
LayerCount: 2
Fore
SplineSet
241 860 m 1,0,-1
 127 860 l 1,1,-1
 -8 677 l 1,2,-1
 -8 635 l 1,3,-1
 62 635 l 1,4,-1
 222 765 l 1,5,-1
 137 763 l 1,6,-1
 301 635 l 1,7,-1
 377 635 l 1,8,-1
 377 677 l 1,9,-1
 241 860 l 1,0,-1
278 569 m 1,10,-1
 278 159 l 2,11,12
 278 120 278 120 293.5 106.5 c 128,-1,13
 309 93 309 93 339 93 c 2,14,-1
 342 93 l 1,15,-1
 342 0 l 1,16,-1
 42 0 l 1,17,-1
 42 93 l 1,18,-1
 46 93 l 2,19,20
 75 93 75 93 91 106.5 c 128,-1,21
 107 120 107 120 107 159 c 2,22,-1
 107 428 l 2,23,24
 107 444 107 444 93 449.5 c 128,-1,25
 79 455 79 455 51 461 c 2,26,-1
 42 463 l 1,27,-1
 42 569 l 1,28,-1
 278 569 l 1,10,-1
EndSplineSet
EndChar

StartChar: idieresis
Encoding: 239 239 88
Width: 373
GlyphClass: 1
Flags: W
LayerCount: 2
Fore
SplineSet
55 634 m 256,0,1
 6 634 6 634 -22 656 c 128,-1,2
 -50 678 -50 678 -50 726 c 0,3,4
 -50 773 -50 773 -22.5 795.5 c 128,-1,5
 5 818 5 818 55 818 c 0,6,7
 104 818 104 818 131.5 795.5 c 128,-1,8
 159 773 159 773 159 726 c 256,9,10
 159 679 159 679 131.5 656.5 c 128,-1,11
 104 634 104 634 55 634 c 256,0,1
321 634 m 0,12,13
 273 634 273 634 245 656 c 128,-1,14
 217 678 217 678 217 726 c 0,15,16
 217 773 217 773 245 795.5 c 128,-1,17
 273 818 273 818 321 818 c 0,18,19
 370 818 370 818 398 795.5 c 128,-1,20
 426 773 426 773 426 726 c 256,21,22
 426 679 426 679 398 656.5 c 128,-1,23
 370 634 370 634 321 634 c 0,12,13
278 569 m 1,24,-1
 278 159 l 2,25,26
 278 120 278 120 293.5 106.5 c 128,-1,27
 309 93 309 93 339 93 c 2,28,-1
 342 93 l 1,29,-1
 342 0 l 1,30,-1
 42 0 l 1,31,-1
 42 93 l 1,32,-1
 46 93 l 2,33,34
 75 93 75 93 91 106.5 c 128,-1,35
 107 120 107 120 107 159 c 2,36,-1
 107 428 l 2,37,38
 107 444 107 444 93 449.5 c 128,-1,39
 79 455 79 455 51 461 c 2,40,-1
 42 463 l 1,41,-1
 42 569 l 1,42,-1
 278 569 l 1,24,-1
EndSplineSet
EndChar

StartChar: j
Encoding: 106 106 89
Width: 386
GlyphClass: 1
Flags: W
LayerCount: 2
Fore
SplineSet
118 -39 m 2,0,-1
 118 428 l 2,1,2
 118 438 118 438 110 444.5 c 128,-1,3
 102 451 102 451 88 455 c 128,-1,4
 74 459 74 459 56 461 c 2,5,-1
 43 463 l 1,6,-1
 43 569 l 1,7,-1
 289 569 l 1,8,-1
 289 -55 l 2,9,10
 289 -111 289 -111 272 -148.5 c 128,-1,11
 255 -186 255 -186 223 -208 c 128,-1,12
 191 -230 191 -230 147.5 -240 c 128,-1,13
 104 -250 104 -250 53 -250 c 0,14,15
 8 -250 8 -250 -23.5 -244.5 c 128,-1,16
 -55 -239 -55 -239 -66 -235 c 1,17,-1
 -66 -129 l 1,18,19
 -51 -133 -51 -133 -26 -137 c 128,-1,20
 -1 -141 -1 -141 27 -141 c 0,21,22
 54 -141 54 -141 74.5 -131.5 c 128,-1,23
 95 -122 95 -122 106.5 -99.5 c 128,-1,24
 118 -77 118 -77 118 -39 c 2,0,-1
191 632 m 0,25,26
 141 632 141 632 112.5 655 c 128,-1,27
 84 678 84 678 84 726 c 0,28,29
 84 772 84 772 112.5 795.5 c 128,-1,30
 141 819 141 819 191 819 c 0,31,32
 242 819 242 819 270 795.5 c 128,-1,33
 298 772 298 772 298 726 c 0,34,35
 298 678 298 678 270 655 c 128,-1,36
 242 632 242 632 191 632 c 0,25,26
EndSplineSet
EndChar

StartChar: k
Encoding: 107 107 90
Width: 747
GlyphClass: 2
Flags: W
AnchorPoint: "Anchor-1" 378 0 basechar 0
LayerCount: 2
Fore
SplineSet
727 0 m 1,0,-1
 421 0 l 1,1,-1
 421 93 l 1,2,-1
 428 93 l 2,3,4
 439 93 439 93 448.5 94.5 c 128,-1,5
 458 96 458 96 464.5 98 c 128,-1,6
 471 100 471 100 471 103 c 2,7,-1
 313 292 l 1,8,-1
 313 311 l 1,9,-1
 485 463 l 2,10,11
 485 467 485 467 476 469.5 c 128,-1,12
 467 472 467 472 452.5 474 c 128,-1,13
 438 476 438 476 422 476 c 2,14,-1
 411 476 l 1,15,-1
 411 569 l 1,16,-1
 700 569 l 1,17,-1
 700 476 l 1,18,-1
 686 476 l 2,19,20
 669 476 669 476 657 473.5 c 128,-1,21
 645 471 645 471 635 465.5 c 128,-1,22
 625 460 625 460 613 449 c 2,23,-1
 427 285 l 1,24,-1
 437 376 l 1,25,-1
 649 131 l 2,26,27
 663 115 663 115 673.5 106.5 c 128,-1,28
 684 98 684 98 694 95.5 c 128,-1,29
 704 93 704 93 716 93 c 2,30,-1
 727 93 l 1,31,-1
 727 0 l 1,0,-1
277 780 m 1,32,-1
 277 101 l 2,33,34
 277 98 277 98 284.5 96 c 128,-1,35
 292 94 292 94 303 93.5 c 128,-1,36
 314 93 314 93 323 93 c 2,37,-1
 329 93 l 1,38,-1
 329 0 l 1,39,-1
 42 0 l 1,40,-1
 42 93 l 1,41,-1
 45 93 l 2,42,43
 65 93 65 93 78 99 c 128,-1,44
 91 105 91 105 98 120.5 c 128,-1,45
 105 136 105 136 105 163 c 2,46,-1
 105 638 l 2,47,48
 105 648 105 648 99 654 c 128,-1,49
 93 660 93 660 80.5 664 c 128,-1,50
 68 668 68 668 51 671 c 2,51,-1
 42 673 l 1,52,-1
 42 780 l 1,53,-1
 277 780 l 1,32,-1
EndSplineSet
EndChar

StartChar: l
Encoding: 108 108 91
Width: 376
GlyphClass: 2
Flags: W
AnchorPoint: "Anchor-2" 328 735 basechar 0
AnchorPoint: "Anchor-1" 201 0 basechar 0
AnchorPoint: "Anchor-0" 197 746 basechar 0
LayerCount: 2
Fore
SplineSet
281 780 m 1,0,-1
 281 159 l 2,1,2
 281 120 281 120 297 106.5 c 128,-1,3
 313 93 313 93 342 93 c 2,4,-1
 346 93 l 1,5,-1
 346 0 l 1,6,-1
 46 0 l 1,7,-1
 46 93 l 1,8,-1
 49 93 l 2,9,10
 79 93 79 93 94.5 106.5 c 128,-1,11
 110 120 110 120 110 159 c 2,12,-1
 110 642 l 2,13,14
 110 653 110 653 104 658.5 c 128,-1,15
 98 664 98 664 85.5 668 c 128,-1,16
 73 672 73 672 54 676 c 2,17,-1
 46 678 l 1,18,-1
 46 780 l 1,19,-1
 281 780 l 1,0,-1
EndSplineSet
EndChar

StartChar: m
Encoding: 109 109 92
Width: 1083
GlyphClass: 2
Flags: W
AnchorPoint: "Anchor-1" 548 -10 basechar 0
LayerCount: 2
Fore
SplineSet
42 0 m 1,0,-1
 42 93 l 1,1,-1
 45 93 l 2,2,3
 76 93 76 93 92 107.5 c 128,-1,4
 108 122 108 122 108 163 c 2,5,-1
 108 428 l 2,6,7
 108 438 108 438 101.5 444 c 128,-1,8
 95 450 95 450 82.5 453.5 c 128,-1,9
 70 457 70 457 51 461 c 2,10,-1
 42 463 l 1,11,-1
 42 569 l 1,12,-1
 248 569 l 1,13,-1
 273 429 l 1,14,-1
 277 430 l 1,15,-1
 277 101 l 2,16,17
 277 98 277 98 285 96 c 128,-1,18
 293 94 293 94 305 93.5 c 128,-1,19
 317 93 317 93 326 93 c 2,20,-1
 331 93 l 1,21,-1
 331 0 l 1,22,-1
 42 0 l 1,0,-1
687 0 m 1,23,-1
 410 0 l 1,24,-1
 410 93 l 1,25,-1
 414 93 l 2,26,27
 425 93 425 93 436 93.5 c 128,-1,28
 447 94 447 94 455 96 c 128,-1,29
 463 98 463 98 463 101 c 2,30,-1
 463 394 l 2,31,32
 463 412 463 412 457.5 424.5 c 128,-1,33
 452 437 452 437 439.5 444 c 128,-1,34
 427 451 427 451 406 451 c 0,35,36
 382 451 382 451 357.5 439.5 c 128,-1,37
 333 428 333 428 306 406 c 128,-1,38
 279 384 279 384 248 352 c 1,39,-1
 253 422 l 1,40,41
 280 467 280 467 315.5 503 c 128,-1,42
 351 539 351 539 394 560 c 128,-1,43
 437 581 437 581 484 581 c 0,44,45
 535 581 535 581 568 563 c 128,-1,46
 601 545 601 545 617.5 510.5 c 128,-1,47
 634 476 634 476 634 426 c 2,48,-1
 634 101 l 2,49,50
 634 98 634 98 642.5 96 c 128,-1,51
 651 94 651 94 662.5 93.5 c 128,-1,52
 674 93 674 93 683 93 c 2,53,-1
 687 93 l 1,54,-1
 687 0 l 1,23,-1
1055 0 m 1,55,-1
 766 0 l 1,56,-1
 766 93 l 1,57,-1
 771 93 l 2,58,59
 781 93 781 93 792.5 93.5 c 128,-1,60
 804 94 804 94 812.5 96 c 128,-1,61
 821 98 821 98 821 101 c 2,62,-1
 821 394 l 2,63,64
 821 412 821 412 815.5 424.5 c 128,-1,65
 810 437 810 437 797.5 444 c 128,-1,66
 785 451 785 451 763 451 c 0,67,68
 739 451 739 451 714.5 439.5 c 128,-1,69
 690 428 690 428 663 406 c 128,-1,70
 636 384 636 384 605 352 c 1,71,-1
 609 422 l 1,72,73
 637 467 637 467 672.5 503 c 128,-1,74
 708 539 708 539 751 560 c 128,-1,75
 794 581 794 581 841 581 c 0,76,77
 892 581 892 581 925.5 563 c 128,-1,78
 959 545 959 545 975.5 510.5 c 128,-1,79
 992 476 992 476 992 426 c 2,80,-1
 992 163 l 2,81,82
 992 122 992 122 1007.5 107.5 c 128,-1,83
 1023 93 1023 93 1051 93 c 2,84,-1
 1055 93 l 1,85,-1
 1055 0 l 1,55,-1
EndSplineSet
EndChar

StartChar: n
Encoding: 110 110 93
Width: 740
GlyphClass: 2
Flags: W
AnchorPoint: "Anchor-1" 377 0 basechar 0
AnchorPoint: "Anchor-0" 367 569 basechar 0
LayerCount: 2
Fore
SplineSet
42 0 m 1,0,-1
 42 93 l 1,1,-1
 45 93 l 2,2,3
 66 93 66 93 79 99 c 128,-1,4
 92 105 92 105 98.5 120.5 c 128,-1,5
 105 136 105 136 105 163 c 2,6,-1
 105 428 l 2,7,8
 105 438 105 438 99 444 c 128,-1,9
 93 450 93 450 81 454 c 128,-1,10
 69 458 69 458 51 461 c 2,11,-1
 42 463 l 1,12,-1
 42 569 l 1,13,-1
 248 569 l 1,14,-1
 273 432 l 1,15,-1
 277 430 l 1,16,-1
 277 101 l 2,17,18
 277 98 277 98 285 96 c 128,-1,19
 293 94 293 94 304.5 93.5 c 128,-1,20
 316 93 316 93 326 93 c 2,21,-1
 331 93 l 1,22,-1
 331 0 l 1,23,-1
 42 0 l 1,0,-1
711 0 m 1,24,-1
 422 0 l 1,25,-1
 422 93 l 1,26,-1
 427 93 l 2,27,28
 437 93 437 93 449 93.5 c 128,-1,29
 461 94 461 94 469 96.5 c 128,-1,30
 477 99 477 99 477 101 c 2,31,-1
 477 394 l 2,32,33
 477 411 477 411 471 424 c 128,-1,34
 465 437 465 437 451 444 c 128,-1,35
 437 451 437 451 414 451 c 0,36,37
 389 451 389 451 362 439.5 c 128,-1,38
 335 428 335 428 307.5 405.5 c 128,-1,39
 280 383 280 383 249 349 c 1,40,-1
 253 416 l 1,41,42
 279 464 279 464 316 501 c 128,-1,43
 353 538 353 538 398 559.5 c 128,-1,44
 443 581 443 581 492 581 c 0,45,46
 544 581 544 581 579 563 c 128,-1,47
 614 545 614 545 631 510.5 c 128,-1,48
 648 476 648 476 648 426 c 2,49,-1
 648 163 l 2,50,51
 648 136 648 136 654.5 120.5 c 128,-1,52
 661 105 661 105 674 99 c 128,-1,53
 687 93 687 93 707 93 c 2,54,-1
 711 93 l 1,55,-1
 711 0 l 1,24,-1
EndSplineSet
EndChar

StartChar: o
Encoding: 111 111 95
Width: 692
GlyphClass: 2
Flags: W
AnchorPoint: "Anchor-2" 463 0 basechar 0
AnchorPoint: "Anchor-1" 346 0 basechar 0
AnchorPoint: "Anchor-0" 346 569 basechar 0
LayerCount: 2
Fore
SplineSet
650 283 m 0,0,1
 650 189 650 189 614.5 122.5 c 128,-1,2
 579 56 579 56 511 21 c 128,-1,3
 443 -14 443 -14 346 -14 c 0,4,5
 248 -14 248 -14 180.5 21 c 128,-1,6
 113 56 113 56 77.5 122.5 c 128,-1,7
 42 189 42 189 42 283 c 0,8,9
 42 353 42 353 62 408.5 c 128,-1,10
 82 464 82 464 120.5 502 c 128,-1,11
 159 540 159 540 215.5 560 c 128,-1,12
 272 580 272 580 346 580 c 0,13,14
 419 580 419 580 475.5 560 c 128,-1,15
 532 540 532 540 571 501.5 c 128,-1,16
 610 463 610 463 630 408 c 128,-1,17
 650 353 650 353 650 283 c 0,0,1
219 283 m 0,18,19
 219 215 219 215 230.5 174 c 128,-1,20
 242 133 242 133 269.5 115 c 128,-1,21
 297 97 297 97 346 97 c 256,22,23
 395 97 395 97 422.5 115 c 128,-1,24
 450 133 450 133 461.5 173.5 c 128,-1,25
 473 214 473 214 473 283 c 0,26,27
 473 349 473 349 461.5 390 c 128,-1,28
 450 431 450 431 422.5 450 c 128,-1,29
 395 469 395 469 346 469 c 0,30,31
 298 469 298 469 270 450 c 128,-1,32
 242 431 242 431 230.5 390 c 128,-1,33
 219 349 219 349 219 283 c 0,18,19
EndSplineSet
EndChar

StartChar: p
Encoding: 112 112 101
Width: 747
GlyphClass: 2
Flags: W
AnchorPoint: "Anchor-0" 340 508 basechar 0
LayerCount: 2
Fore
SplineSet
362 -223 m 1,0,-1
 44 -223 l 1,1,-1
 44 -130 l 1,2,-1
 47 -130 l 2,3,4
 66 -130 66 -130 79 -124 c 128,-1,5
 92 -118 92 -118 98.5 -102.5 c 128,-1,6
 105 -87 105 -87 105 -60 c 2,7,-1
 105 428 l 2,8,9
 105 438 105 438 99 444 c 128,-1,10
 93 450 93 450 81 454 c 128,-1,11
 69 458 69 458 51 461 c 2,12,-1
 42 463 l 1,13,-1
 42 569 l 1,14,-1
 246 569 l 1,15,-1
 273 420 l 1,16,-1
 277 421 l 1,17,-1
 277 -122 l 2,18,19
 277 -125 277 -125 287 -126.5 c 128,-1,20
 297 -128 297 -128 314 -129 c 128,-1,21
 331 -130 331 -130 349 -130 c 2,22,-1
 362 -130 l 1,23,-1
 362 -223 l 1,0,-1
453 -12 m 0,24,25
 401 -12 401 -12 360.5 10 c 128,-1,26
 320 32 320 32 290 72.5 c 128,-1,27
 260 113 260 113 239 168 c 1,28,-1
 242 202 l 1,29,30
 272 169 272 169 296.5 149.5 c 128,-1,31
 321 130 321 130 347 121 c 128,-1,32
 373 112 373 112 407 112 c 0,33,34
 438 112 438 112 461 122.5 c 128,-1,35
 484 133 484 133 499 155 c 128,-1,36
 514 177 514 177 521 210 c 128,-1,37
 528 243 528 243 528 289 c 0,38,39
 528 333 528 333 522.5 364 c 128,-1,40
 517 395 517 395 504 415 c 128,-1,41
 491 435 491 435 469.5 444.5 c 128,-1,42
 448 454 448 454 417 454 c 0,43,44
 383 454 383 454 356 445.5 c 128,-1,45
 329 437 329 437 301.5 413.5 c 128,-1,46
 274 390 274 390 240 346 c 1,47,-1
 239 393 l 1,48,49
 264 451 264 451 295.5 492.5 c 128,-1,50
 327 534 327 534 368.5 556.5 c 128,-1,51
 410 579 410 579 466 579 c 0,52,53
 546 579 546 579 599.5 542 c 128,-1,54
 653 505 653 505 679 440 c 128,-1,55
 705 375 705 375 705 289 c 0,56,57
 705 204 705 204 675.5 135.5 c 128,-1,58
 646 67 646 67 590.5 27.5 c 128,-1,59
 535 -12 535 -12 453 -12 c 0,24,25
EndSplineSet
EndChar

StartChar: q
Encoding: 113 113 102
Width: 728
GlyphClass: 1
Flags: W
LayerCount: 2
Fore
SplineSet
385 -223 m 1,0,-1
 385 -126 l 1,1,-1
 398 -126 l 2,2,3
 418 -126 418 -126 434.5 -125 c 128,-1,4
 451 -124 451 -124 461 -122 c 128,-1,5
 471 -120 471 -120 471 -117 c 2,6,-1
 471 437 l 1,7,-1
 470 440 l 1,8,-1
 532 575 l 1,9,-1
 643 575 l 1,10,-1
 643 -56 l 2,11,12
 643 -97 643 -97 658 -111.5 c 128,-1,13
 673 -126 673 -126 700 -126 c 2,14,-1
 704 -126 l 1,15,-1
 704 -223 l 1,16,-1
 385 -223 l 1,0,-1
294 579 m 0,17,18
 354 579 354 579 395.5 557 c 128,-1,19
 437 535 437 535 466 494.5 c 128,-1,20
 495 454 495 454 514 398 c 1,21,-1
 505 355 l 1,22,23
 475 391 475 391 450.5 412.5 c 128,-1,24
 426 434 426 434 400.5 444 c 128,-1,25
 375 454 375 454 341 454 c 0,26,27
 310 454 310 454 287 444 c 128,-1,28
 264 434 264 434 249 412 c 128,-1,29
 234 390 234 390 226.5 356.5 c 128,-1,30
 219 323 219 323 219 278 c 0,31,32
 219 234 219 234 224.5 203 c 128,-1,33
 230 172 230 172 243 152 c 128,-1,34
 256 132 256 132 277.5 122 c 128,-1,35
 299 112 299 112 330 112 c 0,36,37
 364 112 364 112 391 120.5 c 128,-1,38
 418 129 418 129 446 152 c 128,-1,39
 474 175 474 175 507 216 c 1,40,-1
 508 173 l 1,41,42
 484 116 484 116 453 74.5 c 128,-1,43
 422 33 422 33 380 10.5 c 128,-1,44
 338 -12 338 -12 282 -12 c 0,45,46
 201 -12 201 -12 147.5 25 c 128,-1,47
 94 62 94 62 68 127.5 c 128,-1,48
 42 193 42 193 42 278 c 0,49,50
 42 364 42 364 71 432 c 128,-1,51
 100 500 100 500 156.5 539.5 c 128,-1,52
 213 579 213 579 294 579 c 0,17,18
EndSplineSet
EndChar

StartChar: r
Encoding: 114 114 103
Width: 537
GlyphClass: 2
Flags: W
AnchorPoint: "Anchor-1" 221 0 basechar 0
AnchorPoint: "Anchor-0" 290 569 basechar 0
LayerCount: 2
Fore
SplineSet
497 574 m 1,0,-1
 497 394 l 1,1,2
 489 395 489 395 471.5 396 c 128,-1,3
 454 397 454 397 433 397.5 c 128,-1,4
 412 398 412 398 392 398 c 256,5,6
 372 398 372 398 354.5 396 c 128,-1,7
 337 394 337 394 321 392 c 128,-1,8
 305 390 305 390 290 386.5 c 128,-1,9
 275 383 275 383 259 379 c 1,10,-1
 253 400 l 1,11,12
 287 463 287 463 315 502.5 c 128,-1,13
 343 542 343 542 375.5 561.5 c 128,-1,14
 408 581 408 581 453 581 c 0,15,16
 469 581 469 581 481 578.5 c 128,-1,17
 493 576 493 576 497 574 c 1,0,-1
42 0 m 1,18,-1
 42 93 l 1,19,-1
 45 93 l 2,20,21
 74 93 74 93 89.5 107.5 c 128,-1,22
 105 122 105 122 105 163 c 2,23,-1
 105 428 l 2,24,25
 105 439 105 439 99 444.5 c 128,-1,26
 93 450 93 450 81 454 c 128,-1,27
 69 458 69 458 51 461 c 2,28,-1
 42 463 l 1,29,-1
 42 569 l 1,30,-1
 246 569 l 1,31,-1
 274 419 l 1,32,-1
 277 412 l 1,33,-1
 277 101 l 2,34,35
 277 98 277 98 287 96 c 128,-1,36
 297 94 297 94 313.5 93.5 c 128,-1,37
 330 93 330 93 348 93 c 2,38,-1
 362 93 l 1,39,-1
 362 0 l 1,40,-1
 42 0 l 1,18,-1
EndSplineSet
EndChar

StartChar: s
Encoding: 115 115 104
Width: 596
GlyphClass: 2
Flags: W
AnchorPoint: "Anchor-1" 303 0 basechar 0
AnchorPoint: "Anchor-0" 300 569 basechar 0
LayerCount: 2
Fore
SplineSet
389 147 m 0,0,1
 389 169 389 169 379 182.5 c 128,-1,2
 369 196 369 196 351 204.5 c 128,-1,3
 333 213 333 213 308.5 219 c 128,-1,4
 284 225 284 225 255 231 c 0,5,6
 219 238 219 238 183.5 248.5 c 128,-1,7
 148 259 148 259 120 277 c 128,-1,8
 92 295 92 295 75 325 c 128,-1,9
 58 355 58 355 58 402 c 0,10,11
 58 465 58 465 89 504 c 128,-1,12
 120 543 120 543 176 561.5 c 128,-1,13
 232 580 232 580 309 580 c 0,14,15
 370 580 370 580 414 574.5 c 128,-1,16
 458 569 458 569 486 562 c 128,-1,17
 514 555 514 555 525 551 c 1,18,-1
 525 411 l 1,19,-1
 398 411 l 1,20,-1
 398 519 l 1,21,22
 412 520 412 520 420 515 c 128,-1,23
 428 510 428 510 431.5 502 c 128,-1,24
 435 494 435 494 436 485.5 c 128,-1,25
 437 477 437 477 437 469 c 1,26,27
 424 475 424 475 406 478.5 c 128,-1,28
 388 482 388 482 366 484 c 128,-1,29
 344 486 344 486 315 486 c 0,30,31
 263 486 263 486 238 474 c 128,-1,32
 213 462 213 462 213 432 c 0,33,34
 213 413 213 413 222.5 401 c 128,-1,35
 232 389 232 389 249.5 382 c 128,-1,36
 267 375 267 375 292 369 c 128,-1,37
 317 363 317 363 347 357 c 0,38,39
 384 349 384 349 420.5 338 c 128,-1,40
 457 327 457 327 487 308 c 128,-1,41
 517 289 517 289 535 258.5 c 128,-1,42
 553 228 553 228 553 181 c 0,43,44
 553 115 553 115 524 72 c 128,-1,45
 495 29 495 29 435 7.5 c 128,-1,46
 375 -14 375 -14 281 -14 c 0,47,48
 224 -14 224 -14 177.5 -7 c 128,-1,49
 131 0 131 0 99.5 9.5 c 128,-1,50
 68 19 68 19 52 28 c 1,51,-1
 52 174 l 1,52,-1
 185 174 l 1,53,-1
 185 37 l 1,54,55
 166 42 166 42 155.5 50.5 c 128,-1,56
 145 59 145 59 141.5 68.5 c 128,-1,57
 138 78 138 78 139 86 c 128,-1,58
 140 94 140 94 144 98 c 1,59,60
 156 96 156 96 176 91.5 c 128,-1,61
 196 87 196 87 223 83.5 c 128,-1,62
 250 80 250 80 280 80 c 0,63,64
 322 80 322 80 345.5 86.5 c 128,-1,65
 369 93 369 93 379 108 c 128,-1,66
 389 123 389 123 389 147 c 0,0,1
EndSplineSet
EndChar

StartChar: scaron
Encoding: 154 353 105
Width: 596
GlyphClass: 1
Flags: W
LayerCount: 2
Fore
SplineSet
240 640 m 1,0,-1
 353 640 l 1,1,-1
 502 823 l 1,2,-1
 502 865 l 1,3,-1
 430 865 l 1,4,-1
 259 737 l 1,5,-1
 342 739 l 1,6,-1
 167 865 l 1,7,-1
 90 865 l 1,8,-1
 90 823 l 1,9,-1
 240 640 l 1,0,-1
389 147 m 0,10,11
 389 169 389 169 379 182.5 c 128,-1,12
 369 196 369 196 351 204.5 c 128,-1,13
 333 213 333 213 308.5 219 c 128,-1,14
 284 225 284 225 255 231 c 0,15,16
 219 238 219 238 183.5 248.5 c 128,-1,17
 148 259 148 259 120 277 c 128,-1,18
 92 295 92 295 75 325 c 128,-1,19
 58 355 58 355 58 402 c 0,20,21
 58 465 58 465 89 504 c 128,-1,22
 120 543 120 543 176 561.5 c 128,-1,23
 232 580 232 580 309 580 c 0,24,25
 370 580 370 580 414 574.5 c 128,-1,26
 458 569 458 569 486 562 c 128,-1,27
 514 555 514 555 525 551 c 1,28,-1
 525 411 l 1,29,-1
 398 411 l 1,30,-1
 398 519 l 1,31,32
 412 520 412 520 420 515 c 128,-1,33
 428 510 428 510 431.5 502 c 128,-1,34
 435 494 435 494 436 485.5 c 128,-1,35
 437 477 437 477 437 469 c 1,36,37
 424 475 424 475 406 478.5 c 128,-1,38
 388 482 388 482 366 484 c 128,-1,39
 344 486 344 486 315 486 c 0,40,41
 263 486 263 486 238 474 c 128,-1,42
 213 462 213 462 213 432 c 0,43,44
 213 413 213 413 222.5 401 c 128,-1,45
 232 389 232 389 249.5 382 c 128,-1,46
 267 375 267 375 292 369 c 128,-1,47
 317 363 317 363 347 357 c 0,48,49
 384 349 384 349 420.5 338 c 128,-1,50
 457 327 457 327 487 308 c 128,-1,51
 517 289 517 289 535 258.5 c 128,-1,52
 553 228 553 228 553 181 c 0,53,54
 553 115 553 115 524 72 c 128,-1,55
 495 29 495 29 435 7.5 c 128,-1,56
 375 -14 375 -14 281 -14 c 0,57,58
 224 -14 224 -14 177.5 -7 c 128,-1,59
 131 0 131 0 99.5 9.5 c 128,-1,60
 68 19 68 19 52 28 c 1,61,-1
 52 174 l 1,62,-1
 185 174 l 1,63,-1
 185 37 l 1,64,65
 166 42 166 42 155.5 50.5 c 128,-1,66
 145 59 145 59 141.5 68.5 c 128,-1,67
 138 78 138 78 139 86 c 128,-1,68
 140 94 140 94 144 98 c 1,69,70
 156 96 156 96 176 91.5 c 128,-1,71
 196 87 196 87 223 83.5 c 128,-1,72
 250 80 250 80 280 80 c 0,73,74
 322 80 322 80 345.5 86.5 c 128,-1,75
 369 93 369 93 379 108 c 128,-1,76
 389 123 389 123 389 147 c 0,10,11
EndSplineSet
EndChar

StartChar: t
Encoding: 116 116 106
Width: 505
GlyphClass: 2
Flags: W
AnchorPoint: "Anchor-2" 395 681 basechar 0
AnchorPoint: "Anchor-1" 330 0 basechar 0
AnchorPoint: "Anchor-0" 211 675 basechar 0
LayerCount: 2
Fore
SplineSet
20 458 m 1,0,-1
 20 564 l 1,1,-1
 33 564 l 2,2,3
 62 564 62 564 82.5 568 c 128,-1,4
 103 572 103 572 114 588 c 128,-1,5
 125 604 125 604 125 636 c 1,6,-1
 229 569 l 1,7,-1
 468 569 l 1,8,-1
 468 458 l 1,9,-1
 20 458 l 1,0,-1
290 187 m 2,10,11
 290 155 290 155 301 138.5 c 128,-1,12
 312 122 312 122 333 116.5 c 128,-1,13
 354 111 354 111 383 111 c 0,14,15
 411 111 411 111 434 113.5 c 128,-1,16
 457 116 457 116 462 117 c 1,17,-1
 462 2 l 1,18,19
 448 -1 448 -1 426.5 -4.5 c 128,-1,20
 405 -8 405 -8 380 -10 c 128,-1,21
 355 -12 355 -12 329 -12 c 0,22,23
 268 -12 268 -12 220.5 1 c 128,-1,24
 173 14 173 14 145.5 49.5 c 128,-1,25
 118 85 118 85 118 152 c 2,26,-1
 118 552 l 1,27,-1
 125 561 l 1,28,-1
 125 734 l 1,29,-1
 290 734 l 1,30,-1
 290 187 l 2,10,11
EndSplineSet
EndChar

StartChar: u
Encoding: 117 117 107
Width: 730
GlyphClass: 2
Flags: W
AnchorPoint: "Anchor-2" 533 0 basechar 0
AnchorPoint: "Anchor-1" 338 0 basechar 0
AnchorPoint: "Anchor-0" 342 569 basechar 0
LayerCount: 2
Fore
SplineSet
268 569 m 1,0,-1
 268 176 l 2,1,2
 268 158 268 158 274 145 c 128,-1,3
 280 132 280 132 293.5 125.5 c 128,-1,4
 307 119 307 119 329 119 c 0,5,6
 355 119 355 119 380 131.5 c 128,-1,7
 405 144 405 144 433 167 c 128,-1,8
 461 190 461 190 491 221 c 1,9,-1
 487 153 l 1,10,11
 461 106 461 106 424 69 c 128,-1,12
 387 32 387 32 343 10.5 c 128,-1,13
 299 -11 299 -11 251 -11 c 0,14,15
 200 -11 200 -11 166 7 c 128,-1,16
 132 25 132 25 114 60 c 128,-1,17
 96 95 96 95 96 144 c 2,18,-1
 96 428 l 2,19,20
 96 444 96 444 83 451 c 128,-1,21
 70 458 70 458 42 461 c 2,22,-1
 28 463 l 1,23,-1
 28 569 l 1,24,-1
 268 569 l 1,0,-1
635 569 m 1,25,-1
 635 136 l 2,26,27
 635 126 635 126 641.5 120 c 128,-1,28
 648 114 648 114 660 110.5 c 128,-1,29
 672 107 672 107 689 103 c 2,30,-1
 698 101 l 1,31,-1
 698 0 l 1,32,-1
 500 0 l 1,33,-1
 471 144 l 1,34,-1
 463 148 l 1,35,-1
 463 428 l 2,36,37
 463 444 463 444 446 451.5 c 128,-1,38
 429 459 429 459 401 462 c 2,39,-1
 380 464 l 1,40,-1
 380 569 l 1,41,-1
 635 569 l 1,25,-1
EndSplineSet
EndChar

StartChar: v
Encoding: 118 118 112
Width: 707
GlyphClass: 2
Flags: W
AnchorPoint: "Anchor-0" 308 508 basechar 0
LayerCount: 2
Fore
SplineSet
504 446 m 2,0,1
 504 451 504 451 497 456 c 128,-1,2
 490 461 490 461 478 464 c 128,-1,3
 466 467 466 467 451 467 c 2,4,-1
 446 467 l 1,5,-1
 446 569 l 1,6,-1
 682 569 l 1,7,-1
 682 462 l 1,8,-1
 673 462 l 2,9,10
 656 462 656 462 644.5 457.5 c 128,-1,11
 633 453 633 453 624.5 440.5 c 128,-1,12
 616 428 616 428 607 404 c 2,13,-1
 448 -5 l 1,14,-1
 261 -5 l 1,15,-1
 109 407 l 2,16,17
 101 430 101 430 90.5 441.5 c 128,-1,18
 80 453 80 453 66 457.5 c 128,-1,19
 52 462 52 462 33 462 c 2,20,-1
 25 462 l 1,21,-1
 25 569 l 1,22,-1
 331 569 l 1,23,-1
 331 467 l 1,24,-1
 323 467 l 2,25,26
 306 467 306 467 293 466 c 128,-1,27
 280 465 280 465 272.5 463.5 c 128,-1,28
 265 462 265 462 265 459 c 2,29,-1
 412 44 l 1,30,-1
 370 91 l 1,31,-1
 504 446 l 2,0,1
EndSplineSet
EndChar

StartChar: w
Encoding: 119 119 113
Width: 1038
GlyphClass: 2
Flags: W
AnchorPoint: "Anchor-0" 526 569 basechar 0
LayerCount: 2
Fore
SplineSet
551 481 m 1,0,-1
 499 476 l 1,1,-1
 633 -5 l 1,2,-1
 817 -5 l 1,3,-1
 934 403 l 2,4,5
 941 427 941 427 950.5 439.5 c 128,-1,6
 960 452 960 452 973.5 457 c 128,-1,7
 987 462 987 462 1004 462 c 2,8,-1
 1012 462 l 1,9,-1
 1012 569 l 1,10,-1
 776 569 l 1,11,-1
 776 467 l 1,12,-1
 787 467 l 2,13,14
 804 467 804 467 815 464 c 128,-1,15
 826 461 826 461 832 456 c 128,-1,16
 838 451 838 451 838 446 c 2,17,-1
 743 91 l 1,18,-1
 767 44 l 1,19,-1
 631 569 l 1,20,-1
 472 569 l 1,21,-1
 324 91 l 1,22,-1
 359 44 l 1,23,-1
 255 459 l 2,24,25
 255 462 255 462 263.5 463.5 c 128,-1,26
 272 465 272 465 286.5 466 c 128,-1,27
 301 467 301 467 316 467 c 2,28,-1
 326 467 l 1,29,-1
 326 569 l 1,30,-1
 25 569 l 1,31,-1
 25 462 l 1,32,-1
 33 462 l 2,33,34
 52 462 52 462 65.5 457.5 c 128,-1,35
 79 453 79 453 89 441 c 128,-1,36
 99 429 99 429 105 406 c 2,37,-1
 213 -5 l 1,38,-1
 402 -5 l 1,39,-1
 551 481 l 1,0,-1
EndSplineSet
EndChar

StartChar: x
Encoding: 120 120 114
Width: 726
GlyphClass: 2
Flags: W
AnchorPoint: "Anchor-1" 275 0 basechar 0
AnchorPoint: "Anchor-0" 299 508 basechar 0
LayerCount: 2
Fore
SplineSet
700 0 m 1,0,-1
 382 0 l 1,1,-1
 382 97 l 1,2,-1
 385 97 l 2,3,4
 397 97 397 97 408.5 97.5 c 128,-1,5
 420 98 420 98 427 99.5 c 128,-1,6
 434 101 434 101 434 104 c 2,7,-1
 297 263 l 1,8,-1
 277 266 l 1,9,-1
 121 435 l 2,10,11
 111 446 111 446 101.5 453 c 128,-1,12
 92 460 92 460 79 463.5 c 128,-1,13
 66 467 66 467 46 467 c 2,14,-1
 39 467 l 1,15,-1
 39 569 l 1,16,-1
 357 569 l 1,17,-1
 357 472 l 1,18,-1
 357 472 l 1,19,20
 350 472 350 472 337.5 471.5 c 128,-1,21
 325 471 325 471 315.5 469.5 c 128,-1,22
 306 468 306 468 306 465 c 2,23,-1
 431 322 l 1,24,-1
 450 319 l 1,25,-1
 618 132 l 2,26,27
 629 121 629 121 638.5 113.5 c 128,-1,28
 648 106 648 106 661 102.5 c 128,-1,29
 674 99 674 99 695 99 c 2,30,-1
 700 99 l 1,31,-1
 700 0 l 1,0,-1
26 0 m 1,32,-1
 26 99 l 1,33,-1
 30 99 l 2,34,35
 55 99 55 99 70 106 c 128,-1,36
 85 113 85 113 102 136 c 2,37,-1
 252 321 l 1,38,-1
 343 275 l 1,39,-1
 216 114 l 2,40,41
 216 109 216 109 224.5 105 c 128,-1,42
 233 101 233 101 246 99 c 128,-1,43
 259 97 259 97 273 97 c 2,44,-1
 276 97 l 1,45,-1
 276 0 l 1,46,-1
 26 0 l 1,32,-1
468 262 m 1,47,-1
 381 314 l 1,48,-1
 503 458 l 2,49,50
 503 463 503 463 495.5 466 c 128,-1,51
 488 469 488 469 477 470.5 c 128,-1,52
 466 472 466 472 452 472 c 2,53,-1
 447 472 l 1,54,-1
 447 569 l 1,55,-1
 687 569 l 1,56,-1
 687 467 l 1,57,-1
 680 467 l 2,58,59
 669 467 669 467 658 465.5 c 128,-1,60
 647 464 647 464 637.5 459 c 128,-1,61
 628 454 628 454 618 442 c 2,62,-1
 468 262 l 1,47,-1
EndSplineSet
EndChar

StartChar: y
Encoding: 121 121 115
Width: 717
GlyphClass: 2
Flags: W
AnchorPoint: "Anchor-1" 374 -211 basechar 0
AnchorPoint: "Anchor-0" 363 569 basechar 0
LayerCount: 2
Fore
SplineSet
426 94 m 1,0,-1
 387 31 l 1,1,-1
 319 -54 l 1,2,-1
 111 417 l 2,3,4
 103 435 103 435 93 445 c 128,-1,5
 83 455 83 455 69.5 458.5 c 128,-1,6
 56 462 56 462 36 462 c 2,7,-1
 25 462 l 1,8,-1
 25 569 l 1,9,-1
 342 569 l 1,10,-1
 342 467 l 1,11,-1
 325 467 l 2,12,13
 309 467 309 467 296 466 c 128,-1,14
 283 465 283 465 276 463.5 c 128,-1,15
 269 462 269 462 269 459 c 2,16,-1
 426 94 l 1,0,-1
446 15 m 2,17,18
 414 -57 414 -57 385 -106.5 c 128,-1,19
 356 -156 356 -156 324 -186 c 128,-1,20
 292 -216 292 -216 252.5 -230 c 128,-1,21
 213 -244 213 -244 159 -244 c 0,22,23
 115 -244 115 -244 81.5 -237.5 c 128,-1,24
 48 -231 48 -231 35 -224 c 1,25,-1
 35 -111 l 1,26,27
 42 -114 42 -114 60 -118.5 c 128,-1,28
 78 -123 78 -123 103 -127 c 128,-1,29
 128 -131 128 -131 156 -131 c 0,30,31
 186 -131 186 -131 210.5 -122 c 128,-1,32
 235 -113 235 -113 256 -92 c 128,-1,33
 277 -71 277 -71 295 -35 c 128,-1,34
 313 1 313 1 330 54 c 1,35,-1
 362 89 l 1,36,-1
 514 450 l 2,37,38
 514 455 514 455 507 458.5 c 128,-1,39
 500 462 500 462 487.5 464.5 c 128,-1,40
 475 467 475 467 458 467 c 2,41,-1
 450 467 l 1,42,-1
 450 569 l 1,43,-1
 692 569 l 1,44,-1
 692 462 l 1,45,-1
 682 462 l 2,46,47
 668 462 668 462 657 457.5 c 128,-1,48
 646 453 646 453 636.5 441 c 128,-1,49
 627 429 627 429 618 408 c 2,50,-1
 446 15 l 2,17,18
EndSplineSet
EndChar

StartChar: z
Encoding: 122 122 118
Width: 599
GlyphClass: 2
Flags: W
AnchorPoint: "Anchor-1" 330 0 basechar 0
AnchorPoint: "Anchor-0" 306 569 basechar 0
LayerCount: 2
Fore
SplineSet
201 76 m 1,0,-1
 194 107 l 1,1,-1
 392 107 l 2,2,3
 411 107 411 107 422 109 c 128,-1,4
 433 111 433 111 440.5 115.5 c 128,-1,5
 448 120 448 120 451.5 129.5 c 128,-1,6
 455 139 455 139 457 153 c 2,7,-1
 468 213 l 1,8,-1
 562 213 l 1,9,-1
 562 0 l 1,10,-1
 49 0 l 1,11,-1
 49 130 l 1,12,-1
 397 492 l 1,13,-1
 436 462 l 1,14,-1
 218 462 l 2,15,16
 200 462 200 462 188.5 460.5 c 128,-1,17
 177 459 177 459 170 454 c 128,-1,18
 163 449 163 449 159.5 440.5 c 128,-1,19
 156 432 156 432 153 416 c 2,20,-1
 144 367 l 1,21,-1
 52 367 l 1,22,-1
 52 569 l 1,23,-1
 543 569 l 1,24,-1
 543 442 l 1,25,-1
 201 76 l 1,0,-1
EndSplineSet
EndChar

StartChar: zcaron
Encoding: 158 382 119
Width: 599
GlyphClass: 1
Flags: W
LayerCount: 2
Fore
SplineSet
251 640 m 1,0,-1
 365 640 l 1,1,-1
 514 823 l 1,2,-1
 514 865 l 1,3,-1
 441 865 l 1,4,-1
 270 737 l 1,5,-1
 354 739 l 1,6,-1
 179 865 l 1,7,-1
 102 865 l 1,8,-1
 102 823 l 1,9,-1
 251 640 l 1,0,-1
201 76 m 1,10,-1
 194 107 l 1,11,-1
 392 107 l 2,12,13
 411 107 411 107 422 109 c 128,-1,14
 433 111 433 111 440 116 c 128,-1,15
 447 121 447 121 451 130 c 128,-1,16
 455 139 455 139 457 153 c 2,17,-1
 468 213 l 1,18,-1
 562 213 l 1,19,-1
 562 0 l 1,20,-1
 49 0 l 1,21,-1
 49 130 l 1,22,-1
 397 492 l 1,23,-1
 436 462 l 1,24,-1
 218 462 l 2,25,26
 200 462 200 462 188.5 460.5 c 128,-1,27
 177 459 177 459 170 454 c 128,-1,28
 163 449 163 449 159.5 440 c 128,-1,29
 156 431 156 431 153 416 c 2,30,-1
 144 367 l 1,31,-1
 52 367 l 1,32,-1
 52 569 l 1,33,-1
 543 569 l 1,34,-1
 543 442 l 1,35,-1
 201 76 l 1,10,-1
EndSplineSet
EndChar

StartChar: germandbls
Encoding: 223 223 120
Width: 752
GlyphClass: 1
Flags: W
LayerCount: 2
Fore
SplineSet
34 569 m 1,0,-1
 188 569 l 1,1,-1
 188 463 l 1,2,-1
 34 463 l 1,3,-1
 34 569 l 1,0,-1
440 440 m 1,4,-1
 440 442 l 1,5,-1
 446 436 l 1,6,-1
 458 438 l 1,7,8
 510 433 510 433 555.5 417.5 c 128,-1,9
 601 402 601 402 636 374.5 c 128,-1,10
 671 347 671 347 690.5 307 c 128,-1,11
 710 267 710 267 710 212 c 0,12,13
 710 152 710 152 695 110 c 128,-1,14
 680 68 680 68 651.5 41.5 c 128,-1,15
 623 15 623 15 583.5 2.5 c 128,-1,16
 544 -10 544 -10 495 -10 c 0,17,18
 456 -10 456 -10 429.5 -5.5 c 128,-1,19
 403 -1 403 -1 391 4 c 1,20,-1
 391 118 l 1,21,22
 394 118 394 118 402.5 114.5 c 128,-1,23
 411 111 411 111 424 108.5 c 128,-1,24
 437 106 437 106 452 106 c 0,25,26
 477 106 477 106 494.5 114.5 c 128,-1,27
 512 123 512 123 522 149.5 c 128,-1,28
 532 176 532 176 532 228 c 0,29,30
 532 266 532 266 522.5 294 c 128,-1,31
 513 322 513 322 495 340 c 128,-1,32
 477 358 477 358 451.5 366.5 c 128,-1,33
 426 375 426 375 393 375 c 2,34,-1
 391 375 l 1,35,-1
 391 492 l 1,36,37
 412 494 412 494 430.5 498.5 c 128,-1,38
 449 503 449 503 463 513.5 c 128,-1,39
 477 524 477 524 484.5 544 c 128,-1,40
 492 564 492 564 492 597 c 0,41,42
 492 640 492 640 472 659.5 c 128,-1,43
 452 679 452 679 400 679 c 0,44,45
 366 679 366 679 344.5 670 c 128,-1,46
 323 661 323 661 314 640.5 c 128,-1,47
 305 620 305 620 305 586 c 2,48,-1
 305 0 l 1,49,-1
 39 0 l 1,50,-1
 39 97 l 1,51,-1
 64 97 l 2,52,53
 97 97 97 97 115 113 c 128,-1,54
 133 129 133 129 133 169 c 2,55,-1
 133 588 l 2,56,57
 133 661 133 661 166.5 704.5 c 128,-1,58
 200 748 200 748 261 767.5 c 128,-1,59
 322 787 322 787 401 787 c 0,60,61
 494 787 494 787 551.5 766.5 c 128,-1,62
 609 746 609 746 636.5 708.5 c 128,-1,63
 664 671 664 671 664 617 c 0,64,65
 664 567 664 567 643.5 533.5 c 128,-1,66
 623 500 623 500 589.5 479.5 c 128,-1,67
 556 459 556 459 517 450 c 128,-1,68
 478 441 478 441 440 440 c 1,4,-1
EndSplineSet
EndChar

StartChar: ae
Encoding: 230 230 121
Width: 1001
GlyphClass: 2
Flags: W
AnchorPoint: "Anchor-0" 507 569 basechar 0
LayerCount: 2
Fore
SplineSet
412 359 m 1,0,-1
 413 277 l 1,1,2
 355 266 355 266 317.5 255 c 128,-1,3
 280 244 280 244 258.5 233.5 c 128,-1,4
 237 223 237 223 227 211 c 128,-1,5
 217 199 217 199 214 186 c 128,-1,6
 211 173 211 173 211 157 c 0,7,8
 211 131 211 131 220 116 c 128,-1,9
 229 101 229 101 246 95.5 c 128,-1,10
 263 90 263 90 286 90 c 0,11,12
 311 90 311 90 334.5 96.5 c 128,-1,13
 358 103 358 103 383 124.5 c 128,-1,14
 408 146 408 146 435 191 c 1,15,-1
 478 147 l 1,16,17
 455 102 455 102 430.5 71.5 c 128,-1,18
 406 41 406 41 378 22 c 128,-1,19
 350 3 350 3 316.5 -5 c 128,-1,20
 283 -13 283 -13 241 -13 c 0,21,22
 178 -13 178 -13 135.5 3 c 128,-1,23
 93 19 93 19 72.5 52 c 128,-1,24
 52 85 52 85 52 137 c 0,25,26
 52 185 52 185 69 219 c 128,-1,27
 86 253 86 253 126 277.5 c 128,-1,28
 166 302 166 302 236.5 321.5 c 128,-1,29
 307 341 307 341 412 359 c 1,0,-1
329 581 m 0,30,31
 379 581 379 581 415 574 c 128,-1,32
 451 567 451 567 474.5 549.5 c 128,-1,33
 498 532 498 532 509.5 503 c 128,-1,34
 521 474 521 474 521 429 c 1,35,-1
 406 319 l 1,36,-1
 406 418 l 2,37,38
 406 435 406 435 401 447.5 c 128,-1,39
 396 460 396 460 377 467.5 c 128,-1,40
 358 475 358 475 317 475 c 0,41,42
 260 475 260 475 221 469 c 128,-1,43
 182 463 182 463 170 459 c 0,44,45
 165 459 165 459 166 467 c 128,-1,46
 167 475 167 475 174 485.5 c 128,-1,47
 181 496 181 496 194 503 c 128,-1,48
 207 510 207 510 225 508 c 1,49,-1
 225 378 l 1,50,-1
 81 378 l 1,51,-1
 81 525 l 1,52,53
 98 534 98 534 131.5 547 c 128,-1,54
 165 560 165 560 214.5 570.5 c 128,-1,55
 264 581 264 581 329 581 c 0,30,31
720 99 m 0,56,57
 760 99 760 99 787 105.5 c 128,-1,58
 814 112 814 112 834.5 127.5 c 128,-1,59
 855 143 855 143 874 170 c 1,60,-1
 958 112 l 1,61,62
 934 71 934 71 900 43 c 128,-1,63
 866 15 866 15 819 1 c 128,-1,64
 772 -13 772 -13 709 -13 c 0,65,66
 613 -13 613 -13 545.5 19 c 128,-1,67
 478 51 478 51 442 116.5 c 128,-1,68
 406 182 406 182 406 280 c 0,69,70
 406 321 406 321 410.5 345 c 128,-1,71
 415 369 415 369 423.5 381.5 c 128,-1,72
 432 394 432 394 446 401 c 128,-1,73
 460 408 460 408 480 416 c 1,74,75
 486 449 486 449 502.5 478.5 c 128,-1,76
 519 508 519 508 546 531.5 c 128,-1,77
 573 555 573 555 610.5 568 c 128,-1,78
 648 581 648 581 696 581 c 0,79,80
 766 581 766 581 815 560.5 c 128,-1,81
 864 540 864 540 895.5 498.5 c 128,-1,82
 927 457 927 457 943 394 c 128,-1,83
 959 331 959 331 960 247 c 1,84,-1
 507 247 l 1,85,-1
 507 328 l 1,86,-1
 823 328 l 1,87,-1
 804 297 l 1,88,89
 802 354 802 354 795.5 391 c 128,-1,90
 789 428 789 428 775.5 449 c 128,-1,91
 762 470 762 470 741.5 478 c 128,-1,92
 721 486 721 486 692 486 c 256,93,94
 663 486 663 486 640.5 477.5 c 128,-1,95
 618 469 618 469 601.5 446.5 c 128,-1,96
 585 424 585 424 577 383.5 c 128,-1,97
 569 343 569 343 569 281 c 0,98,99
 569 222 569 222 580 186 c 128,-1,100
 591 150 591 150 610.5 131 c 128,-1,101
 630 112 630 112 658 105.5 c 128,-1,102
 686 99 686 99 720 99 c 0,56,57
EndSplineSet
EndChar

StartChar: eth
Encoding: 240 240 122
Width: 690
GlyphClass: 1
Flags: W
LayerCount: 2
Fore
SplineSet
491 433 m 1,0,-1
 489 331 l 1,1,2
 478 362 478 362 460.5 386.5 c 128,-1,3
 443 411 443 411 416.5 425.5 c 128,-1,4
 390 440 390 440 350 440 c 0,5,6
 314 440 314 440 288.5 430.5 c 128,-1,7
 263 421 263 421 248 400.5 c 128,-1,8
 233 380 233 380 226 348 c 128,-1,9
 219 316 219 316 219 270 c 0,10,11
 219 206 219 206 231 168 c 128,-1,12
 243 130 243 130 271 113.5 c 128,-1,13
 299 97 299 97 345 97 c 0,14,15
 381 97 381 97 405.5 106 c 128,-1,16
 430 115 430 115 444.5 140.5 c 128,-1,17
 459 166 459 166 465.5 211.5 c 128,-1,18
 472 257 472 257 472 329 c 0,19,20
 472 429 472 429 462 494 c 128,-1,21
 452 559 452 559 429 599 c 128,-1,22
 406 639 406 639 368.5 663.5 c 128,-1,23
 331 688 331 688 276 705.5 c 128,-1,24
 221 723 221 723 146 744 c 1,25,-1
 178 835 l 1,26,27
 297 811 297 811 385.5 773 c 128,-1,28
 474 735 474 735 532.5 676.5 c 128,-1,29
 591 618 591 618 620 535.5 c 128,-1,30
 649 453 649 453 649 341 c 0,31,32
 649 217 649 217 613.5 138.5 c 128,-1,33
 578 60 578 60 510 23 c 128,-1,34
 442 -14 442 -14 345 -14 c 0,35,36
 246 -14 246 -14 178.5 21.5 c 128,-1,37
 111 57 111 57 76.5 122 c 128,-1,38
 42 187 42 187 42 274 c 0,39,40
 42 364 42 364 72.5 425.5 c 128,-1,41
 103 487 103 487 162 519.5 c 128,-1,42
 221 552 221 552 309 552 c 0,43,44
 355 552 355 552 389 536 c 128,-1,45
 423 520 423 520 448.5 493.5 c 128,-1,46
 474 467 474 467 491 433 c 1,0,-1
117 649 m 1,47,-1
 607 824 l 1,48,-1
 633 740 l 1,49,-1
 143 565 l 1,50,-1
 117 649 l 1,47,-1
EndSplineSet
EndChar

StartChar: oslash
Encoding: 248 248 123
Width: 692
GlyphClass: 2
Flags: W
AnchorPoint: "Anchor-0" 346 569 basechar 0
LayerCount: 2
Fore
SplineSet
-27 -14 m 1,0,-1
 595 580 l 1,1,-1
 719 580 l 1,2,-1
 97 -14 l 1,3,-1
 -27 -14 l 1,0,-1
212 283 m 0,4,5
 212 211 212 211 221.5 170 c 128,-1,6
 231 129 231 129 259.5 112 c 128,-1,7
 288 95 288 95 346 95 c 0,8,9
 398 95 398 95 427.5 113.5 c 128,-1,10
 457 132 457 132 468.5 173 c 128,-1,11
 480 214 480 214 480 283 c 0,12,13
 480 354 480 354 470.5 394.5 c 128,-1,14
 461 435 461 435 432.5 452 c 128,-1,15
 404 469 404 469 346 469 c 0,16,17
 294 469 294 469 264.5 450 c 128,-1,18
 235 431 235 431 223.5 390 c 128,-1,19
 212 349 212 349 212 283 c 0,4,5
42 283 m 0,20,21
 42 353 42 353 62 408 c 128,-1,22
 82 463 82 463 120.5 501.5 c 128,-1,23
 159 540 159 540 216 560 c 128,-1,24
 273 580 273 580 346 580 c 0,25,26
 415 580 415 580 470.5 557.5 c 128,-1,27
 526 535 526 535 566.5 494.5 c 128,-1,28
 607 454 607 454 628.5 399.5 c 128,-1,29
 650 345 650 345 650 283 c 0,30,31
 650 189 650 189 614.5 122.5 c 128,-1,32
 579 56 579 56 511 21 c 128,-1,33
 443 -14 443 -14 346 -14 c 0,34,35
 255 -14 255 -14 186.5 25 c 128,-1,36
 118 64 118 64 80 131.5 c 128,-1,37
 42 199 42 199 42 283 c 0,20,21
EndSplineSet
EndChar

StartChar: thorn
Encoding: 254 254 124
Width: 747
GlyphClass: 1
Flags: W
LayerCount: 2
Fore
SplineSet
362 -223 m 1,0,-1
 44 -223 l 1,1,-1
 44 -130 l 1,2,-1
 47 -130 l 2,3,4
 67 -130 67 -130 79.5 -124 c 128,-1,5
 92 -118 92 -118 98.5 -102.5 c 128,-1,6
 105 -87 105 -87 105 -60 c 2,7,-1
 105 642 l 2,8,9
 105 653 105 653 99.5 658.5 c 128,-1,10
 94 664 94 664 82 668 c 128,-1,11
 70 672 70 672 51 676 c 2,12,-1
 42 678 l 1,13,-1
 42 780 l 1,14,-1
 277 780 l 1,15,-1
 277 -122 l 2,16,17
 277 -125 277 -125 287 -126.5 c 128,-1,18
 297 -128 297 -128 314 -129 c 128,-1,19
 331 -130 331 -130 349 -130 c 2,20,-1
 362 -130 l 1,21,-1
 362 -223 l 1,0,-1
453 -12 m 0,22,23
 414 -12 414 -12 381.5 0.5 c 128,-1,24
 349 13 349 13 322.5 36.5 c 128,-1,25
 296 60 296 60 275.5 93.5 c 128,-1,26
 255 127 255 127 239 168 c 1,27,-1
 242 200 l 1,28,29
 273 168 273 168 297.5 148.5 c 128,-1,30
 322 129 322 129 347.5 120.5 c 128,-1,31
 373 112 373 112 406 112 c 0,32,33
 437 112 437 112 460.5 122.5 c 128,-1,34
 484 133 484 133 499 155 c 128,-1,35
 514 177 514 177 521 210 c 128,-1,36
 528 243 528 243 528 289 c 0,37,38
 528 333 528 333 522.5 364 c 128,-1,39
 517 395 517 395 504 415 c 128,-1,40
 491 435 491 435 469.5 444.5 c 128,-1,41
 448 454 448 454 417 454 c 0,42,43
 383 454 383 454 356 445.5 c 128,-1,44
 329 437 329 437 301.5 414 c 128,-1,45
 274 391 274 391 240 346 c 1,46,-1
 239 394 l 1,47,48
 264 451 264 451 295 492.5 c 128,-1,49
 326 534 326 534 368 556.5 c 128,-1,50
 410 579 410 579 465 579 c 0,51,52
 546 579 546 579 599.5 542 c 128,-1,53
 653 505 653 505 679 440 c 128,-1,54
 705 375 705 375 705 289 c 0,55,56
 705 204 705 204 676 135.5 c 128,-1,57
 647 67 647 67 591 27.5 c 128,-1,58
 535 -12 535 -12 453 -12 c 0,22,23
EndSplineSet
EndChar

StartChar: dotlessi
Encoding: 679 305 125
Width: 352
GlyphClass: 2
Flags: W
AnchorPoint: "Anchor-0" 188 540 basechar 0
LayerCount: 2
Fore
SplineSet
269 540 m 1,0,-1
 269 114 l 2,1,2
 269 86 269 86 284.5 76 c 128,-1,3
 300 66 300 66 327 66 c 2,4,-1
 329 66 l 1,5,-1
 329 0 l 1,6,-1
 34 0 l 1,7,-1
 34 66 l 1,8,-1
 36 66 l 2,9,10
 63 66 63 66 78.5 76 c 128,-1,11
 94 86 94 86 94 114 c 2,12,-1
 94 431 l 2,13,14
 94 447 94 447 81.5 453 c 128,-1,15
 69 459 69 459 42 464 c 2,16,-1
 33 466 l 1,17,-1
 33 540 l 1,18,-1
 269 540 l 1,0,-1
EndSplineSet
EndChar

StartChar: oe
Encoding: 156 339 126
Width: 1082
GlyphClass: 1
Flags: W
LayerCount: 2
Fore
SplineSet
642 280 m 0,0,1
 642 222 642 222 654 185.5 c 128,-1,2
 666 149 666 149 687.5 130 c 128,-1,3
 709 111 709 111 737.5 104.5 c 128,-1,4
 766 98 766 98 800 98 c 0,5,6
 839 98 839 98 866 104 c 128,-1,7
 893 110 893 110 914 125.5 c 128,-1,8
 935 141 935 141 955 168 c 1,9,-1
 1038 112 l 1,10,11
 1015 71 1015 71 980 42.5 c 128,-1,12
 945 14 945 14 897 0 c 128,-1,13
 849 -14 849 -14 787 -14 c 0,14,15
 712 -14 712 -14 659.5 8.5 c 128,-1,16
 607 31 607 31 574.5 70.5 c 128,-1,17
 542 110 542 110 526.5 163.5 c 128,-1,18
 511 217 511 217 511 278 c 0,19,20
 511 336 511 336 526.5 390 c 128,-1,21
 542 444 542 444 574 486.5 c 128,-1,22
 606 529 606 529 655.5 554.5 c 128,-1,23
 705 580 705 580 773 580 c 0,24,25
 843 580 843 580 893 559 c 128,-1,26
 943 538 943 538 975 496.5 c 128,-1,27
 1007 455 1007 455 1023.5 392.5 c 128,-1,28
 1040 330 1040 330 1041 245 c 1,29,-1
 577 245 l 1,30,-1
 577 328 l 1,31,-1
 903 328 l 1,32,-1
 886 295 l 1,33,34
 883 372 883 372 871 413 c 128,-1,35
 859 454 859 454 835.5 469.5 c 128,-1,36
 812 485 812 485 772 485 c 0,37,38
 740 485 740 485 716 475 c 128,-1,39
 692 465 692 465 675.5 442 c 128,-1,40
 659 419 659 419 650.5 379 c 128,-1,41
 642 339 642 339 642 280 c 0,0,1
611 283 m 256,42,43
 611 224 611 224 597 171 c 128,-1,44
 583 118 583 118 552 76 c 128,-1,45
 521 34 521 34 469.5 10 c 128,-1,46
 418 -14 418 -14 343 -14 c 0,47,48
 247 -14 247 -14 180 21 c 128,-1,49
 113 56 113 56 77.5 122.5 c 128,-1,50
 42 189 42 189 42 283 c 0,51,52
 42 353 42 353 62 408.5 c 128,-1,53
 82 464 82 464 120.5 502 c 128,-1,54
 159 540 159 540 215 560 c 128,-1,55
 271 580 271 580 343 580 c 0,56,57
 424 580 424 580 476 556 c 128,-1,58
 528 532 528 532 557.5 490.5 c 128,-1,59
 587 449 587 449 599 395.5 c 128,-1,60
 611 342 611 342 611 283 c 256,42,43
219 283 m 0,61,62
 219 213 219 213 231 172 c 128,-1,63
 243 131 243 131 271 113 c 128,-1,64
 299 95 299 95 347 95 c 0,65,66
 396 95 396 95 424 113 c 128,-1,67
 452 131 452 131 463.5 172 c 128,-1,68
 475 213 475 213 475 283 c 0,69,70
 475 350 475 350 463.5 391 c 128,-1,71
 452 432 452 432 424 450.5 c 128,-1,72
 396 469 396 469 346 469 c 0,73,74
 299 469 299 469 271 450.5 c 128,-1,75
 243 432 243 432 231 391 c 128,-1,76
 219 350 219 350 219 283 c 0,61,62
EndSplineSet
EndChar

StartChar: dotlessj
Encoding: 689 567 127
Width: 350
GlyphClass: 2
Flags: W
AnchorPoint: "Anchor-0" 176 540 basechar 0
LayerCount: 2
Fore
SplineSet
98 -47 m 2,0,-1
 98 431 l 2,1,2
 98 441 98 441 90.5 447.5 c 128,-1,3
 83 454 83 454 69.5 458 c 128,-1,4
 56 462 56 462 38 464 c 2,5,-1
 26 466 l 1,6,-1
 26 540 l 1,7,-1
 273 540 l 1,8,-1
 273 -34 l 2,9,10
 273 -93 273 -93 256.5 -133 c 128,-1,11
 240 -173 240 -173 209.5 -197 c 128,-1,12
 179 -221 179 -221 135.5 -232 c 128,-1,13
 92 -243 92 -243 39 -243 c 0,14,15
 -1 -243 -1 -243 -31 -238 c 128,-1,16
 -61 -233 -61 -233 -73 -229 c 1,17,-1
 -73 -144 l 1,18,19
 -58 -148 -58 -148 -36 -153.5 c 128,-1,20
 -14 -159 -14 -159 11 -159 c 0,21,22
 38 -159 38 -159 57.5 -148.5 c 128,-1,23
 77 -138 77 -138 87.5 -113.5 c 128,-1,24
 98 -89 98 -89 98 -47 c 2,0,-1
EndSplineSet
EndChar

StartChar: mu
Encoding: 693 956 128
Width: 754
GlyphClass: 1
Flags: W
LayerCount: 2
Fore
SplineSet
578 -10 m 0,0,1
 528 -10 528 -10 494.5 6.5 c 128,-1,2
 461 23 461 23 444 54 c 128,-1,3
 427 85 427 85 424 130 c 1,4,-1
 417 133 l 1,5,-1
 417 540 l 1,6,-1
 593 540 l 1,7,-1
 593 128 l 2,8,9
 593 105 593 105 600.5 95.5 c 128,-1,10
 608 86 608 86 627 86 c 0,11,12
 641 86 641 86 650 93 c 128,-1,13
 659 100 659 100 666.5 113 c 128,-1,14
 674 126 674 126 681 144 c 1,15,-1
 742 109 l 1,16,17
 730 77 730 77 709 50 c 128,-1,18
 688 23 688 23 656 6.5 c 128,-1,19
 624 -10 624 -10 578 -10 c 0,0,1
243 540 m 1,20,-1
 243 172 l 2,21,22
 243 144 243 144 249 126.5 c 128,-1,23
 255 109 255 109 268 100.5 c 128,-1,24
 281 92 281 92 302 92 c 0,25,26
 326 92 326 92 348.5 104.5 c 128,-1,27
 371 117 371 117 393.5 141.5 c 128,-1,28
 416 166 416 166 438 201 c 1,29,-1
 451 149 l 1,30,31
 426 99 426 99 397.5 63 c 128,-1,32
 369 27 369 27 337 8 c 128,-1,33
 305 -11 305 -11 268 -11 c 0,34,35
 237 -11 237 -11 212 -1 c 128,-1,36
 187 9 187 9 168 29.5 c 128,-1,37
 149 50 149 50 135 82 c 128,-1,38
 121 114 121 114 113 159 c 1,39,-1
 123 182 l 1,40,41
 127 130 127 130 136.5 87 c 128,-1,42
 146 44 146 44 159.5 8.5 c 128,-1,43
 173 -27 173 -27 188 -59 c 128,-1,44
 203 -91 203 -91 215.5 -121 c 128,-1,45
 228 -151 228 -151 235.5 -182.5 c 128,-1,46
 243 -214 243 -214 243 -250 c 1,47,-1
 68 -250 l 1,48,-1
 68 540 l 1,49,-1
 243 540 l 1,20,-1
EndSplineSet
EndChar

StartChar: ereversedcyr
Encoding: 740 1101 129
Width: 606
GlyphClass: 2
Flags: W
AnchorPoint: "Anchor-1" 267 0 basechar 0
AnchorPoint: "Anchor-0" 279 540 basechar 0
LayerCount: 2
Fore
SplineSet
418 237 m 1,0,-1
 207 237 l 1,1,-1
 207 315 l 1,2,-1
 418 315 l 1,3,-1
 418 237 l 1,0,-1
264 -12 m 0,4,5
 207 -12 207 -12 163 -3.5 c 128,-1,6
 119 5 119 5 91 16.5 c 128,-1,7
 63 28 63 28 49 37 c 1,8,-1
 49 176 l 1,9,-1
 179 176 l 1,10,-1
 179 55 l 1,11,12
 166 58 166 58 158.5 64.5 c 128,-1,13
 151 71 151 71 148 79.5 c 128,-1,14
 145 88 145 88 145 96 c 128,-1,15
 145 104 145 104 148 108 c 1,16,17
 160 96 160 96 175.5 87 c 128,-1,18
 191 78 191 78 211.5 73 c 128,-1,19
 232 68 232 68 256 68 c 0,20,21
 291 68 291 68 316.5 81 c 128,-1,22
 342 94 342 94 358.5 119 c 128,-1,23
 375 144 375 144 383 181.5 c 128,-1,24
 391 219 391 219 391 270 c 0,25,26
 391 320 391 320 383 357.5 c 128,-1,27
 375 395 375 395 358.5 420 c 128,-1,28
 342 445 342 445 317 457.5 c 128,-1,29
 292 470 292 470 258 470 c 0,30,31
 233 470 233 470 213 465.5 c 128,-1,32
 193 461 193 461 177.5 452.5 c 128,-1,33
 162 444 162 444 150 432 c 1,34,35
 147 436 147 436 147 444 c 128,-1,36
 147 452 147 452 150 460 c 128,-1,37
 153 468 153 468 160.5 475 c 128,-1,38
 168 482 168 482 181 484 c 1,39,-1
 181 363 l 1,40,-1
 51 363 l 1,41,-1
 51 502 l 1,42,43
 65 511 65 511 93.5 522.5 c 128,-1,44
 122 534 122 534 165.5 542.5 c 128,-1,45
 209 551 209 551 266 551 c 0,46,47
 361 551 361 551 428.5 518.5 c 128,-1,48
 496 486 496 486 532 423.5 c 128,-1,49
 568 361 568 361 568 270 c 0,50,51
 568 182 568 182 531 119 c 128,-1,52
 494 56 494 56 426 22 c 128,-1,53
 358 -12 358 -12 264 -12 c 0,4,5
EndSplineSet
EndChar

StartChar: ordfeminine
Encoding: 170 170 130
Width: 579
GlyphClass: 1
Flags: W
LayerCount: 2
Fore
SplineSet
333 570 m 1,0,-1
 334 499 l 1,1,2
 288 490 288 490 261 482 c 128,-1,3
 234 474 234 474 221.5 465.5 c 128,-1,4
 209 457 209 457 205 445.5 c 128,-1,5
 201 434 201 434 201 416 c 256,6,7
 201 398 201 398 205.5 389 c 128,-1,8
 210 380 210 380 220 376.5 c 128,-1,9
 230 373 230 373 245 373 c 0,10,11
 270 373 270 373 289 383 c 128,-1,12
 308 393 308 393 336 426 c 1,13,-1
 342 396 l 1,14,15
 324 356 324 356 302 333 c 128,-1,16
 280 310 280 310 253.5 300 c 128,-1,17
 227 290 227 290 193 290 c 0,18,19
 151 290 151 290 122 301 c 128,-1,20
 93 312 93 312 79 337 c 128,-1,21
 65 362 65 362 65 402 c 0,22,23
 65 438 65 438 77.5 464.5 c 128,-1,24
 90 491 90 491 120 509.5 c 128,-1,25
 150 528 150 528 202 542.5 c 128,-1,26
 254 557 254 557 333 570 c 1,0,-1
350 299 m 1,27,-1
 332 391 l 1,28,-1
 327 390 l 1,29,-1
 327 606 l 2,30,31
 327 620 327 620 323 629.5 c 128,-1,32
 319 639 319 639 304 644 c 128,-1,33
 289 649 289 649 259 649 c 0,34,35
 235 649 235 649 216.5 648 c 128,-1,36
 198 647 198 647 185 646 c 128,-1,37
 172 645 172 645 166 644 c 0,38,39
 166 643 166 643 168 650 c 128,-1,40
 170 657 170 657 179 665 c 128,-1,41
 188 673 188 673 206 673 c 1,42,-1
 206 584 l 1,43,-1
 87 584 l 1,44,-1
 87 695 l 1,45,46
 99 699 99 699 124 707.5 c 128,-1,47
 149 716 149 716 187.5 723 c 128,-1,48
 226 730 226 730 279 730 c 0,49,50
 341 730 341 730 383.5 717.5 c 128,-1,51
 426 705 426 705 448 678.5 c 128,-1,52
 470 652 470 652 470 611 c 2,53,-1
 470 409 l 2,54,55
 470 396 470 396 480 391.5 c 128,-1,56
 490 387 490 387 511 383 c 2,57,-1
 517 382 l 1,58,-1
 517 299 l 1,59,-1
 350 299 l 1,27,-1
EndSplineSet
EndChar

StartChar: ordmasculine
Encoding: 186 186 131
Width: 586
GlyphClass: 1
Flags: W
LayerCount: 2
Fore
SplineSet
528 510 m 0,0,1
 528 441 528 441 500.5 392 c 128,-1,2
 473 343 473 343 420.5 317 c 128,-1,3
 368 291 368 291 293 291 c 0,4,5
 217 291 217 291 165 317 c 128,-1,6
 113 343 113 343 85.5 392 c 128,-1,7
 58 441 58 441 58 510 c 0,8,9
 58 580 58 580 85.5 629.5 c 128,-1,10
 113 679 113 679 165 704.5 c 128,-1,11
 217 730 217 730 293 730 c 0,12,13
 368 730 368 730 420.5 704.5 c 128,-1,14
 473 679 473 679 500.5 629.5 c 128,-1,15
 528 580 528 580 528 510 c 0,0,1
202 510 m 256,16,17
 202 457 202 457 210.5 428 c 128,-1,18
 219 399 219 399 239 388 c 128,-1,19
 259 377 259 377 293 377 c 0,20,21
 326 377 326 377 346 388 c 128,-1,22
 366 399 366 399 375 428 c 128,-1,23
 384 457 384 457 384 510 c 256,24,25
 384 563 384 563 375 592 c 128,-1,26
 366 621 366 621 346 632.5 c 128,-1,27
 326 644 326 644 293 644 c 0,28,29
 259 644 259 644 239.5 633 c 128,-1,30
 220 622 220 622 211 592.5 c 128,-1,31
 202 563 202 563 202 510 c 256,16,17
EndSplineSet
EndChar

StartChar: arrowright
Encoding: 785 34196 132
Width: 790
GlyphClass: 1
Flags: W
LayerCount: 2
Fore
SplineSet
341 587 m 1,0,-1
 730 367 l 1,1,-1
 730 340 l 1,2,-1
 341 119 l 1,3,-1
 322 145 l 1,4,-1
 489 317 l 1,5,-1
 60 317 l 1,6,-1
 60 389 l 1,7,-1
 489 389 l 1,8,-1
 322 561 l 1,9,-1
 341 587 l 1,0,-1
EndSplineSet
EndChar

StartChar: zero
Encoding: 48 48 133
Width: 560
GlyphClass: 1
Flags: W
LayerCount: 2
Fore
SplineSet
280 -11 m 0,0,1
 205 -11 205 -11 148 29 c 128,-1,2
 91 69 91 69 59.5 151.5 c 128,-1,3
 28 234 28 234 28 362 c 0,4,5
 28 491 28 491 59.5 573 c 128,-1,6
 91 655 91 655 148 695 c 128,-1,7
 205 735 205 735 280 735 c 0,8,9
 356 735 356 735 412.5 695 c 128,-1,10
 469 655 469 655 500.5 573 c 128,-1,11
 532 491 532 491 532 362 c 0,12,13
 532 234 532 234 500.5 151.5 c 128,-1,14
 469 69 469 69 412.5 29 c 128,-1,15
 356 -11 356 -11 280 -11 c 0,0,1
280 93 m 256,16,17
 300 93 300 93 315.5 100.5 c 128,-1,18
 331 108 331 108 341 126 c 128,-1,19
 351 144 351 144 358 174.5 c 128,-1,20
 365 205 365 205 367.5 251.5 c 128,-1,21
 370 298 370 298 370 362 c 256,22,23
 370 426 370 426 367.5 472.5 c 128,-1,24
 365 519 365 519 358 549.5 c 128,-1,25
 351 580 351 580 341 598 c 128,-1,26
 331 616 331 616 315.5 623.5 c 128,-1,27
 300 631 300 631 280 631 c 256,28,29
 260 631 260 631 244.5 623.5 c 128,-1,30
 229 616 229 616 219 598 c 128,-1,31
 209 580 209 580 202 549.5 c 128,-1,32
 195 519 195 519 192.5 472.5 c 128,-1,33
 190 426 190 426 190 362 c 256,34,35
 190 298 190 298 192.5 251.5 c 128,-1,36
 195 205 195 205 202 174.5 c 128,-1,37
 209 144 209 144 219 126 c 128,-1,38
 229 108 229 108 244.5 100.5 c 128,-1,39
 260 93 260 93 280 93 c 256,16,17
EndSplineSet
Substitution2: "'zero' Slashed Zero lookup 68 subtable" zero.slash
Substitution2: "'pnum' Proportional Numbers lookup 57 subtable" zero.midprop
Substitution2: "'lnum' Lining Figures lookup 56 subtable" zero.lintab
Substitution2: "'onum' Oldstyle Figures lookup 55 subtable" zero.oldtab
Substitution2: "'sinf' Scientific Inferiors lookup 54 subtable" zero.sub
Substitution2: "'subs' Subscript lookup 53 subtable" zero.sub
Substitution2: "'sups' Superscript lookup 52 subtable" zero.sup
Substitution2: "'numr' Numerators lookup 51 subtable" zero.num
Substitution2: "'dnom' Denominators lookup 50 subtable" zero.den
Substitution2: "Single Substitution lookup 37 subtable" zero.den
Substitution2: "Single Substitution lookup 35 subtable" zero.num
Substitution2: "Single Substitution lookup 33 subtable" zero.num
Substitution2: "Single Substitution lookup 31 subtable" zero.num
Substitution2: "Single Substitution lookup 29 subtable" zero.num
Substitution2: "Single Substitution lookup 27 subtable" zero.num
Substitution2: "Single Substitution lookup 25 subtable" zero.num
Substitution2: "Single Substitution lookup 23 subtable" zero.num
Substitution2: "Single Substitution lookup 21 subtable" zero.num
Substitution2: "Single Substitution lookup 19 subtable" zero.num
Substitution2: "Single Substitution lookup 17 subtable" zero.num
EndChar

StartChar: one
Encoding: 49 49 134
Width: 560
GlyphClass: 1
Flags: W
LayerCount: 2
Fore
SplineSet
396 137 m 2,0,1
 396 120 396 120 408.5 111 c 128,-1,2
 421 102 421 102 444 98.5 c 128,-1,3
 467 95 467 95 499 95 c 2,4,-1
 530 95 l 1,5,-1
 530 0 l 1,6,-1
 77 0 l 1,7,-1
 77 95 l 1,8,-1
 121 95 l 2,9,10
 152 95 152 95 175 98.5 c 128,-1,11
 198 102 198 102 210.5 111 c 128,-1,12
 223 120 223 120 223 137 c 2,13,-1
 223 634 l 1,14,-1
 243 628 l 1,15,16
 234 592 234 592 217.5 567 c 128,-1,17
 201 542 201 542 177 527.5 c 128,-1,18
 153 513 153 513 123 507 c 128,-1,19
 93 501 93 501 56 501 c 1,20,-1
 56 631 l 1,21,22
 99 631 99 631 130.5 636 c 128,-1,23
 162 641 162 641 186 651 c 128,-1,24
 210 661 210 661 227 675.5 c 128,-1,25
 244 690 244 690 256 710 c 1,26,-1
 396 710 l 1,27,-1
 396 137 l 2,0,1
EndSplineSet
Substitution2: "'pnum' Proportional Numbers lookup 57 subtable" one.midprop
Substitution2: "'lnum' Lining Figures lookup 56 subtable" one.lintab
Substitution2: "'onum' Oldstyle Figures lookup 55 subtable" one.oldtab
Substitution2: "'sinf' Scientific Inferiors lookup 54 subtable" one.sub
Substitution2: "'subs' Subscript lookup 53 subtable" one.sub
Substitution2: "'sups' Superscript lookup 52 subtable" one.sup
Substitution2: "'numr' Numerators lookup 51 subtable" one.num
Substitution2: "'dnom' Denominators lookup 50 subtable" one.den
Substitution2: "Single Substitution lookup 37 subtable" one.den
Substitution2: "Single Substitution lookup 35 subtable" one.num
Substitution2: "Single Substitution lookup 33 subtable" one.num
Substitution2: "Single Substitution lookup 31 subtable" one.num
Substitution2: "Single Substitution lookup 29 subtable" one.num
Substitution2: "Single Substitution lookup 27 subtable" one.num
Substitution2: "Single Substitution lookup 25 subtable" one.num
Substitution2: "Single Substitution lookup 23 subtable" one.num
Substitution2: "Single Substitution lookup 21 subtable" one.num
Substitution2: "Single Substitution lookup 19 subtable" one.num
Substitution2: "Single Substitution lookup 17 subtable" one.num
EndChar

StartChar: two
Encoding: 50 50 135
Width: 560
GlyphClass: 1
Flags: W
LayerCount: 2
Fore
SplineSet
302 121 m 2,0,-1
 72 121 l 1,1,2
 66 117 66 117 65 112.5 c 128,-1,3
 64 108 64 108 67 105 c 128,-1,4
 70 102 70 102 75 99.5 c 128,-1,5
 80 97 80 97 86 97 c 0,6,7
 151 138 151 138 213 175.5 c 128,-1,8
 275 213 275 213 328.5 251 c 128,-1,9
 382 289 382 289 423 331.5 c 128,-1,10
 464 374 464 374 486.5 424 c 128,-1,11
 509 474 509 474 509 536 c 0,12,13
 509 601 509 601 484.5 645 c 128,-1,14
 460 689 460 689 407.5 712 c 128,-1,15
 355 735 355 735 273 735 c 0,16,17
 219 735 219 735 174.5 724 c 128,-1,18
 130 713 130 713 97.5 697 c 128,-1,19
 65 681 65 681 46 665 c 1,20,-1
 46 502 l 1,21,-1
 181 502 l 1,22,-1
 181 654 l 1,23,24
 172 657 172 657 161 650 c 128,-1,25
 150 643 150 643 140.5 631 c 128,-1,26
 131 619 131 619 126 607.5 c 128,-1,27
 121 596 121 596 124 589 c 1,28,29
 134 599 134 599 152.5 608.5 c 128,-1,30
 171 618 171 618 196 624 c 128,-1,31
 221 630 221 630 250 630 c 0,32,33
 283 630 283 630 303.5 621.5 c 128,-1,34
 324 613 324 613 334 591 c 128,-1,35
 344 569 344 569 344 528 c 0,36,37
 344 479 344 479 331 441.5 c 128,-1,38
 318 404 318 404 293 372.5 c 128,-1,39
 268 341 268 341 231 311 c 128,-1,40
 194 281 194 281 145 247 c 128,-1,41
 96 213 96 213 36 169 c 1,42,-1
 36 0 l 1,43,-1
 521 0 l 1,44,-1
 521 234 l 1,45,-1
 425 234 l 1,46,-1
 416 158 l 2,47,48
 413 140 413 140 401.5 132.5 c 128,-1,49
 390 125 390 125 366 123 c 128,-1,50
 342 121 342 121 302 121 c 2,0,-1
EndSplineSet
Substitution2: "'pnum' Proportional Numbers lookup 57 subtable" two.midprop
Substitution2: "'lnum' Lining Figures lookup 56 subtable" two.lintab
Substitution2: "'onum' Oldstyle Figures lookup 55 subtable" two.oldtab
Substitution2: "'sinf' Scientific Inferiors lookup 54 subtable" two.sub
Substitution2: "'subs' Subscript lookup 53 subtable" two.sub
Substitution2: "'sups' Superscript lookup 52 subtable" two.sup
Substitution2: "'numr' Numerators lookup 51 subtable" two.num
Substitution2: "'dnom' Denominators lookup 50 subtable" two.den
Substitution2: "Single Substitution lookup 37 subtable" two.den
Substitution2: "Single Substitution lookup 35 subtable" two.num
Substitution2: "Single Substitution lookup 33 subtable" two.num
Substitution2: "Single Substitution lookup 31 subtable" two.num
Substitution2: "Single Substitution lookup 29 subtable" two.num
Substitution2: "Single Substitution lookup 27 subtable" two.num
Substitution2: "Single Substitution lookup 25 subtable" two.num
Substitution2: "Single Substitution lookup 23 subtable" two.num
Substitution2: "Single Substitution lookup 21 subtable" two.num
Substitution2: "Single Substitution lookup 19 subtable" two.num
Substitution2: "Single Substitution lookup 17 subtable" two.num
EndChar

StartChar: three
Encoding: 51 51 136
Width: 560
GlyphClass: 1
Flags: W
LayerCount: 2
Fore
SplineSet
290 381 m 1,0,-1
 341 363 l 1,1,-1
 341 398 l 1,2,-1
 283 379 l 1,3,4
 328 382 328 382 368 394 c 128,-1,5
 408 406 408 406 439 427.5 c 128,-1,6
 470 449 470 449 487.5 482.5 c 128,-1,7
 505 516 505 516 505 562 c 0,8,9
 505 622 505 622 479 660 c 128,-1,10
 453 698 453 698 403 716.5 c 128,-1,11
 353 735 353 735 279 735 c 0,12,13
 226 735 226 735 183.5 725.5 c 128,-1,14
 141 716 141 716 109 702.5 c 128,-1,15
 77 689 77 689 56 674 c 1,16,-1
 56 530 l 1,17,-1
 181 530 l 1,18,-1
 181 659 l 1,19,20
 170 658 170 658 161.5 651 c 128,-1,21
 153 644 153 644 147.5 634.5 c 128,-1,22
 142 625 142 625 140.5 616 c 128,-1,23
 139 607 139 607 142 602 c 1,24,25
 150 608 150 608 165 615 c 128,-1,26
 180 622 180 622 202.5 627.5 c 128,-1,27
 225 633 225 633 256 633 c 0,28,29
 291 633 291 633 311.5 624.5 c 128,-1,30
 332 616 332 616 341 596.5 c 128,-1,31
 350 577 350 577 350 545 c 0,32,33
 350 507 350 507 337 481.5 c 128,-1,34
 324 456 324 456 297 443 c 128,-1,35
 270 430 270 430 227 430 c 2,36,-1
 141 430 l 1,37,-1
 141 321 l 1,38,-1
 239 321 l 2,39,40
 290 321 290 321 316.5 307.5 c 128,-1,41
 343 294 343 294 352.5 269 c 128,-1,42
 362 244 362 244 362 208 c 0,43,44
 362 164 362 164 349.5 139 c 128,-1,45
 337 114 337 114 311 104.5 c 128,-1,46
 285 95 285 95 245 95 c 256,47,48
 205 95 205 95 177.5 109 c 128,-1,49
 150 123 150 123 132.5 146 c 128,-1,50
 115 169 115 169 103 197 c 1,51,-1
 12 144 l 1,52,53
 32 99 32 99 59 64 c 128,-1,54
 86 29 86 29 133 9.5 c 128,-1,55
 180 -10 180 -10 257 -10 c 0,56,57
 316 -10 316 -10 364.5 2 c 128,-1,58
 413 14 413 14 448 40 c 128,-1,59
 483 66 483 66 502.5 106 c 128,-1,60
 522 146 522 146 522 202 c 0,61,62
 522 259 522 259 498.5 298 c 128,-1,63
 475 337 475 337 424.5 357.5 c 128,-1,64
 374 378 374 378 290 381 c 1,0,-1
EndSplineSet
Substitution2: "'pnum' Proportional Numbers lookup 57 subtable" three.midprop
Substitution2: "'lnum' Lining Figures lookup 56 subtable" three.lintab
Substitution2: "'onum' Oldstyle Figures lookup 55 subtable" three.oldtab
Substitution2: "'sinf' Scientific Inferiors lookup 54 subtable" three.sub
Substitution2: "'subs' Subscript lookup 53 subtable" three.sub
Substitution2: "'sups' Superscript lookup 52 subtable" three.sup
Substitution2: "'numr' Numerators lookup 51 subtable" three.num
Substitution2: "'dnom' Denominators lookup 50 subtable" three.den
Substitution2: "Single Substitution lookup 37 subtable" three.den
Substitution2: "Single Substitution lookup 35 subtable" three.num
Substitution2: "Single Substitution lookup 33 subtable" three.num
Substitution2: "Single Substitution lookup 31 subtable" three.num
Substitution2: "Single Substitution lookup 29 subtable" three.num
Substitution2: "Single Substitution lookup 27 subtable" three.num
Substitution2: "Single Substitution lookup 25 subtable" three.num
Substitution2: "Single Substitution lookup 23 subtable" three.num
Substitution2: "Single Substitution lookup 21 subtable" three.num
Substitution2: "Single Substitution lookup 19 subtable" three.num
Substitution2: "Single Substitution lookup 17 subtable" three.num
EndChar

StartChar: four
Encoding: 52 52 137
Width: 560
GlyphClass: 1
Flags: W
LayerCount: 2
Fore
SplineSet
218 0 m 1,0,-1
 218 107 l 1,1,-1
 235 107 l 2,2,3
 254 107 254 107 268.5 110 c 128,-1,4
 283 113 283 113 291.5 121 c 128,-1,5
 300 129 300 129 300 143 c 2,6,-1
 300 690 l 1,7,-1
 300 710 l 1,8,-1
 455 710 l 1,9,-1
 455 143 l 2,10,11
 455 129 455 129 464 121 c 128,-1,12
 473 113 473 113 487 110 c 128,-1,13
 501 107 501 107 519 107 c 2,14,-1
 536 107 l 1,15,-1
 536 0 l 1,16,-1
 218 0 l 1,0,-1
31 201 m 1,17,-1
 31 332 l 1,18,-1
 250 710 l 1,19,-1
 324 710 l 1,20,-1
 339 672 l 1,21,-1
 102 262 l 1,22,-1
 84 318 l 1,23,-1
 546 318 l 1,24,-1
 546 201 l 1,25,-1
 31 201 l 1,17,-1
EndSplineSet
Substitution2: "'pnum' Proportional Numbers lookup 57 subtable" four.midprop
Substitution2: "'lnum' Lining Figures lookup 56 subtable" four.lintab
Substitution2: "'onum' Oldstyle Figures lookup 55 subtable" four.oldtab
Substitution2: "'sinf' Scientific Inferiors lookup 54 subtable" four.sub
Substitution2: "'subs' Subscript lookup 53 subtable" four.sub
Substitution2: "'sups' Superscript lookup 52 subtable" four.sup
Substitution2: "'numr' Numerators lookup 51 subtable" four.num
Substitution2: "'dnom' Denominators lookup 50 subtable" four.den
Substitution2: "Single Substitution lookup 37 subtable" four.den
Substitution2: "Single Substitution lookup 35 subtable" four.num
Substitution2: "Single Substitution lookup 33 subtable" four.num
Substitution2: "Single Substitution lookup 31 subtable" four.num
Substitution2: "Single Substitution lookup 29 subtable" four.num
Substitution2: "Single Substitution lookup 27 subtable" four.num
Substitution2: "Single Substitution lookup 25 subtable" four.num
Substitution2: "Single Substitution lookup 23 subtable" four.num
Substitution2: "Single Substitution lookup 21 subtable" four.num
Substitution2: "Single Substitution lookup 19 subtable" four.num
Substitution2: "Single Substitution lookup 17 subtable" four.num
EndChar

StartChar: five
Encoding: 53 53 138
Width: 560
GlyphClass: 1
Flags: W
LayerCount: 2
Fore
SplineSet
256 -11 m 0,0,1
 342 -11 342 -11 401 17 c 128,-1,2
 460 45 460 45 490.5 101.5 c 128,-1,3
 521 158 521 158 521 242 c 0,4,5
 521 321 521 321 496.5 373 c 128,-1,6
 472 425 472 425 425 451 c 128,-1,7
 378 477 378 477 312 477 c 0,8,9
 262 477 262 477 229 463.5 c 128,-1,10
 196 450 196 450 175 426 c 128,-1,11
 154 402 154 402 141 367 c 0,12,13
 140 362 140 362 150 360.5 c 128,-1,14
 160 359 160 359 171.5 361 c 128,-1,15
 183 363 183 363 184 369 c 2,16,-1
 184 690 l 1,17,-1
 139 585 l 1,18,-1
 455 585 l 1,19,-1
 475 710 l 1,20,-1
 77 710 l 1,21,-1
 77 306 l 1,22,-1
 164 306 l 1,23,24
 176 327 176 327 187.5 340.5 c 128,-1,25
 199 354 199 354 216 361.5 c 128,-1,26
 233 369 233 369 260 369 c 0,27,28
 292 369 292 369 314 357.5 c 128,-1,29
 336 346 336 346 347 318 c 128,-1,30
 358 290 358 290 358 242 c 0,31,32
 358 191 358 191 345.5 159 c 128,-1,33
 333 127 333 127 308.5 112.5 c 128,-1,34
 284 98 284 98 248 98 c 0,35,36
 205 98 205 98 180 108 c 128,-1,37
 155 118 155 118 141 138 c 128,-1,38
 127 158 127 158 116 186 c 1,39,-1
 17 139 l 1,40,41
 34 89 34 89 62 56 c 128,-1,42
 90 23 90 23 137 6 c 128,-1,43
 184 -11 184 -11 256 -11 c 0,0,1
EndSplineSet
Substitution2: "'pnum' Proportional Numbers lookup 57 subtable" five.midprop
Substitution2: "'lnum' Lining Figures lookup 56 subtable" five.lintab
Substitution2: "'onum' Oldstyle Figures lookup 55 subtable" five.oldtab
Substitution2: "'sinf' Scientific Inferiors lookup 54 subtable" five.sub
Substitution2: "'subs' Subscript lookup 53 subtable" five.sub
Substitution2: "'sups' Superscript lookup 52 subtable" five.sup
Substitution2: "'numr' Numerators lookup 51 subtable" five.num
Substitution2: "'dnom' Denominators lookup 50 subtable" five.den
Substitution2: "Single Substitution lookup 37 subtable" five.den
Substitution2: "Single Substitution lookup 35 subtable" five.num
Substitution2: "Single Substitution lookup 33 subtable" five.num
Substitution2: "Single Substitution lookup 31 subtable" five.num
Substitution2: "Single Substitution lookup 29 subtable" five.num
Substitution2: "Single Substitution lookup 27 subtable" five.num
Substitution2: "Single Substitution lookup 25 subtable" five.num
Substitution2: "Single Substitution lookup 23 subtable" five.num
Substitution2: "Single Substitution lookup 21 subtable" five.num
Substitution2: "Single Substitution lookup 19 subtable" five.num
Substitution2: "Single Substitution lookup 17 subtable" five.num
EndChar

StartChar: six
Encoding: 54 54 139
Width: 560
GlyphClass: 1
Flags: W
LayerCount: 2
Fore
SplineSet
482 641 m 1,0,-1
 465 746 l 1,1,2
 354 734 354 734 272.5 701.5 c 128,-1,3
 191 669 191 669 138 614.5 c 128,-1,4
 85 560 85 560 59 482 c 128,-1,5
 33 404 33 404 33 300 c 0,6,7
 33 186 33 186 63.5 118 c 128,-1,8
 94 50 94 50 152.5 20 c 128,-1,9
 211 -10 211 -10 293 -10 c 0,10,11
 371 -10 371 -10 424.5 19.5 c 128,-1,12
 478 49 478 49 505.5 106.5 c 128,-1,13
 533 164 533 164 533 247 c 0,14,15
 533 322 533 322 512.5 371.5 c 128,-1,16
 492 421 492 421 453.5 446 c 128,-1,17
 415 471 415 471 360 471 c 0,18,19
 308 471 308 471 272 449 c 128,-1,20
 236 427 236 427 210 390.5 c 128,-1,21
 184 354 184 354 164 307 c 1,22,-1
 166 267 l 1,23,24
 188 307 188 307 207 328.5 c 128,-1,25
 226 350 226 350 246.5 359.5 c 128,-1,26
 267 369 267 369 293 369 c 0,27,28
 325 369 325 369 342.5 354.5 c 128,-1,29
 360 340 360 340 366.5 311 c 128,-1,30
 373 282 373 282 373 240 c 0,31,32
 373 187 373 187 365.5 154.5 c 128,-1,33
 358 122 358 122 339.5 107 c 128,-1,34
 321 92 321 92 288 92 c 0,35,36
 262 92 262 92 244 99 c 128,-1,37
 226 106 226 106 214 127 c 128,-1,38
 202 148 202 148 196 187.5 c 128,-1,39
 190 227 190 227 190 291 c 0,40,41
 190 391 190 391 207.5 455 c 128,-1,42
 225 519 225 519 260.5 557 c 128,-1,43
 296 595 296 595 351.5 613.5 c 128,-1,44
 407 632 407 632 482 641 c 1,0,-1
EndSplineSet
Substitution2: "'pnum' Proportional Numbers lookup 57 subtable" six.midprop
Substitution2: "'lnum' Lining Figures lookup 56 subtable" six.lintab
Substitution2: "'onum' Oldstyle Figures lookup 55 subtable" six.oldtab
Substitution2: "'sinf' Scientific Inferiors lookup 54 subtable" six.sub
Substitution2: "'subs' Subscript lookup 53 subtable" six.sub
Substitution2: "'sups' Superscript lookup 52 subtable" six.sup
Substitution2: "'numr' Numerators lookup 51 subtable" six.num
Substitution2: "'dnom' Denominators lookup 50 subtable" six.den
Substitution2: "Single Substitution lookup 37 subtable" six.den
Substitution2: "Single Substitution lookup 35 subtable" six.num
Substitution2: "Single Substitution lookup 33 subtable" six.num
Substitution2: "Single Substitution lookup 31 subtable" six.num
Substitution2: "Single Substitution lookup 29 subtable" six.num
Substitution2: "Single Substitution lookup 27 subtable" six.num
Substitution2: "Single Substitution lookup 25 subtable" six.num
Substitution2: "Single Substitution lookup 23 subtable" six.num
Substitution2: "Single Substitution lookup 21 subtable" six.num
Substitution2: "Single Substitution lookup 19 subtable" six.num
Substitution2: "Single Substitution lookup 17 subtable" six.num
EndChar

StartChar: seven
Encoding: 55 55 140
Width: 560
GlyphClass: 1
Flags: W
LayerCount: 2
Fore
SplineSet
254 576 m 2,0,-1
 487 576 l 1,1,-1
 451 601 l 1,2,3
 425 581 425 581 389.5 543.5 c 128,-1,4
 354 506 354 506 316.5 451.5 c 128,-1,5
 279 397 279 397 245.5 327.5 c 128,-1,6
 212 258 212 258 189 176 c 128,-1,7
 166 94 166 94 160 0 c 1,8,-1
 334 0 l 1,9,10
 338 122 338 122 351.5 207 c 128,-1,11
 365 292 365 292 390.5 354.5 c 128,-1,12
 416 417 416 417 451.5 468.5 c 128,-1,13
 487 520 487 520 531 573 c 1,14,-1
 531 710 l 1,15,-1
 50 710 l 1,16,-1
 50 445 l 1,17,-1
 143 445 l 1,18,-1
 150 533 l 2,19,20
 152 551 152 551 162.5 560.5 c 128,-1,21
 173 570 173 570 195.5 573 c 128,-1,22
 218 576 218 576 254 576 c 2,0,-1
EndSplineSet
Substitution2: "'pnum' Proportional Numbers lookup 57 subtable" seven.midprop
Substitution2: "'lnum' Lining Figures lookup 56 subtable" seven.lintab
Substitution2: "'onum' Oldstyle Figures lookup 55 subtable" seven.oldtab
Substitution2: "'sinf' Scientific Inferiors lookup 54 subtable" seven.sub
Substitution2: "'subs' Subscript lookup 53 subtable" seven.sub
Substitution2: "'sups' Superscript lookup 52 subtable" seven.sup
Substitution2: "'numr' Numerators lookup 51 subtable" seven.num
Substitution2: "'dnom' Denominators lookup 50 subtable" seven.den
Substitution2: "Single Substitution lookup 37 subtable" seven.den
Substitution2: "Single Substitution lookup 35 subtable" seven.num
Substitution2: "Single Substitution lookup 33 subtable" seven.num
Substitution2: "Single Substitution lookup 31 subtable" seven.num
Substitution2: "Single Substitution lookup 29 subtable" seven.num
Substitution2: "Single Substitution lookup 27 subtable" seven.num
Substitution2: "Single Substitution lookup 25 subtable" seven.num
Substitution2: "Single Substitution lookup 23 subtable" seven.num
Substitution2: "Single Substitution lookup 21 subtable" seven.num
Substitution2: "Single Substitution lookup 19 subtable" seven.num
Substitution2: "Single Substitution lookup 17 subtable" seven.num
EndChar

StartChar: eight
Encoding: 56 56 141
Width: 560
GlyphClass: 1
Flags: W
LayerCount: 2
Fore
SplineSet
280 87 m 0,0,1
 315 87 315 87 335.5 100.5 c 128,-1,2
 356 114 356 114 365.5 141.5 c 128,-1,3
 375 169 375 169 375 211 c 0,4,5
 375 255 375 255 365 282.5 c 128,-1,6
 355 310 355 310 334 322.5 c 128,-1,7
 313 335 313 335 280 335 c 256,8,9
 247 335 247 335 226 322.5 c 128,-1,10
 205 310 205 310 195 282.5 c 128,-1,11
 185 255 185 255 185 211 c 0,12,13
 185 169 185 169 194.5 141.5 c 128,-1,14
 204 114 204 114 225 100.5 c 128,-1,15
 246 87 246 87 280 87 c 0,0,1
280 433 m 256,16,17
 308 433 308 433 326 444 c 128,-1,18
 344 455 344 455 352.5 477.5 c 128,-1,19
 361 500 361 500 361 536 c 256,20,21
 361 572 361 572 352.5 594.5 c 128,-1,22
 344 617 344 617 326 627.5 c 128,-1,23
 308 638 308 638 280 638 c 256,24,25
 252 638 252 638 234 627.5 c 128,-1,26
 216 617 216 617 207.5 594.5 c 128,-1,27
 199 572 199 572 199 536 c 256,28,29
 199 500 199 500 207.5 477.5 c 128,-1,30
 216 455 216 455 234 444 c 128,-1,31
 252 433 252 433 280 433 c 256,16,17
280 735 m 256,32,33
 353 735 353 735 403.5 714 c 128,-1,34
 454 693 454 693 480.5 653 c 128,-1,35
 507 613 507 613 507 556 c 0,36,37
 507 504 507 504 484.5 469 c 128,-1,38
 462 434 462 434 422 413.5 c 128,-1,39
 382 393 382 393 329 384 c 1,40,-1
 373 409 l 1,41,-1
 373 365 l 1,42,-1
 329 390 l 1,43,44
 390 381 390 381 436 357.5 c 128,-1,45
 482 334 482 334 508.5 294.5 c 128,-1,46
 535 255 535 255 535 197 c 0,47,48
 535 129 535 129 506 83.5 c 128,-1,49
 477 38 477 38 420 14 c 128,-1,50
 363 -10 363 -10 280 -10 c 0,51,52
 198 -10 198 -10 140.5 14 c 128,-1,53
 83 38 83 38 54 83.5 c 128,-1,54
 25 129 25 129 25 197 c 0,55,56
 25 255 25 255 51.5 294.5 c 128,-1,57
 78 334 78 334 124.5 357.5 c 128,-1,58
 171 381 171 381 231 390 c 1,59,-1
 187 365 l 1,60,-1
 187 409 l 1,61,-1
 231 384 l 1,62,63
 179 393 179 393 138.5 413.5 c 128,-1,64
 98 434 98 434 75.5 469 c 128,-1,65
 53 504 53 504 53 556 c 0,66,67
 53 613 53 613 79.5 653 c 128,-1,68
 106 693 106 693 156.5 714 c 128,-1,69
 207 735 207 735 280 735 c 256,32,33
EndSplineSet
Substitution2: "'pnum' Proportional Numbers lookup 57 subtable" eight.midprop
Substitution2: "'lnum' Lining Figures lookup 56 subtable" eight.lintab
Substitution2: "'onum' Oldstyle Figures lookup 55 subtable" eight.oldtab
Substitution2: "'sinf' Scientific Inferiors lookup 54 subtable" eight.sub
Substitution2: "'subs' Subscript lookup 53 subtable" eight.sub
Substitution2: "'sups' Superscript lookup 52 subtable" eight.sup
Substitution2: "'numr' Numerators lookup 51 subtable" eight.num
Substitution2: "'dnom' Denominators lookup 50 subtable" eight.den
Substitution2: "Single Substitution lookup 37 subtable" eight.den
Substitution2: "Single Substitution lookup 35 subtable" eight.num
Substitution2: "Single Substitution lookup 33 subtable" eight.num
Substitution2: "Single Substitution lookup 31 subtable" eight.num
Substitution2: "Single Substitution lookup 29 subtable" eight.num
Substitution2: "Single Substitution lookup 27 subtable" eight.num
Substitution2: "Single Substitution lookup 25 subtable" eight.num
Substitution2: "Single Substitution lookup 23 subtable" eight.num
Substitution2: "Single Substitution lookup 21 subtable" eight.num
Substitution2: "Single Substitution lookup 19 subtable" eight.num
Substitution2: "Single Substitution lookup 17 subtable" eight.num
EndChar

StartChar: nine
Encoding: 57 57 142
Width: 560
GlyphClass: 1
Flags: W
LayerCount: 2
Fore
SplineSet
81 95 m 1,0,-1
 98 -13 l 1,1,2
 209 -3 209 -3 291 28 c 128,-1,3
 373 59 373 59 426 113.5 c 128,-1,4
 479 168 479 168 505 246.5 c 128,-1,5
 531 325 531 325 531 429 c 0,6,7
 531 542 531 542 502 609 c 128,-1,8
 473 676 473 676 416.5 705.5 c 128,-1,9
 360 735 360 735 278 735 c 0,10,11
 200 735 200 735 144.5 708 c 128,-1,12
 89 681 89 681 60 626 c 128,-1,13
 31 571 31 571 31 487 c 0,14,15
 31 415 31 415 53 365.5 c 128,-1,16
 75 316 75 316 114.5 290 c 128,-1,17
 154 264 154 264 207 264 c 0,18,19
 258 264 258 264 293.5 285 c 128,-1,20
 329 306 329 306 354.5 342 c 128,-1,21
 380 378 380 378 400 424 c 1,22,-1
 398 468 l 1,23,24
 377 429 377 429 358 406.5 c 128,-1,25
 339 384 339 384 318.5 375 c 128,-1,26
 298 366 298 366 272 366 c 0,27,28
 240 366 240 366 222 380 c 128,-1,29
 204 394 204 394 197 422 c 128,-1,30
 190 450 190 450 190 492 c 0,31,32
 190 547 190 547 198.5 577.5 c 128,-1,33
 207 608 207 608 226.5 620.5 c 128,-1,34
 246 633 246 633 279 633 c 0,35,36
 304 633 304 633 322.5 626 c 128,-1,37
 341 619 341 619 352.5 599 c 128,-1,38
 364 579 364 579 369 539.5 c 128,-1,39
 374 500 374 500 374 435 c 0,40,41
 374 342 374 342 357 280 c 128,-1,42
 340 218 340 218 304 180 c 128,-1,43
 268 142 268 142 212.5 122.5 c 128,-1,44
 157 103 157 103 81 95 c 1,0,-1
EndSplineSet
Substitution2: "'pnum' Proportional Numbers lookup 57 subtable" nine.midprop
Substitution2: "'lnum' Lining Figures lookup 56 subtable" nine.lintab
Substitution2: "'onum' Oldstyle Figures lookup 55 subtable" nine.oldtab
Substitution2: "'sinf' Scientific Inferiors lookup 54 subtable" nine.sub
Substitution2: "'subs' Subscript lookup 53 subtable" nine.sub
Substitution2: "'sups' Superscript lookup 52 subtable" nine.sup
Substitution2: "'numr' Numerators lookup 51 subtable" nine.num
Substitution2: "'dnom' Denominators lookup 50 subtable" nine.den
Substitution2: "Single Substitution lookup 37 subtable" nine.den
Substitution2: "Single Substitution lookup 35 subtable" nine.num
Substitution2: "Single Substitution lookup 33 subtable" nine.num
Substitution2: "Single Substitution lookup 31 subtable" nine.num
Substitution2: "Single Substitution lookup 29 subtable" nine.num
Substitution2: "Single Substitution lookup 27 subtable" nine.num
Substitution2: "Single Substitution lookup 25 subtable" nine.num
Substitution2: "Single Substitution lookup 23 subtable" nine.num
Substitution2: "Single Substitution lookup 21 subtable" nine.num
Substitution2: "Single Substitution lookup 19 subtable" nine.num
Substitution2: "Single Substitution lookup 17 subtable" nine.num
EndChar

StartChar: underscore
Encoding: 95 95 146
Width: 549
GlyphClass: 1
Flags: W
LayerCount: 2
Fore
SplineSet
-5 -93 m 1,0,-1
 554 -93 l 1,1,-1
 554 -198 l 1,2,-1
 -5 -198 l 1,3,-1
 -5 -93 l 1,0,-1
EndSplineSet
EndChar

StartChar: hyphen
Encoding: 45 45 147
Width: 519
GlyphClass: 1
Flags: W
LayerCount: 2
Fore
SplineSet
76 364 m 1,0,-1
 443 364 l 1,1,-1
 443 215 l 1,2,-1
 76 215 l 1,3,-1
 76 364 l 1,0,-1
EndSplineSet
EndChar

StartChar: endash
Encoding: 150 8211 148
Width: 677
GlyphClass: 1
Flags: W
LayerCount: 2
Fore
SplineSet
76 376 m 1,0,-1
 601 376 l 1,1,-1
 601 254 l 1,2,-1
 76 254 l 1,3,-1
 76 376 l 1,0,-1
EndSplineSet
EndChar

StartChar: emdash
Encoding: 151 8212 149
Width: 1030
GlyphClass: 1
Flags: W
LayerCount: 2
Fore
SplineSet
76 379 m 1,0,-1
 954 379 l 1,1,-1
 954 257 l 1,2,-1
 76 257 l 1,3,-1
 76 379 l 1,0,-1
EndSplineSet
EndChar

StartChar: parenleft
Encoding: 40 40 150
Width: 439
GlyphClass: 1
Flags: W
LayerCount: 2
Fore
SplineSet
222 310 m 256,0,1
 222 392 222 392 239 460 c 128,-1,2
 256 528 256 528 285 582 c 128,-1,3
 314 636 314 636 351 677 c 128,-1,4
 388 718 388 718 429 747 c 1,5,-1
 429 750 l 1,6,-1
 300 750 l 1,7,8
 253 722 253 722 210.5 678.5 c 128,-1,9
 168 635 168 635 134.5 578.5 c 128,-1,10
 101 522 101 522 82 454.5 c 128,-1,11
 63 387 63 387 63 310 c 256,12,13
 63 233 63 233 82 165.5 c 128,-1,14
 101 98 101 98 134.5 41.5 c 128,-1,15
 168 -15 168 -15 210.5 -58.5 c 128,-1,16
 253 -102 253 -102 300 -130 c 1,17,-1
 429 -130 l 1,18,-1
 429 -127 l 1,19,20
 388 -98 388 -98 351 -57 c 128,-1,21
 314 -16 314 -16 285 38 c 128,-1,22
 256 92 256 92 239 160 c 128,-1,23
 222 228 222 228 222 310 c 256,0,1
EndSplineSet
EndChar

StartChar: parenright
Encoding: 41 41 151
Width: 439
GlyphClass: 1
Flags: W
LayerCount: 2
Fore
SplineSet
217 310 m 256,0,1
 217 228 217 228 200 160 c 128,-1,2
 183 92 183 92 154 38 c 128,-1,3
 125 -16 125 -16 87.5 -57 c 128,-1,4
 50 -98 50 -98 10 -127 c 1,5,-1
 10 -130 l 1,6,-1
 139 -130 l 1,7,8
 186 -102 186 -102 228.5 -58.5 c 128,-1,9
 271 -15 271 -15 304 41.5 c 128,-1,10
 337 98 337 98 356.5 165.5 c 128,-1,11
 376 233 376 233 376 310 c 256,12,13
 376 387 376 387 356.5 454.5 c 128,-1,14
 337 522 337 522 304 578.5 c 128,-1,15
 271 635 271 635 228.5 678.5 c 128,-1,16
 186 722 186 722 139 750 c 1,17,-1
 10 750 l 1,18,-1
 10 747 l 1,19,20
 50 718 50 718 87.5 677 c 128,-1,21
 125 636 125 636 154 582 c 128,-1,22
 183 528 183 528 200 460 c 128,-1,23
 217 392 217 392 217 310 c 256,0,1
EndSplineSet
EndChar

StartChar: bracketleft
Encoding: 91 91 152
Width: 401
GlyphClass: 1
Flags: W
LayerCount: 2
Fore
SplineSet
65 -130 m 1,0,-1
 65 750 l 1,1,-1
 369 750 l 1,2,-1
 369 644 l 1,3,-1
 208 644 l 1,4,-1
 208 -24 l 1,5,-1
 369 -24 l 1,6,-1
 369 -130 l 1,7,-1
 65 -130 l 1,0,-1
EndSplineSet
EndChar

StartChar: bracketright
Encoding: 93 93 153
Width: 401
GlyphClass: 1
Flags: W
LayerCount: 2
Fore
SplineSet
336 -130 m 1,0,-1
 32 -130 l 1,1,-1
 32 -24 l 1,2,-1
 193 -24 l 1,3,-1
 193 644 l 1,4,-1
 32 644 l 1,5,-1
 32 750 l 1,6,-1
 336 750 l 1,7,-1
 336 -130 l 1,0,-1
EndSplineSet
EndChar

StartChar: braceleft
Encoding: 123 123 154
Width: 467
GlyphClass: 1
Flags: W
LayerCount: 2
Fore
SplineSet
390 198 m 0,0,1
 390 179 390 179 378.5 160 c 128,-1,2
 367 141 367 141 350 122.5 c 128,-1,3
 333 104 333 104 315.5 86 c 128,-1,4
 298 68 298 68 286.5 49.5 c 128,-1,5
 275 31 275 31 275 12 c 0,6,7
 275 -10 275 -10 292.5 -22 c 128,-1,8
 310 -34 310 -34 346 -38 c 128,-1,9
 382 -42 382 -42 437 -40 c 1,10,-1
 419 -133 l 1,11,12
 357 -138 357 -138 301.5 -135.5 c 128,-1,13
 246 -133 246 -133 203.5 -119 c 128,-1,14
 161 -105 161 -105 136.5 -76.5 c 128,-1,15
 112 -48 112 -48 112 -1 c 0,16,17
 112 39 112 39 129 69 c 128,-1,18
 146 99 146 99 172 124.5 c 128,-1,19
 198 150 198 150 225.5 175 c 128,-1,20
 253 200 253 200 273 229 c 1,21,-1
 271 185 l 1,22,-1
 59 251 l 1,23,-1
 59 365 l 1,24,-1
 271 431 l 1,25,-1
 273 386 l 1,26,27
 253 416 253 416 225.5 440.5 c 128,-1,28
 198 465 198 465 172 490.5 c 128,-1,29
 146 516 146 516 129 546.5 c 128,-1,30
 112 577 112 577 112 617 c 0,31,32
 112 664 112 664 136.5 692 c 128,-1,33
 161 720 161 720 203.5 734 c 128,-1,34
 246 748 246 748 301.5 750.5 c 128,-1,35
 357 753 357 753 419 749 c 1,36,-1
 435 656 l 1,37,38
 381 658 381 658 345 654 c 128,-1,39
 309 650 309 650 292 638 c 128,-1,40
 275 626 275 626 275 604 c 0,41,42
 275 585 275 585 286.5 566.5 c 128,-1,43
 298 548 298 548 315 529.5 c 128,-1,44
 332 511 332 511 349.5 493 c 128,-1,45
 367 475 367 475 378.5 456 c 128,-1,46
 390 437 390 437 390 418 c 0,47,48
 390 395 390 395 379 380.5 c 128,-1,49
 368 366 368 366 344 356 c 128,-1,50
 320 346 320 346 280 336.5 c 128,-1,51
 240 327 240 327 182 315 c 1,52,-1
 182 300 l 1,53,54
 240 289 240 289 280 279.5 c 128,-1,55
 320 270 320 270 344 259.5 c 128,-1,56
 368 249 368 249 379 234.5 c 128,-1,57
 390 220 390 220 390 198 c 0,0,1
EndSplineSet
EndChar

StartChar: braceright
Encoding: 125 125 155
Width: 467
GlyphClass: 1
Flags: W
LayerCount: 2
Fore
SplineSet
77 198 m 0,0,1
 77 220 77 220 88 234.5 c 128,-1,2
 99 249 99 249 123 259.5 c 128,-1,3
 147 270 147 270 187 279.5 c 128,-1,4
 227 289 227 289 286 300 c 1,5,-1
 286 315 l 1,6,7
 227 327 227 327 187 336.5 c 128,-1,8
 147 346 147 346 123 356 c 128,-1,9
 99 366 99 366 88 380.5 c 128,-1,10
 77 395 77 395 77 418 c 0,11,12
 77 437 77 437 88.5 456 c 128,-1,13
 100 475 100 475 117.5 493 c 128,-1,14
 135 511 135 511 152 529.5 c 128,-1,15
 169 548 169 548 181 566.5 c 128,-1,16
 193 585 193 585 193 604 c 0,17,18
 193 626 193 626 175.5 638 c 128,-1,19
 158 650 158 650 122.5 654 c 128,-1,20
 87 658 87 658 32 656 c 1,21,-1
 48 749 l 1,22,23
 110 753 110 753 165.5 750.5 c 128,-1,24
 221 748 221 748 263.5 734 c 128,-1,25
 306 720 306 720 331 692 c 128,-1,26
 356 664 356 664 356 617 c 0,27,28
 356 577 356 577 338.5 546.5 c 128,-1,29
 321 516 321 516 295 490.5 c 128,-1,30
 269 465 269 465 241.5 440.5 c 128,-1,31
 214 416 214 416 194 386 c 1,32,-1
 196 431 l 1,33,-1
 408 365 l 1,34,-1
 408 251 l 1,35,-1
 196 185 l 1,36,-1
 194 229 l 1,37,38
 214 200 214 200 241.5 175 c 128,-1,39
 269 150 269 150 295 124.5 c 128,-1,40
 321 99 321 99 338.5 69 c 128,-1,41
 356 39 356 39 356 -1 c 0,42,43
 356 -48 356 -48 331 -76.5 c 128,-1,44
 306 -105 306 -105 263.5 -119 c 128,-1,45
 221 -133 221 -133 165.5 -135.5 c 128,-1,46
 110 -138 110 -138 48 -133 c 1,47,-1
 31 -40 l 1,48,49
 86 -42 86 -42 121.5 -38 c 128,-1,50
 157 -34 157 -34 175 -22 c 128,-1,51
 193 -10 193 -10 193 12 c 0,52,53
 193 31 193 31 181 49.5 c 128,-1,54
 169 68 169 68 152 86 c 128,-1,55
 135 104 135 104 117.5 122.5 c 128,-1,56
 100 141 100 141 88.5 160 c 128,-1,57
 77 179 77 179 77 198 c 0,0,1
EndSplineSet
EndChar

StartChar: numbersign
Encoding: 35 35 156
Width: 757
GlyphClass: 1
Flags: W
LayerCount: 2
Fore
SplineSet
127 0 m 1,0,-1
 281 780 l 1,1,-1
 390 780 l 1,2,-1
 236 0 l 1,3,-1
 127 0 l 1,0,-1
42 200 m 1,4,-1
 42 320 l 1,5,-1
 663 320 l 1,6,-1
 663 200 l 1,7,-1
 42 200 l 1,4,-1
94 486 m 1,8,-1
 94 606 l 1,9,-1
 715 606 l 1,10,-1
 715 486 l 1,11,-1
 94 486 l 1,8,-1
364 0 m 1,12,-1
 516 780 l 1,13,-1
 627 780 l 1,14,-1
 473 0 l 1,15,-1
 364 0 l 1,12,-1
EndSplineSet
EndChar

StartChar: percent
Encoding: 37 37 157
Width: 779
GlyphClass: 1
Flags: W
LayerCount: 2
Fore
SplineSet
195 355 m 0,0,1
 146 355 146 355 108 377.5 c 128,-1,2
 70 400 70 400 50 444 c 128,-1,3
 30 488 30 488 30 553 c 256,4,5
 30 618 30 618 50 662 c 128,-1,6
 70 706 70 706 108 729 c 128,-1,7
 146 752 146 752 195 752 c 0,8,9
 246 752 246 752 283 729 c 128,-1,10
 320 706 320 706 341 662 c 128,-1,11
 362 618 362 618 362 553 c 256,12,13
 362 488 362 488 341 444 c 128,-1,14
 320 400 320 400 283 377.5 c 128,-1,15
 246 355 246 355 195 355 c 0,0,1
195 440 m 0,16,17
 214 440 214 440 225 451 c 128,-1,18
 236 462 236 462 240.5 487 c 128,-1,19
 245 512 245 512 245 553 c 0,20,21
 245 595 245 595 240.5 619.5 c 128,-1,22
 236 644 236 644 225 655 c 128,-1,23
 214 666 214 666 195 666 c 0,24,25
 177 666 177 666 166 655 c 128,-1,26
 155 644 155 644 150.5 619.5 c 128,-1,27
 146 595 146 595 146 553 c 0,28,29
 146 512 146 512 150.5 487 c 128,-1,30
 155 462 155 462 166 451 c 128,-1,31
 177 440 177 440 195 440 c 0,16,17
583 -22 m 256,32,33
 533 -22 533 -22 495.5 0.5 c 128,-1,34
 458 23 458 23 437.5 67.5 c 128,-1,35
 417 112 417 112 417 176 c 0,36,37
 417 241 417 241 437.5 285.5 c 128,-1,38
 458 330 458 330 495.5 352.5 c 128,-1,39
 533 375 533 375 583 375 c 256,40,41
 633 375 633 375 670.5 352.5 c 128,-1,42
 708 330 708 330 728.5 285.5 c 128,-1,43
 749 241 749 241 749 176 c 0,44,45
 749 112 749 112 728.5 67.5 c 128,-1,46
 708 23 708 23 670.5 0.5 c 128,-1,47
 633 -22 633 -22 583 -22 c 256,32,33
55 0 m 1,48,-1
 590 710 l 1,49,-1
 709 710 l 1,50,-1
 174 0 l 1,51,-1
 55 0 l 1,48,-1
583 64 m 256,52,53
 602 64 602 64 612.5 75 c 128,-1,54
 623 86 623 86 628 110.5 c 128,-1,55
 633 135 633 135 633 176 c 0,56,57
 633 218 633 218 628 242.5 c 128,-1,58
 623 267 623 267 612.5 278.5 c 128,-1,59
 602 290 602 290 583 290 c 256,60,61
 564 290 564 290 553.5 278.5 c 128,-1,62
 543 267 543 267 538 242.5 c 128,-1,63
 533 218 533 218 533 176 c 0,64,65
 533 135 533 135 538 110.5 c 128,-1,66
 543 86 543 86 553.5 75 c 128,-1,67
 564 64 564 64 583 64 c 256,52,53
EndSplineSet
EndChar

StartChar: perthousand
Encoding: 137 8240 158
Width: 1150
GlyphClass: 1
Flags: W
LayerCount: 2
Fore
SplineSet
192 440 m 0,0,1
 210 440 210 440 221 451 c 128,-1,2
 232 462 232 462 237 487 c 128,-1,3
 242 512 242 512 242 553 c 0,4,5
 242 595 242 595 237 619.5 c 128,-1,6
 232 644 232 644 221 655 c 128,-1,7
 210 666 210 666 192 666 c 0,8,9
 173 666 173 666 162 655 c 128,-1,10
 151 644 151 644 146.5 619.5 c 128,-1,11
 142 595 142 595 142 553 c 0,12,13
 142 512 142 512 146.5 487 c 128,-1,14
 151 462 151 462 162 451 c 128,-1,15
 173 440 173 440 192 440 c 0,0,1
192 355 m 256,16,17
 142 355 142 355 104.5 377.5 c 128,-1,18
 67 400 67 400 46.5 444 c 128,-1,19
 26 488 26 488 26 553 c 256,20,21
 26 618 26 618 46.5 662 c 128,-1,22
 67 706 67 706 104.5 729 c 128,-1,23
 142 752 142 752 192 752 c 256,24,25
 242 752 242 752 279 729 c 128,-1,26
 316 706 316 706 337 662 c 128,-1,27
 358 618 358 618 358 553 c 256,28,29
 358 488 358 488 337 444 c 128,-1,30
 316 400 316 400 279 377.5 c 128,-1,31
 242 355 242 355 192 355 c 256,16,17
163 0 m 1,32,-1
 48 0 l 1,33,-1
 588 710 l 1,34,-1
 703 710 l 1,35,-1
 163 0 l 1,32,-1
577 64 m 256,36,37
 596 64 596 64 606.5 75 c 128,-1,38
 617 86 617 86 622 110.5 c 128,-1,39
 627 135 627 135 627 176 c 0,40,41
 627 218 627 218 622 242.5 c 128,-1,42
 617 267 617 267 606.5 278.5 c 128,-1,43
 596 290 596 290 577 290 c 256,44,45
 558 290 558 290 547.5 278.5 c 128,-1,46
 537 267 537 267 532 242.5 c 128,-1,47
 527 218 527 218 527 176 c 0,48,49
 527 135 527 135 532 110.5 c 128,-1,50
 537 86 537 86 547.5 75 c 128,-1,51
 558 64 558 64 577 64 c 256,36,37
577 -22 m 256,52,53
 527 -22 527 -22 489.5 0.5 c 128,-1,54
 452 23 452 23 431.5 67.5 c 128,-1,55
 411 112 411 112 411 176 c 0,56,57
 411 241 411 241 431.5 285.5 c 128,-1,58
 452 330 452 330 489.5 352.5 c 128,-1,59
 527 375 527 375 577 375 c 256,60,61
 627 375 627 375 664.5 352.5 c 128,-1,62
 702 330 702 330 722.5 285.5 c 128,-1,63
 743 241 743 241 743 176 c 0,64,65
 743 112 743 112 722.5 67.5 c 128,-1,66
 702 23 702 23 664.5 0.5 c 128,-1,67
 627 -22 627 -22 577 -22 c 256,52,53
958 64 m 0,68,69
 976 64 976 64 987 75 c 128,-1,70
 998 86 998 86 1003 110.5 c 128,-1,71
 1008 135 1008 135 1008 176 c 0,72,73
 1008 218 1008 218 1003 242.5 c 128,-1,74
 998 267 998 267 987 278.5 c 128,-1,75
 976 290 976 290 958 290 c 0,76,77
 939 290 939 290 928 278.5 c 128,-1,78
 917 267 917 267 912.5 242.5 c 128,-1,79
 908 218 908 218 908 176 c 0,80,81
 908 135 908 135 912.5 110.5 c 128,-1,82
 917 86 917 86 928 75 c 128,-1,83
 939 64 939 64 958 64 c 0,68,69
958 -22 m 256,84,85
 908 -22 908 -22 870.5 0.5 c 128,-1,86
 833 23 833 23 812.5 67.5 c 128,-1,87
 792 112 792 112 792 176 c 0,88,89
 792 241 792 241 812.5 285.5 c 128,-1,90
 833 330 833 330 870.5 352.5 c 128,-1,91
 908 375 908 375 958 375 c 256,92,93
 1008 375 1008 375 1045 352.5 c 128,-1,94
 1082 330 1082 330 1103 285.5 c 128,-1,95
 1124 241 1124 241 1124 176 c 0,96,97
 1124 112 1124 112 1103 67.5 c 128,-1,98
 1082 23 1082 23 1045 0.5 c 128,-1,99
 1008 -22 1008 -22 958 -22 c 256,84,85
EndSplineSet
EndChar

StartChar: quotesingle
Encoding: 39 39 159
Width: 273
GlyphClass: 1
Flags: W
LayerCount: 2
Fore
SplineSet
222 769 m 1,0,-1
 52 769 l 1,1,2
 52 732 52 732 56.5 699 c 128,-1,3
 61 666 61 666 67 631 c 128,-1,4
 73 596 73 596 77.5 554 c 128,-1,5
 82 512 82 512 82 456 c 1,6,-1
 191 456 l 1,7,8
 191 512 191 512 196 554 c 128,-1,9
 201 596 201 596 206.5 631 c 128,-1,10
 212 666 212 666 217 699.5 c 128,-1,11
 222 733 222 733 222 769 c 1,0,-1
EndSplineSet
EndChar

StartChar: quoteleft
Encoding: 145 8216 161
Width: 339
GlyphClass: 1
Flags: W
LayerCount: 2
Fore
SplineSet
224 801 m 1,0,-1
 296 712 l 1,1,2
 261 703 261 703 233 694 c 128,-1,3
 205 685 205 685 185 671 c 128,-1,4
 165 657 165 657 154.5 633 c 128,-1,5
 144 609 144 609 144 569 c 1,6,-1
 115 575 l 1,7,8
 128 585 128 585 146 591 c 128,-1,9
 164 597 164 597 180 597 c 0,10,11
 224 597 224 597 247.5 577 c 128,-1,12
 271 557 271 557 271 516 c 0,13,14
 271 476 271 476 244 452.5 c 128,-1,15
 217 429 217 429 164 429 c 0,16,17
 110 429 110 429 79 458 c 128,-1,18
 48 487 48 487 48 552 c 0,19,20
 48 610 48 610 62 651 c 128,-1,21
 76 692 76 692 100 719.5 c 128,-1,22
 124 747 124 747 156 766 c 128,-1,23
 188 785 188 785 224 801 c 1,0,-1
EndSplineSet
EndChar

StartChar: quoteright
Encoding: 146 8217 162
Width: 339
GlyphClass: 1
Flags: W
LayerCount: 2
Fore
SplineSet
115 417 m 1,0,-1
 42 506 l 1,1,2
 77 515 77 515 105.5 524 c 128,-1,3
 134 533 134 533 153.5 547 c 128,-1,4
 173 561 173 561 184 585.5 c 128,-1,5
 195 610 195 610 195 649 c 1,6,-1
 224 643 l 1,7,8
 211 633 211 633 193 627 c 128,-1,9
 175 621 175 621 159 621 c 0,10,11
 115 621 115 621 91.5 641 c 128,-1,12
 68 661 68 661 68 702 c 0,13,14
 68 742 68 742 95.5 765.5 c 128,-1,15
 123 789 123 789 175 789 c 0,16,17
 229 789 229 789 260 760 c 128,-1,18
 291 731 291 731 291 666 c 0,19,20
 291 608 291 608 277 567 c 128,-1,21
 263 526 263 526 238.5 498.5 c 128,-1,22
 214 471 214 471 182.5 452 c 128,-1,23
 151 433 151 433 115 417 c 1,0,-1
EndSplineSet
EndChar

StartChar: quotedblleft
Encoding: 147 8220 163
Width: 618
GlyphClass: 1
Flags: W
LayerCount: 2
Fore
SplineSet
503 801 m 1,0,-1
 576 712 l 1,1,2
 541 703 541 703 512.5 694 c 128,-1,3
 484 685 484 685 464.5 671 c 128,-1,4
 445 657 445 657 434 633 c 128,-1,5
 423 609 423 609 423 569 c 1,6,-1
 394 575 l 1,7,8
 407 585 407 585 425 591 c 128,-1,9
 443 597 443 597 459 597 c 0,10,11
 503 597 503 597 526.5 577 c 128,-1,12
 550 557 550 557 550 516 c 0,13,14
 550 476 550 476 523 452.5 c 128,-1,15
 496 429 496 429 443 429 c 256,16,17
 390 429 390 429 358.5 458 c 128,-1,18
 327 487 327 487 327 552 c 0,19,20
 327 610 327 610 341 651 c 128,-1,21
 355 692 355 692 379 719.5 c 128,-1,22
 403 747 403 747 435 766 c 128,-1,23
 467 785 467 785 503 801 c 1,0,-1
224 801 m 1,24,-1
 296 712 l 1,25,26
 261 703 261 703 233 694 c 128,-1,27
 205 685 205 685 185 671 c 128,-1,28
 165 657 165 657 154.5 633 c 128,-1,29
 144 609 144 609 144 569 c 1,30,-1
 115 575 l 1,31,32
 128 585 128 585 146 591 c 128,-1,33
 164 597 164 597 180 597 c 0,34,35
 224 597 224 597 247.5 577 c 128,-1,36
 271 557 271 557 271 516 c 0,37,38
 271 476 271 476 244 452.5 c 128,-1,39
 217 429 217 429 164 429 c 0,40,41
 110 429 110 429 79 458 c 128,-1,42
 48 487 48 487 48 552 c 0,43,44
 48 610 48 610 62 651 c 128,-1,45
 76 692 76 692 100 719.5 c 128,-1,46
 124 747 124 747 156 766 c 128,-1,47
 188 785 188 785 224 801 c 1,24,-1
EndSplineSet
EndChar

StartChar: guilsinglleft
Encoding: 139 8249 167
Width: 432
GlyphClass: 1
Flags: W
LayerCount: 2
Fore
SplineSet
202 256 m 1,0,-1
 203 316 l 1,1,-1
 375 63 l 1,2,-1
 250 63 l 1,3,-1
 62 244 l 1,4,-1
 62 332 l 1,5,-1
 250 513 l 1,6,-1
 375 513 l 1,7,-1
 202 256 l 1,0,-1
EndSplineSet
EndChar

StartChar: guilsinglright
Encoding: 155 8250 168
Width: 432
GlyphClass: 1
Flags: W
LayerCount: 2
Fore
SplineSet
231 250 m 1,0,-1
 58 507 l 1,1,-1
 182 507 l 1,2,-1
 371 326 l 1,3,-1
 371 238 l 1,4,-1
 182 57 l 1,5,-1
 58 57 l 1,6,-1
 230 310 l 1,7,-1
 231 250 l 1,0,-1
EndSplineSet
EndChar

StartChar: guillemotright
Encoding: 187 187 170
Width: 724
GlyphClass: 1
Flags: W
LayerCount: 2
Fore
SplineSet
523 250 m 1,0,-1
 350 507 l 1,1,-1
 474 507 l 1,2,-1
 663 326 l 1,3,-1
 663 238 l 1,4,-1
 474 57 l 1,5,-1
 350 57 l 1,6,-1
 522 310 l 1,7,-1
 523 250 l 1,0,-1
231 250 m 1,8,-1
 58 507 l 1,9,-1
 182 507 l 1,10,-1
 371 326 l 1,11,-1
 371 238 l 1,12,-1
 182 57 l 1,13,-1
 58 57 l 1,14,-1
 230 310 l 1,15,-1
 231 250 l 1,8,-1
EndSplineSet
EndChar

StartChar: asterisk
Encoding: 42 42 171
Width: 615
GlyphClass: 1
Flags: W
LayerCount: 2
Fore
SplineSet
120 356 m 1,0,-1
 53 472 l 1,1,2
 81 488 81 488 105 496.5 c 128,-1,3
 129 505 129 505 152.5 511.5 c 128,-1,4
 176 518 176 518 202 527 c 128,-1,5
 228 536 228 536 257 552 c 1,6,-1
 291 491 l 1,7,8
 262 473 262 473 241.5 455.5 c 128,-1,9
 221 438 221 438 204 421.5 c 128,-1,10
 187 405 187 405 167 388.5 c 128,-1,11
 147 372 147 372 120 356 c 1,0,-1
240 793 m 1,12,-1
 374 793 l 1,13,14
 374 761 374 761 369.5 736 c 128,-1,15
 365 711 365 711 359 687.5 c 128,-1,16
 353 664 353 664 348.5 638 c 128,-1,17
 344 612 344 612 343 578 c 1,18,-1
 271 578 l 1,19,20
 271 612 271 612 266 638 c 128,-1,21
 261 664 261 664 255 687.5 c 128,-1,22
 249 711 249 711 244.5 736 c 128,-1,23
 240 761 240 761 240 793 c 1,12,-1
53 607 m 1,24,-1
 119 723 l 1,25,26
 146 707 146 707 166 690.5 c 128,-1,27
 186 674 186 674 203.5 657.5 c 128,-1,28
 221 641 221 641 241 624 c 128,-1,29
 261 607 261 607 290 590 c 1,30,-1
 257 528 l 1,31,32
 227 544 227 544 201.5 552.5 c 128,-1,33
 176 561 176 561 152 567.5 c 128,-1,34
 128 574 128 574 104 583 c 128,-1,35
 80 592 80 592 53 607 c 1,24,-1
241 286 m 1,36,37
 241 318 241 318 246 343.5 c 128,-1,38
 251 369 251 369 256.5 392 c 128,-1,39
 262 415 262 415 267 441 c 128,-1,40
 272 467 272 467 272 502 c 1,41,-1
 344 502 l 1,42,43
 345 467 345 467 349.5 441 c 128,-1,44
 354 415 354 415 360 392 c 128,-1,45
 366 369 366 369 370.5 343.5 c 128,-1,46
 375 318 375 318 375 286 c 1,47,-1
 241 286 l 1,36,37
358 528 m 1,48,-1
 324 590 l 1,49,50
 353 608 353 608 373.5 625 c 128,-1,51
 394 642 394 642 411.5 658.5 c 128,-1,52
 429 675 429 675 448.5 691.5 c 128,-1,53
 468 708 468 708 496 724 c 1,54,-1
 563 608 l 1,55,56
 535 592 535 592 510.5 583.5 c 128,-1,57
 486 575 486 575 462.5 568.5 c 128,-1,58
 439 562 439 562 413.5 553 c 128,-1,59
 388 544 388 544 358 528 c 1,48,-1
496 357 m 1,60,61
 469 372 469 372 449 388.5 c 128,-1,62
 429 405 429 405 412 422 c 128,-1,63
 395 439 395 439 374.5 456 c 128,-1,64
 354 473 354 473 325 491 c 1,65,-1
 358 552 l 1,66,67
 389 536 389 536 414.5 527 c 128,-1,68
 440 518 440 518 463.5 512 c 128,-1,69
 487 506 487 506 511 497 c 128,-1,70
 535 488 535 488 563 472 c 1,71,-1
 496 357 l 1,60,61
EndSplineSet
EndChar

StartChar: dagger
Encoding: 134 8224 172
Width: 624
GlyphClass: 1
Flags: W
LayerCount: 2
Fore
SplineSet
280 457 m 1,0,-1
 86 389 l 1,1,-1
 41 389 l 1,2,-1
 41 565 l 1,3,-1
 86 565 l 1,4,-1
 280 513 l 1,5,-1
 344 513 l 1,6,-1
 538 565 l 1,7,-1
 583 565 l 1,8,-1
 583 389 l 1,9,-1
 538 389 l 1,10,-1
 344 457 l 1,11,-1
 280 457 l 1,0,-1
437 710 m 1,12,-1
 437 664 l 2,13,14
 437 651 437 651 429 637 c 128,-1,15
 421 623 421 623 409 607.5 c 128,-1,16
 397 592 397 592 384.5 573.5 c 128,-1,17
 372 555 372 555 364 533 c 128,-1,18
 356 511 356 511 356 485 c 0,19,20
 356 445 356 445 366 417.5 c 128,-1,21
 376 390 376 390 390 371.5 c 128,-1,22
 404 353 404 353 417.5 341 c 128,-1,23
 431 329 431 329 438 322 c 1,24,-1
 438 295 l 2,25,26
 438 280 438 280 428.5 255.5 c 128,-1,27
 419 231 419 231 405 192.5 c 128,-1,28
 391 154 391 154 377 96 c 128,-1,29
 363 38 363 38 353 -46 c 1,30,-1
 271 -46 l 1,31,32
 261 38 261 38 247 96 c 128,-1,33
 233 154 233 154 219 192.5 c 128,-1,34
 205 231 205 231 195.5 255.5 c 128,-1,35
 186 280 186 280 186 295 c 2,36,-1
 186 322 l 1,37,38
 193 329 193 329 206.5 341 c 128,-1,39
 220 353 220 353 234 371.5 c 128,-1,40
 248 390 248 390 258 417.5 c 128,-1,41
 268 445 268 445 268 485 c 0,42,43
 268 511 268 511 260 533 c 128,-1,44
 252 555 252 555 239.5 573.5 c 128,-1,45
 227 592 227 592 215 607.5 c 128,-1,46
 203 623 203 623 195 637 c 128,-1,47
 187 651 187 651 187 664 c 2,48,-1
 187 710 l 1,49,-1
 437 710 l 1,12,-1
EndSplineSet
EndChar

StartChar: daggerdbl
Encoding: 135 8225 173
Width: 624
GlyphClass: 1
Flags: W
LayerCount: 2
Fore
SplineSet
344 528 m 1,0,-1
 538 581 l 1,1,-1
 583 581 l 1,2,-1
 583 420 l 1,3,-1
 538 420 l 1,4,-1
 344 471 l 1,5,-1
 280 471 l 1,6,-1
 86 420 l 1,7,-1
 41 420 l 1,8,-1
 41 581 l 1,9,-1
 86 581 l 1,10,-1
 280 528 l 1,11,-1
 344 528 l 1,0,-1
437 710 m 1,12,-1
 437 664 l 2,13,14
 437 651 437 651 429 638.5 c 128,-1,15
 421 626 421 626 409 612.5 c 128,-1,16
 397 599 397 599 384.5 583 c 128,-1,17
 372 567 372 567 364 547 c 128,-1,18
 356 527 356 527 356 500 c 0,19,20
 356 464 356 464 365.5 439.5 c 128,-1,21
 375 415 375 415 389 399 c 128,-1,22
 403 383 403 383 415.5 373.5 c 128,-1,23
 428 364 428 364 435 358 c 1,24,-1
 435 305 l 1,25,26
 428 299 428 299 415.5 289.5 c 128,-1,27
 403 280 403 280 389 264.5 c 128,-1,28
 375 249 375 249 365.5 224.5 c 128,-1,29
 356 200 356 200 356 164 c 0,30,31
 356 137 356 137 364 117 c 128,-1,32
 372 97 372 97 384.5 80.5 c 128,-1,33
 397 64 397 64 409 51 c 128,-1,34
 421 38 421 38 429 25.5 c 128,-1,35
 437 13 437 13 437 0 c 2,36,-1
 437 -46 l 1,37,-1
 187 -46 l 1,38,-1
 187 0 l 2,39,40
 187 13 187 13 195 25.5 c 128,-1,41
 203 38 203 38 215 51 c 128,-1,42
 227 64 227 64 239.5 80.5 c 128,-1,43
 252 97 252 97 260 117 c 128,-1,44
 268 137 268 137 268 164 c 0,45,46
 268 200 268 200 258.5 224.5 c 128,-1,47
 249 249 249 249 235 264.5 c 128,-1,48
 221 280 221 280 208.5 289.5 c 128,-1,49
 196 299 196 299 189 305 c 1,50,-1
 189 358 l 1,51,52
 196 364 196 364 208.5 373.5 c 128,-1,53
 221 383 221 383 235 399 c 128,-1,54
 249 415 249 415 258.5 439.5 c 128,-1,55
 268 464 268 464 268 500 c 0,56,57
 268 527 268 527 260 547 c 128,-1,58
 252 567 252 567 239.5 583 c 128,-1,59
 227 599 227 599 215 612.5 c 128,-1,60
 203 626 203 626 195 638.5 c 128,-1,61
 187 651 187 651 187 664 c 2,62,-1
 187 710 l 1,63,-1
 437 710 l 1,12,-1
344 193 m 1,64,-1
 538 244 l 1,65,-1
 583 244 l 1,66,-1
 583 83 l 1,67,-1
 538 83 l 1,68,-1
 344 136 l 1,69,-1
 280 136 l 1,70,-1
 86 83 l 1,71,-1
 41 83 l 1,72,-1
 41 244 l 1,73,-1
 86 244 l 1,74,-1
 280 193 l 1,75,-1
 344 193 l 1,64,-1
EndSplineSet
EndChar

StartChar: period
Encoding: 46 46 174
Width: 394
GlyphClass: 1
Flags: W
LayerCount: 2
Fore
SplineSet
197 -20 m 0,0,1
 144 -20 144 -20 111.5 8 c 128,-1,2
 79 36 79 36 79 89 c 0,3,4
 79 143 79 143 111.5 171 c 128,-1,5
 144 199 144 199 197 199 c 0,6,7
 251 199 251 199 283 171 c 128,-1,8
 315 143 315 143 315 89 c 0,9,10
 315 36 315 36 283 8 c 128,-1,11
 251 -20 251 -20 197 -20 c 0,0,1
EndSplineSet
Substitution2: "Single Substitution lookup 59 subtable" period.tab
EndChar

StartChar: comma
Encoding: 44 44 175
Width: 421
GlyphClass: 1
Flags: W
LayerCount: 2
Fore
SplineSet
150 -218 m 1,0,-1
 63 -121 l 1,1,2
 132 -109 132 -109 173 -94.5 c 128,-1,3
 214 -80 214 -80 232.5 -53.5 c 128,-1,4
 251 -27 251 -27 251 21 c 0,5,6
 251 41 251 41 253 50 c 128,-1,7
 255 59 255 59 259.5 59 c 128,-1,8
 264 59 264 59 269.5 52.5 c 128,-1,9
 275 46 275 46 282 35 c 1,10,11
 271 22 271 22 255 13.5 c 128,-1,12
 239 5 239 5 220.5 1.5 c 128,-1,13
 202 -2 202 -2 183 -2 c 0,14,15
 137 -2 137 -2 109.5 20 c 128,-1,16
 82 42 82 42 82 89 c 0,17,18
 82 138 82 138 115 166.5 c 128,-1,19
 148 195 148 195 209 195 c 0,20,21
 253 195 253 195 284 180.5 c 128,-1,22
 315 166 315 166 331.5 133 c 128,-1,23
 348 100 348 100 348 43 c 0,24,25
 348 -33 348 -33 325 -82.5 c 128,-1,26
 302 -132 302 -132 258 -164 c 128,-1,27
 214 -196 214 -196 150 -218 c 1,0,-1
EndSplineSet
Substitution2: "Single Substitution lookup 59 subtable" comma.tab
EndChar

StartChar: exclam
Encoding: 33 33 179
Width: 402
GlyphClass: 1
Flags: W
LayerCount: 2
Fore
SplineSet
312 761 m 1,0,-1
 91 761 l 1,1,2
 91 704 91 704 95.5 656.5 c 128,-1,3
 100 609 100 609 107 565.5 c 128,-1,4
 114 522 114 522 121 478 c 128,-1,5
 128 434 128 434 132.5 384 c 128,-1,6
 137 334 137 334 137 273 c 1,7,-1
 265 273 l 1,8,9
 265 334 265 334 269.5 384 c 128,-1,10
 274 434 274 434 281.5 478.5 c 128,-1,11
 289 523 289 523 296 566.5 c 128,-1,12
 303 610 303 610 307.5 657 c 128,-1,13
 312 704 312 704 312 761 c 1,0,-1
201 -20 m 0,14,15
 148 -20 148 -20 115.5 8 c 128,-1,16
 83 36 83 36 83 89 c 0,17,18
 83 143 83 143 115.5 171 c 128,-1,19
 148 199 148 199 201 199 c 0,20,21
 255 199 255 199 287 171 c 128,-1,22
 319 143 319 143 319 89 c 0,23,24
 319 36 319 36 287 8 c 128,-1,25
 255 -20 255 -20 201 -20 c 0,14,15
EndSplineSet
EndChar

StartChar: exclamdown
Encoding: 161 161 180
Width: 378
GlyphClass: 1
Flags: W
LayerCount: 2
Fore
SplineSet
300 -179 m 1,0,1
 300 -122 300 -122 295.5 -75 c 128,-1,2
 291 -28 291 -28 284 15.5 c 128,-1,3
 277 59 277 59 269.5 103.5 c 128,-1,4
 262 148 262 148 257.5 198 c 128,-1,5
 253 248 253 248 253 309 c 1,6,-1
 125 309 l 1,7,8
 125 248 125 248 120.5 198 c 128,-1,9
 116 148 116 148 109 103.5 c 128,-1,10
 102 59 102 59 95 15.5 c 128,-1,11
 88 -28 88 -28 83.5 -75 c 128,-1,12
 79 -122 79 -122 79 -179 c 1,13,-1
 300 -179 l 1,0,1
189 602 m 0,14,15
 243 602 243 602 275 574 c 128,-1,16
 307 546 307 546 307 492 c 0,17,18
 307 439 307 439 275 411 c 128,-1,19
 243 383 243 383 189 383 c 0,20,21
 136 383 136 383 103.5 411 c 128,-1,22
 71 439 71 439 71 492 c 0,23,24
 71 546 71 546 103.5 574 c 128,-1,25
 136 602 136 602 189 602 c 0,14,15
EndSplineSet
EndChar

StartChar: question
Encoding: 63 63 181
Width: 638
GlyphClass: 1
Flags: W
LayerCount: 2
Fore
SplineSet
211 434 m 1,0,-1
 211 269 l 1,1,-1
 368 269 l 1,2,-1
 368 384 l 1,3,4
 412 391 412 391 451 404 c 128,-1,5
 490 417 490 417 520 440 c 128,-1,6
 550 463 550 463 567.5 498 c 128,-1,7
 585 533 585 533 585 584 c 0,8,9
 585 650 585 650 552.5 689 c 128,-1,10
 520 728 520 728 459 745 c 128,-1,11
 398 762 398 762 310 762 c 0,12,13
 252 762 252 762 201.5 751.5 c 128,-1,14
 151 741 151 741 114.5 727.5 c 128,-1,15
 78 714 78 714 62 705 c 1,16,-1
 62 541 l 1,17,-1
 211 541 l 1,18,-1
 211 698 l 1,19,20
 194 697 194 697 182.5 687.5 c 128,-1,21
 171 678 171 678 164 665.5 c 128,-1,22
 157 653 157 653 154 641.5 c 128,-1,23
 151 630 151 630 152 624 c 1,24,25
 165 633 165 633 182 641 c 128,-1,26
 199 649 199 649 226 654.5 c 128,-1,27
 253 660 253 660 290 660 c 0,28,29
 329 660 329 660 354 652 c 128,-1,30
 379 644 379 644 391.5 623 c 128,-1,31
 404 602 404 602 404 564 c 0,32,33
 404 524 404 524 389 500 c 128,-1,34
 374 476 374 476 348.5 463.5 c 128,-1,35
 323 451 323 451 287.5 445 c 128,-1,36
 252 439 252 439 211 434 c 1,0,-1
291 -21 m 256,37,38
 238 -21 238 -21 205.5 7 c 128,-1,39
 173 35 173 35 173 88 c 0,40,41
 173 142 173 142 205.5 170 c 128,-1,42
 238 198 238 198 291 198 c 256,43,44
 344 198 344 198 376.5 170 c 128,-1,45
 409 142 409 142 409 88 c 0,46,47
 409 35 409 35 376.5 7 c 128,-1,48
 344 -21 344 -21 291 -21 c 256,37,38
EndSplineSet
EndChar

StartChar: questiondown
Encoding: 191 191 182
Width: 591
GlyphClass: 1
Flags: W
LayerCount: 2
Fore
SplineSet
420 147 m 1,0,-1
 420 312 l 1,1,-1
 263 312 l 1,2,-1
 263 197 l 1,3,4
 219 190 219 190 180 177 c 128,-1,5
 141 164 141 164 111 141 c 128,-1,6
 81 118 81 118 63.5 83 c 128,-1,7
 46 48 46 48 46 -3 c 0,8,9
 46 -68 46 -68 78.5 -107.5 c 128,-1,10
 111 -147 111 -147 172.5 -164 c 128,-1,11
 234 -181 234 -181 321 -181 c 0,12,13
 379 -181 379 -181 429.5 -170.5 c 128,-1,14
 480 -160 480 -160 516.5 -146 c 128,-1,15
 553 -132 553 -132 569 -124 c 1,16,-1
 569 40 l 1,17,-1
 420 40 l 1,18,-1
 420 -117 l 1,19,20
 437 -116 437 -116 448.5 -107 c 128,-1,21
 460 -98 460 -98 467 -85.5 c 128,-1,22
 474 -73 474 -73 477 -61 c 128,-1,23
 480 -49 480 -49 479 -43 c 1,24,25
 467 -51 467 -51 449.5 -59.5 c 128,-1,26
 432 -68 432 -68 405.5 -73.5 c 128,-1,27
 379 -79 379 -79 341 -79 c 0,28,29
 302 -79 302 -79 277 -71 c 128,-1,30
 252 -63 252 -63 239.5 -42 c 128,-1,31
 227 -21 227 -21 227 17 c 0,32,33
 227 57 227 57 242 81 c 128,-1,34
 257 105 257 105 282.5 117.5 c 128,-1,35
 308 130 308 130 343.5 136 c 128,-1,36
 379 142 379 142 420 147 c 1,0,-1
341 602 m 0,37,38
 394 602 394 602 426 574 c 128,-1,39
 458 546 458 546 458 492 c 0,40,41
 458 439 458 439 425.5 411 c 128,-1,42
 393 383 393 383 341 383 c 0,43,44
 287 383 287 383 254.5 411 c 128,-1,45
 222 439 222 439 222 493 c 0,46,47
 222 546 222 546 254.5 574 c 128,-1,48
 287 602 287 602 341 602 c 0,37,38
EndSplineSet
EndChar

StartChar: slash
Encoding: 47 47 183
Width: 595
GlyphClass: 1
Flags: W
LayerCount: 2
Fore
SplineSet
592 780 m 1,0,-1
 463 780 l 1,1,-1
 3 -158 l 1,2,-1
 133 -158 l 1,3,-1
 592 780 l 1,0,-1
EndSplineSet
Substitution2: "Single Substitution lookup 15 subtable" fraction
EndChar

StartChar: backslash
Encoding: 92 92 184
Width: 595
GlyphClass: 1
Flags: W
LayerCount: 2
Fore
SplineSet
3 780 m 1,0,-1
 463 -158 l 1,1,-1
 592 -158 l 1,2,-1
 133 780 l 1,3,-1
 3 780 l 1,0,-1
EndSplineSet
EndChar

StartChar: fraction
Encoding: 818 8260 185
Width: 282
GlyphClass: 1
Flags: W
LayerCount: 2
Fore
SplineSet
392 710 m 1,0,-1
 492 710 l 1,1,-1
 -107 0 l 1,2,-1
 -206 0 l 1,3,-1
 392 710 l 1,0,-1
EndSplineSet
EndChar

StartChar: bar
Encoding: 124 124 186
Width: 334
GlyphClass: 1
Flags: W
LayerCount: 2
Fore
SplineSet
104 762 m 1,0,-1
 230 762 l 1,1,-1
 230 -158 l 1,2,-1
 104 -158 l 1,3,-1
 104 762 l 1,0,-1
EndSplineSet
EndChar

StartChar: brokenbar
Encoding: 166 166 187
Width: 334
GlyphClass: 1
Flags: W
LayerCount: 2
Fore
SplineSet
104 762 m 1,0,-1
 230 762 l 1,1,-1
 230 395 l 1,2,-1
 104 395 l 1,3,-1
 104 762 l 1,0,-1
104 209 m 1,4,-1
 230 209 l 1,5,-1
 230 -158 l 1,6,-1
 104 -158 l 1,7,-1
 104 209 l 1,4,-1
EndSplineSet
EndChar

StartChar: at
Encoding: 64 64 188
Width: 1020
GlyphClass: 1
Flags: W
LayerCount: 2
Fore
SplineSet
500 -75 m 0,0,1
 556 -75 556 -75 605 -67 c 128,-1,2
 654 -59 654 -59 695 -47.5 c 128,-1,3
 736 -36 736 -36 764 -25 c 1,4,-1
 792 -108 l 1,5,6
 760 -122 760 -122 712.5 -134.5 c 128,-1,7
 665 -147 665 -147 610.5 -155 c 128,-1,8
 556 -163 556 -163 500 -163 c 0,9,10
 396 -163 396 -163 315 -138.5 c 128,-1,11
 234 -114 234 -114 177.5 -64.5 c 128,-1,12
 121 -15 121 -15 91.5 59.5 c 128,-1,13
 62 134 62 134 62 234 c 0,14,15
 62 340 62 340 99.5 424.5 c 128,-1,16
 137 509 137 509 205 567.5 c 128,-1,17
 273 626 273 626 365 657 c 128,-1,18
 457 688 457 688 566 688 c 0,19,20
 666 688 666 688 740.5 665.5 c 128,-1,21
 815 643 815 643 865 600 c 128,-1,22
 915 557 915 557 940 494.5 c 128,-1,23
 965 432 965 432 965 351 c 0,24,25
 965 277 965 277 948.5 222 c 128,-1,26
 932 167 932 167 901.5 130.5 c 128,-1,27
 871 94 871 94 829.5 76.5 c 128,-1,28
 788 59 788 59 736 59 c 0,29,30
 702 59 702 59 675.5 66.5 c 128,-1,31
 649 74 649 74 629 87.5 c 128,-1,32
 609 101 609 101 593 119 c 128,-1,33
 577 137 577 137 563 159 c 1,34,-1
 557 155 l 1,35,-1
 601 385 l 1,36,-1
 598 376 l 1,37,-1
 661 472 l 1,38,-1
 748 472 l 1,39,-1
 697 210 l 2,40,41
 693 187 693 187 694.5 172.5 c 128,-1,42
 696 158 696 158 707.5 151.5 c 128,-1,43
 719 145 719 145 742 145 c 0,44,45
 783 145 783 145 808.5 161.5 c 128,-1,46
 834 178 834 178 846 222.5 c 128,-1,47
 858 267 858 267 858 351 c 0,48,49
 858 437 858 437 827.5 491.5 c 128,-1,50
 797 546 797 546 732.5 572 c 128,-1,51
 668 598 668 598 566 598 c 0,52,53
 478 598 478 598 406 573.5 c 128,-1,54
 334 549 334 549 281.5 502 c 128,-1,55
 229 455 229 455 201 387.5 c 128,-1,56
 173 320 173 320 173 234 c 0,57,58
 173 158 173 158 194.5 100 c 128,-1,59
 216 42 216 42 258 3 c 128,-1,60
 300 -36 300 -36 361 -55.5 c 128,-1,61
 422 -75 422 -75 500 -75 c 0,0,1
443 53 m 0,62,63
 401 53 401 53 367.5 68.5 c 128,-1,64
 334 84 334 84 314.5 118 c 128,-1,65
 295 152 295 152 295 208 c 0,66,67
 295 263 295 263 310.5 311.5 c 128,-1,68
 326 360 326 360 354.5 397.5 c 128,-1,69
 383 435 383 435 422.5 456.5 c 128,-1,70
 462 478 462 478 512 478 c 0,71,72
 555 478 555 478 579.5 460 c 128,-1,73
 604 442 604 442 617 410 c 128,-1,74
 630 378 630 378 637 335 c 1,75,-1
 611 278 l 1,76,77
 603 318 603 318 595 343 c 128,-1,78
 587 368 587 368 573 380 c 128,-1,79
 559 392 559 392 535 392 c 0,80,81
 506 392 506 392 485.5 378 c 128,-1,82
 465 364 465 364 453 338.5 c 128,-1,83
 441 313 441 313 435.5 277.5 c 128,-1,84
 430 242 430 242 430 199 c 0,85,86
 430 172 430 172 434 159 c 128,-1,87
 438 146 438 146 449.5 142.5 c 128,-1,88
 461 139 461 139 482 139 c 0,89,90
 502 139 502 139 517 146 c 128,-1,91
 532 153 532 153 545 169 c 128,-1,92
 558 185 558 185 572 210 c 1,93,-1
 605 184 l 1,94,95
 578 136 578 136 555.5 107.5 c 128,-1,96
 533 79 533 79 508 66 c 128,-1,97
 483 53 483 53 443 53 c 0,62,63
EndSplineSet
EndChar

StartChar: ampersand
Encoding: 38 38 189
Width: 841
GlyphClass: 1
Flags: W
LayerCount: 2
Fore
SplineSet
740 282 m 0,0,1
 733 246 733 246 712.5 206 c 128,-1,2
 692 166 692 166 657 128 c 128,-1,3
 622 90 622 90 574 58.5 c 128,-1,4
 526 27 526 27 465 8.5 c 128,-1,5
 404 -10 404 -10 330 -10 c 0,6,7
 240 -10 240 -10 176 12 c 128,-1,8
 112 34 112 34 78.5 81 c 128,-1,9
 45 128 45 128 45 206 c 0,10,11
 45 260 45 260 63 298.5 c 128,-1,12
 81 337 81 337 113 362 c 128,-1,13
 145 387 145 387 188 403 c 128,-1,14
 231 419 231 419 280 429 c 1,15,-1
 293 365 l 1,16,17
 268 354 268 354 252 339 c 128,-1,18
 236 324 236 324 228.5 296.5 c 128,-1,19
 221 269 221 269 221 220 c 0,20,21
 221 170 221 170 237.5 141 c 128,-1,22
 254 112 254 112 288 100 c 128,-1,23
 322 88 322 88 373 88 c 0,24,25
 420 88 420 88 462 100.5 c 128,-1,26
 504 113 504 113 539 134.5 c 128,-1,27
 574 156 574 156 599.5 184.5 c 128,-1,28
 625 213 625 213 639 245.5 c 128,-1,29
 653 278 653 278 653 311 c 0,30,31
 653 315 653 315 645.5 316.5 c 128,-1,32
 638 318 638 318 626.5 319.5 c 128,-1,33
 615 321 615 321 602 321 c 2,34,-1
 593 321 l 1,35,-1
 593 422 l 1,36,-1
 816 422 l 1,37,-1
 816 321 l 1,38,-1
 809 321 l 2,39,40
 786 321 786 321 772 318 c 128,-1,41
 758 315 758 315 750.5 307 c 128,-1,42
 743 299 743 299 740 282 c 0,0,1
811 0 m 1,43,-1
 614 0 l 1,44,45
 546 63 546 63 482.5 120 c 128,-1,46
 419 177 419 177 364.5 231 c 128,-1,47
 310 285 310 285 269.5 336.5 c 128,-1,48
 229 388 229 388 206.5 438.5 c 128,-1,49
 184 489 184 489 184 539 c 0,50,51
 184 601 184 601 213.5 640.5 c 128,-1,52
 243 680 243 680 296 699 c 128,-1,53
 349 718 349 718 420 718 c 0,54,55
 526 718 526 718 579 682.5 c 128,-1,56
 632 647 632 647 632 580 c 0,57,58
 632 535 632 535 611.5 503 c 128,-1,59
 591 471 591 471 553.5 449 c 128,-1,60
 516 427 516 427 464.5 410 c 128,-1,61
 413 393 413 393 351 378 c 1,62,-1
 328 436 l 1,63,64
 374 449 374 449 404.5 459.5 c 128,-1,65
 435 470 435 470 453 482.5 c 128,-1,66
 471 495 471 495 479 513 c 128,-1,67
 487 531 487 531 487 560 c 0,68,69
 487 599 487 599 472 614 c 128,-1,70
 457 629 457 629 420 629 c 0,71,72
 392 629 392 629 375 622 c 128,-1,73
 358 615 358 615 350 598.5 c 128,-1,74
 342 582 342 582 342 552 c 0,75,76
 342 516 342 516 356.5 483.5 c 128,-1,77
 371 451 371 451 400.5 416.5 c 128,-1,78
 430 382 430 382 473.5 342.5 c 128,-1,79
 517 303 517 303 573.5 254 c 128,-1,80
 630 205 630 205 700 142 c 0,81,82
 716 128 716 128 728 119.5 c 128,-1,83
 740 111 740 111 752 107.5 c 128,-1,84
 764 104 764 104 778 104 c 2,85,-1
 811 104 l 1,86,-1
 811 0 l 1,43,-1
EndSplineSet
EndChar

StartChar: section
Encoding: 167 167 190
Width: 644
GlyphClass: 1
Flags: W
LayerCount: 2
Fore
SplineSet
261 420 m 1,0,-1
 277 359 l 1,1,2
 239 355 239 355 218 346 c 128,-1,3
 197 337 197 337 188 322 c 128,-1,4
 179 307 179 307 179 285 c 0,5,6
 179 260 179 260 189.5 243.5 c 128,-1,7
 200 227 200 227 221 215 c 128,-1,8
 242 203 242 203 271 193.5 c 128,-1,9
 300 184 300 184 337 172 c 0,10,11
 375 159 375 159 410.5 142 c 128,-1,12
 446 125 446 125 474.5 100 c 128,-1,13
 503 75 503 75 519.5 41.5 c 128,-1,14
 536 8 536 8 536 -37 c 0,15,16
 536 -99 536 -99 507 -143.5 c 128,-1,17
 478 -188 478 -188 423.5 -212 c 128,-1,18
 369 -236 369 -236 291 -236 c 0,19,20
 232 -236 232 -236 187 -227 c 128,-1,21
 142 -218 142 -218 110 -205.5 c 128,-1,22
 78 -193 78 -193 56 -182 c 1,23,-1
 56 -33 l 1,24,-1
 188 -33 l 1,25,-1
 188 -172 l 1,26,27
 177 -163 177 -163 165.5 -151.5 c 128,-1,28
 154 -140 154 -140 145.5 -129.5 c 128,-1,29
 137 -119 137 -119 133.5 -113 c 128,-1,30
 130 -107 130 -107 134 -108 c 0,31,32
 153 -118 153 -118 174.5 -124.5 c 128,-1,33
 196 -131 196 -131 223 -135 c 128,-1,34
 250 -139 250 -139 284 -139 c 0,35,36
 322 -139 322 -139 345 -132 c 128,-1,37
 368 -125 368 -125 378.5 -109.5 c 128,-1,38
 389 -94 389 -94 389 -66 c 0,39,40
 389 -41 389 -41 377.5 -25 c 128,-1,41
 366 -9 366 -9 345.5 3 c 128,-1,42
 325 15 325 15 296.5 25.5 c 128,-1,43
 268 36 268 36 233 48 c 0,44,45
 193 61 193 61 157 77 c 128,-1,46
 121 93 121 93 93 116 c 128,-1,47
 65 139 65 139 48.5 172.5 c 128,-1,48
 32 206 32 206 32 254 c 0,49,50
 32 296 32 296 48.5 327.5 c 128,-1,51
 65 359 65 359 95 379.5 c 128,-1,52
 125 400 125 400 167.5 410 c 128,-1,53
 210 420 210 420 261 420 c 1,0,-1
368 77 m 1,54,-1
 348 153 l 1,55,56
 389 160 389 160 413 167 c 128,-1,57
 437 174 437 174 448.5 185.5 c 128,-1,58
 460 197 460 197 460 217 c 0,59,60
 460 240 460 240 447.5 255.5 c 128,-1,61
 435 271 435 271 412.5 283 c 128,-1,62
 390 295 390 295 360 306 c 128,-1,63
 330 317 330 317 296 330 c 0,64,65
 261 344 261 344 227 362.5 c 128,-1,66
 193 381 193 381 164.5 406 c 128,-1,67
 136 431 136 431 119.5 465 c 128,-1,68
 103 499 103 499 103 545 c 0,69,70
 103 604 103 604 131 643 c 128,-1,71
 159 682 159 682 214.5 701 c 128,-1,72
 270 720 270 720 350 720 c 0,73,74
 400 720 400 720 439 714 c 128,-1,75
 478 708 478 708 505.5 699.5 c 128,-1,76
 533 691 533 691 546 684 c 1,77,-1
 546 529 l 1,78,-1
 420 529 l 1,79,-1
 420 665 l 1,80,81
 431 664 431 664 442 653.5 c 128,-1,82
 453 643 453 643 462.5 629.5 c 128,-1,83
 472 616 472 616 476 606 c 128,-1,84
 480 596 480 596 478 596 c 0,85,86
 464 604 464 604 447.5 611 c 128,-1,87
 431 618 431 618 408.5 623 c 128,-1,88
 386 628 386 628 354 628 c 0,89,90
 312 628 312 628 288.5 622 c 128,-1,91
 265 616 265 616 256.5 603 c 128,-1,92
 248 590 248 590 248 566 c 256,93,94
 248 542 248 542 259.5 525.5 c 128,-1,95
 271 509 271 509 292 498 c 128,-1,96
 313 487 313 487 340 477 c 128,-1,97
 367 467 367 467 399 455 c 0,98,99
 438 440 438 440 474.5 423.5 c 128,-1,100
 511 407 511 407 540.5 385.5 c 128,-1,101
 570 364 570 364 587.5 333 c 128,-1,102
 605 302 605 302 605 258 c 0,103,104
 605 202 605 202 579 164.5 c 128,-1,105
 553 127 553 127 500 105.5 c 128,-1,106
 447 84 447 84 368 77 c 1,54,-1
EndSplineSet
EndChar

StartChar: paragraph
Encoding: 182 182 191
Width: 668
GlyphClass: 1
Flags: W
LayerCount: 2
Fore
SplineSet
364 0 m 1,0,-1
 364 710 l 1,1,-1
 250 710 l 2,2,3
 183 710 183 710 135 686 c 128,-1,4
 87 662 87 662 61.5 616 c 128,-1,5
 36 570 36 570 36 509 c 0,6,7
 36 446 36 446 62.5 398 c 128,-1,8
 89 350 89 350 136 323.5 c 128,-1,9
 183 297 183 297 246 297 c 2,10,-1
 256 297 l 1,11,-1
 256 0 l 1,12,-1
 364 0 l 1,0,-1
481 710 m 1,13,-1
 294 710 l 1,14,-1
 294 606 l 1,15,-1
 481 606 l 1,16,-1
 481 710 l 1,13,-1
562 0 m 1,17,-1
 562 567 l 2,18,19
 562 582 562 582 569.5 589.5 c 128,-1,20
 577 597 577 597 590.5 600 c 128,-1,21
 604 603 604 603 622 603 c 2,22,-1
 633 603 l 1,23,-1
 633 710 l 1,24,-1
 453 710 l 1,25,-1
 453 0 l 1,26,-1
 562 0 l 1,17,-1
EndSplineSet
EndChar

StartChar: bullet
Encoding: 149 8226 193
Width: 487
GlyphClass: 1
Flags: W
LayerCount: 2
Fore
SplineSet
76 343 m 0,0,1
 76 390 76 390 97.5 426 c 128,-1,2
 119 462 119 462 157 481.5 c 128,-1,3
 195 501 195 501 244 501 c 256,4,5
 293 501 293 501 330.5 481.5 c 128,-1,6
 368 462 368 462 389.5 426 c 128,-1,7
 411 390 411 390 411 343 c 256,8,9
 411 296 411 296 389.5 260 c 128,-1,10
 368 224 368 224 330 204 c 128,-1,11
 292 184 292 184 244 184 c 0,12,13
 195 184 195 184 157 204 c 128,-1,14
 119 224 119 224 97.5 260.5 c 128,-1,15
 76 297 76 297 76 343 c 0,0,1
EndSplineSet
EndChar

StartChar: plus
Encoding: 43 43 194
Width: 560
GlyphClass: 1
Flags: W
LayerCount: 2
Fore
SplineSet
212 578 m 1,0,-1
 348 578 l 1,1,-1
 348 92 l 1,2,-1
 212 92 l 1,3,-1
 212 578 l 1,0,-1
515 400 m 1,4,-1
 515 270 l 1,5,-1
 45 270 l 1,6,-1
 45 400 l 1,7,-1
 515 400 l 1,4,-1
EndSplineSet
Substitution2: "'subs' Subscript lookup 53 subtable" plus.sub
Substitution2: "'sups' Superscript lookup 52 subtable" plus.sup
EndChar

StartChar: minus
Encoding: 823 8722 195
Width: 560
GlyphClass: 1
Flags: W
LayerCount: 2
Fore
SplineSet
506 394 m 1,0,-1
 506 282 l 1,1,-1
 54 282 l 1,2,-1
 54 394 l 1,3,-1
 506 394 l 1,0,-1
EndSplineSet
Substitution2: "'subs' Subscript lookup 53 subtable" minus.sub
Substitution2: "'sups' Superscript lookup 52 subtable" minus.sup
EndChar

StartChar: divide
Encoding: 247 247 197
Width: 560
GlyphClass: 1
Flags: W
LayerCount: 2
Fore
SplineSet
389 600 m 0,0,1
 389 552 389 552 359 525.5 c 128,-1,2
 329 499 329 499 280 499 c 256,3,4
 231 499 231 499 201 525.5 c 128,-1,5
 171 552 171 552 171 600 c 0,6,7
 171 650 171 650 201 675.5 c 128,-1,8
 231 701 231 701 280 701 c 256,9,10
 329 701 329 701 359 675.5 c 128,-1,11
 389 650 389 650 389 600 c 0,0,1
389 115 m 0,12,13
 389 67 389 67 359 40.5 c 128,-1,14
 329 14 329 14 280 14 c 256,15,16
 231 14 231 14 201 40 c 128,-1,17
 171 66 171 66 171 115 c 0,18,19
 171 165 171 165 201 190.5 c 128,-1,20
 231 216 231 216 280 216 c 256,21,22
 329 216 329 216 359 190 c 128,-1,23
 389 164 389 164 389 115 c 0,12,13
515 423 m 1,24,-1
 515 293 l 1,25,-1
 45 293 l 1,26,-1
 45 423 l 1,27,-1
 515 423 l 1,24,-1
EndSplineSet
EndChar

StartChar: multiply
Encoding: 215 215 198
Width: 560
GlyphClass: 1
Flags: W
LayerCount: 2
Fore
SplineSet
56 213 m 1,0,-1
 407 566 l 1,1,-1
 502 469 l 1,2,-1
 151 116 l 1,3,-1
 56 213 l 1,0,-1
54 469 m 1,4,-1
 151 566 l 1,5,-1
 502 213 l 1,6,-1
 405 116 l 1,7,-1
 54 469 l 1,4,-1
EndSplineSet
EndChar

StartChar: less
Encoding: 60 60 200
Width: 560
GlyphClass: 1
Flags: W
LayerCount: 2
Fore
SplineSet
481 600 m 1,0,-1
 481 461 l 1,1,-1
 146 303 l 1,2,-1
 79 321 l 1,3,-1
 79 401 l 1,4,-1
 481 600 l 1,0,-1
481 216 m 1,5,-1
 481 70 l 1,6,-1
 79 269 l 1,7,-1
 79 353 l 1,8,-1
 146 374 l 1,9,-1
 481 216 l 1,5,-1
EndSplineSet
EndChar

StartChar: greater
Encoding: 62 62 201
Width: 560
GlyphClass: 1
Flags: W
LayerCount: 2
Fore
SplineSet
79 70 m 1,0,-1
 79 209 l 1,1,-1
 414 367 l 1,2,-1
 481 349 l 1,3,-1
 481 269 l 1,4,-1
 79 70 l 1,0,-1
79 454 m 1,5,-1
 79 600 l 1,6,-1
 481 401 l 1,7,-1
 481 317 l 1,8,-1
 414 296 l 1,9,-1
 79 454 l 1,5,-1
EndSplineSet
EndChar

StartChar: logicalnot
Encoding: 172 172 202
Width: 560
GlyphClass: 1
Flags: W
LayerCount: 2
Fore
SplineSet
374 393 m 1,0,-1
 483 316 l 1,1,-1
 57 316 l 1,2,-1
 57 443 l 1,3,-1
 503 443 l 1,4,-1
 503 153 l 1,5,-1
 374 153 l 1,6,-1
 374 393 l 1,0,-1
EndSplineSet
EndChar

StartChar: infinity
Encoding: 836 8734 204
Width: 792
GlyphClass: 1
Flags: W
LayerCount: 2
Fore
SplineSet
222 138 m 0,0,1
 271 138 271 138 307 165.5 c 128,-1,2
 343 193 343 193 366.5 239 c 128,-1,3
 390 285 390 285 401 338 c 1,4,-1
 353 339 l 1,5,6
 342 312 342 312 326 289 c 128,-1,7
 310 266 310 266 286.5 253 c 128,-1,8
 263 240 263 240 228 240 c 0,9,10
 195 240 195 240 172 252.5 c 128,-1,11
 149 265 149 265 137 289.5 c 128,-1,12
 125 314 125 314 125 349 c 0,13,14
 125 402 125 402 148.5 432.5 c 128,-1,15
 172 463 172 463 215 463 c 0,16,17
 248 463 248 463 269 445.5 c 128,-1,18
 290 428 290 428 305.5 397.5 c 128,-1,19
 321 367 321 367 337 326 c 0,20,21
 352 290 352 290 370 256 c 128,-1,22
 388 222 388 222 412.5 195.5 c 128,-1,23
 437 169 437 169 470.5 153.5 c 128,-1,24
 504 138 504 138 548 138 c 0,25,26
 606 138 606 138 649 166 c 128,-1,27
 692 194 692 194 716.5 243 c 128,-1,28
 741 292 741 292 741 354 c 0,29,30
 741 417 741 417 720 464.5 c 128,-1,31
 699 512 699 512 661 539 c 128,-1,32
 623 566 623 566 571 566 c 0,33,34
 522 566 522 566 486 538 c 128,-1,35
 450 510 450 510 426.5 464.5 c 128,-1,36
 403 419 403 419 390 365 c 1,37,-1
 439 364 l 1,38,39
 450 392 450 392 466.5 414.5 c 128,-1,40
 483 437 483 437 506.5 450.5 c 128,-1,41
 530 464 530 464 565 464 c 0,42,43
 599 464 599 464 621.5 451 c 128,-1,44
 644 438 644 438 655.5 414 c 128,-1,45
 667 390 667 390 667 356 c 0,46,47
 667 321 667 321 657 295 c 128,-1,48
 647 269 647 269 627.5 255 c 128,-1,49
 608 241 608 241 580 241 c 0,50,51
 547 241 547 241 526.5 258.5 c 128,-1,52
 506 276 506 276 490 308 c 128,-1,53
 474 340 474 340 455 382 c 0,54,55
 440 415 440 415 422.5 447.5 c 128,-1,56
 405 480 405 480 381 507 c 128,-1,57
 357 534 357 534 324 550 c 128,-1,58
 291 566 291 566 245 566 c 0,59,60
 189 566 189 566 145 538 c 128,-1,61
 101 510 101 510 76 461 c 128,-1,62
 51 412 51 412 51 350 c 256,63,64
 51 288 51 288 72.5 240 c 128,-1,65
 94 192 94 192 132 165 c 128,-1,66
 170 138 170 138 222 138 c 0,0,1
EndSplineSet
EndChar

StartChar: dollar
Encoding: 36 36 205
Width: 560
GlyphClass: 1
Flags: W
LayerCount: 2
Fore
SplineSet
220 802 m 1,0,-1
 346 802 l 1,1,-1
 346 668 l 1,2,-1
 319 651 l 1,3,-1
 319 63 l 1,4,-1
 346 43 l 1,5,-1
 346 -132 l 1,6,-1
 220 -132 l 1,7,-1
 220 44 l 1,8,-1
 247 61 l 1,9,-1
 247 646 l 1,10,-1
 220 661 l 1,11,-1
 220 802 l 1,0,-1
280 92 m 0,12,13
 336 92 336 92 366 103 c 128,-1,14
 396 114 396 114 407.5 136 c 128,-1,15
 419 158 419 158 419 190 c 0,16,17
 419 216 419 216 407 233 c 128,-1,18
 395 250 395 250 373.5 261 c 128,-1,19
 352 272 352 272 321.5 280 c 128,-1,20
 291 288 291 288 253 296 c 0,21,22
 206 306 206 306 167.5 318 c 128,-1,23
 129 330 129 330 101 352 c 128,-1,24
 73 374 73 374 58 410.5 c 128,-1,25
 43 447 43 447 43 506 c 0,26,27
 43 573 43 573 70 616 c 128,-1,28
 97 659 97 659 151.5 680 c 128,-1,29
 206 701 206 701 287 701 c 0,30,31
 342 701 342 701 386.5 694 c 128,-1,32
 431 687 431 687 463 677.5 c 128,-1,33
 495 668 495 668 510 660 c 1,34,-1
 510 507 l 1,35,-1
 397 507 l 1,36,-1
 397 633 l 1,37,38
 409 634 409 634 419 628 c 128,-1,39
 429 622 429 622 436 613.5 c 128,-1,40
 443 605 443 605 446.5 598 c 128,-1,41
 450 591 450 591 451 591 c 1,42,43
 431 601 431 601 405 606.5 c 128,-1,44
 379 612 379 612 349 613.5 c 128,-1,45
 319 615 319 615 287 615 c 0,46,47
 233 615 233 615 204.5 606.5 c 128,-1,48
 176 598 176 598 165.5 580.5 c 128,-1,49
 155 563 155 563 155 537 c 256,50,51
 155 511 155 511 166.5 495.5 c 128,-1,52
 178 480 178 480 198.5 470.5 c 128,-1,53
 219 461 219 461 246 454.5 c 128,-1,54
 273 448 273 448 305 440 c 0,55,56
 356 429 356 429 399 415.5 c 128,-1,57
 442 402 442 402 473 380.5 c 128,-1,58
 504 359 504 359 521 322.5 c 128,-1,59
 538 286 538 286 538 228 c 0,60,61
 538 156 538 156 510.5 106.5 c 128,-1,62
 483 57 483 57 426.5 31.5 c 128,-1,63
 370 6 370 6 282 6 c 0,64,65
 221 6 221 6 170.5 14.5 c 128,-1,66
 120 23 120 23 84.5 35 c 128,-1,67
 49 47 49 47 31 56 c 1,68,-1
 31 218 l 1,69,-1
 150 218 l 1,70,-1
 150 80 l 1,71,72
 139 79 139 79 126.5 84 c 128,-1,73
 114 89 114 89 103.5 98 c 128,-1,74
 93 107 93 107 86 115.5 c 128,-1,75
 79 124 79 124 78 129 c 1,76,77
 96 120 96 120 124.5 111.5 c 128,-1,78
 153 103 153 103 192.5 97.5 c 128,-1,79
 232 92 232 92 280 92 c 0,12,13
EndSplineSet
Substitution2: "'pnum' Proportional Numbers lookup 57 subtable" dollar.proportional
EndChar

StartChar: cent
Encoding: 162 162 206
Width: 560
GlyphClass: 1
Flags: W
LayerCount: 2
Fore
SplineSet
330 83 m 0,0,1
 360 83 360 83 381.5 88 c 128,-1,2
 403 93 403 93 418.5 103.5 c 128,-1,3
 434 114 434 114 445 130.5 c 128,-1,4
 456 147 456 147 467 170 c 1,5,-1
 551 133 l 1,6,7
 533 83 533 83 500.5 50.5 c 128,-1,8
 468 18 468 18 423 3 c 128,-1,9
 378 -12 378 -12 321 -12 c 0,10,11
 230 -12 230 -12 164 20.5 c 128,-1,12
 98 53 98 53 63 118.5 c 128,-1,13
 28 184 28 184 28 284 c 0,14,15
 28 383 28 383 62 448.5 c 128,-1,16
 96 514 96 514 161.5 546.5 c 128,-1,17
 227 579 227 579 321 579 c 0,18,19
 373 579 373 579 420 573.5 c 128,-1,20
 467 568 467 568 501 560 c 128,-1,21
 535 552 535 552 547 546 c 1,22,-1
 547 352 l 1,23,-1
 436 352 l 1,24,-1
 436 521 l 1,25,26
 448 522 448 522 454.5 514 c 128,-1,27
 461 506 461 506 463 494.5 c 128,-1,28
 465 483 465 483 465.5 473.5 c 128,-1,29
 466 464 466 464 468 462 c 1,30,31
 452 470 452 470 432.5 475 c 128,-1,32
 413 480 413 480 388.5 483 c 128,-1,33
 364 486 364 486 332 486 c 0,34,35
 288 486 288 486 258 475 c 128,-1,36
 228 464 228 464 210 440.5 c 128,-1,37
 192 417 192 417 183.5 378.5 c 128,-1,38
 175 340 175 340 175 284 c 0,39,40
 175 226 175 226 183 187 c 128,-1,41
 191 148 191 148 209.5 125 c 128,-1,42
 228 102 228 102 257.5 92.5 c 128,-1,43
 287 83 287 83 330 83 c 0,0,1
258 703 m 1,44,-1
 381 703 l 1,45,-1
 381 555 l 1,46,-1
 358 536 l 1,47,-1
 358 33 l 1,48,-1
 381 20 l 1,49,-1
 381 -166 l 1,50,-1
 258 -166 l 1,51,-1
 258 11 l 1,52,-1
 281 28 l 1,53,-1
 281 534 l 1,54,-1
 258 546 l 1,55,-1
 258 703 l 1,44,-1
EndSplineSet
Substitution2: "'pnum' Proportional Numbers lookup 57 subtable" cent.proportional
EndChar

StartChar: sterling
Encoding: 163 163 207
Width: 560
GlyphClass: 1
Flags: W
LayerCount: 2
Fore
SplineSet
27 -13 m 1,0,-1
 27 130 l 1,1,2
 75 147 75 147 104 166 c 128,-1,3
 133 185 133 185 146 210 c 128,-1,4
 159 235 159 235 159 268 c 0,5,6
 159 310 159 310 149.5 340.5 c 128,-1,7
 140 371 140 371 126 395 c 128,-1,8
 112 419 112 419 97.5 442.5 c 128,-1,9
 83 466 83 466 73.5 491 c 128,-1,10
 64 516 64 516 64 550 c 0,11,12
 64 614 64 614 96.5 655 c 128,-1,13
 129 696 129 696 189 715.5 c 128,-1,14
 249 735 249 735 332 735 c 0,15,16
 373 735 373 735 410.5 729.5 c 128,-1,17
 448 724 448 724 476.5 716 c 128,-1,18
 505 708 505 708 520 698 c 1,19,-1
 520 513 l 1,20,-1
 385 513 l 1,21,-1
 385 680 l 1,22,23
 397 679 397 679 409.5 667 c 128,-1,24
 422 655 422 655 433 638 c 128,-1,25
 444 621 444 621 451 605 c 128,-1,26
 458 589 458 589 460 582 c 1,27,28
 441 602 441 602 410.5 614.5 c 128,-1,29
 380 627 380 627 337 627 c 0,30,31
 303 627 303 627 281 618.5 c 128,-1,32
 259 610 259 610 250 590.5 c 128,-1,33
 241 571 241 571 241 537 c 0,34,35
 241 501 241 501 249.5 473 c 128,-1,36
 258 445 258 445 269.5 417.5 c 128,-1,37
 281 390 281 390 289.5 354.5 c 128,-1,38
 298 319 298 319 298 267 c 0,39,40
 298 221 298 221 280 178.5 c 128,-1,41
 262 136 262 136 227 99.5 c 128,-1,42
 192 63 192 63 141.5 34.5 c 128,-1,43
 91 6 91 6 27 -13 c 1,0,-1
390 -10 m 0,44,45
 356 -10 356 -10 334 -0.5 c 128,-1,46
 312 9 312 9 295 28.5 c 128,-1,47
 278 48 278 48 261 78.5 c 128,-1,48
 244 109 244 109 220 150 c 1,49,50
 213 153 213 153 213.5 165 c 128,-1,51
 214 177 214 177 220 192 c 128,-1,52
 226 207 226 207 236.5 218.5 c 128,-1,53
 247 230 247 230 260 231 c 1,54,55
 281 201 281 201 298 181 c 128,-1,56
 315 161 315 161 335 152 c 128,-1,57
 355 143 355 143 385 143 c 0,58,59
 410 143 410 143 424.5 150.5 c 128,-1,60
 439 158 439 158 448.5 178 c 128,-1,61
 458 198 458 198 467 234 c 1,62,-1
 557 209 l 1,63,64
 548 150 548 150 529 100 c 128,-1,65
 510 50 510 50 477 20 c 128,-1,66
 444 -10 444 -10 390 -10 c 0,44,45
27 413 m 1,67,-1
 442 413 l 1,68,-1
 442 306 l 1,69,-1
 27 306 l 1,70,-1
 27 413 l 1,67,-1
EndSplineSet
Substitution2: "'ss05' Style Set 5 lookup 65 subtable" sterling.alt
Substitution2: "'pnum' Proportional Numbers lookup 57 subtable" sterling.proportional
EndChar

StartChar: currency
Encoding: 164 164 208
Width: 560
GlyphClass: 1
Flags: W
LayerCount: 2
Fore
SplineSet
379 373 m 0,0,1
 379 412 379 412 368 436 c 128,-1,2
 357 460 357 460 335 471.5 c 128,-1,3
 313 483 313 483 280 483 c 0,4,5
 248 483 248 483 225.5 471.5 c 128,-1,6
 203 460 203 460 192 436 c 128,-1,7
 181 412 181 412 181 373 c 0,8,9
 181 335 181 335 192 311 c 128,-1,10
 203 287 203 287 225.5 275.5 c 128,-1,11
 248 264 248 264 280 264 c 0,12,13
 313 264 313 264 335 275.5 c 128,-1,14
 357 287 357 287 368 311 c 128,-1,15
 379 335 379 335 379 373 c 0,0,1
65 373 m 0,16,17
 65 416 65 416 83.5 454.5 c 128,-1,18
 102 493 102 493 133 523 c 128,-1,19
 164 553 164 553 202.5 570.5 c 128,-1,20
 241 588 241 588 280 588 c 256,21,22
 319 588 319 588 357.5 570.5 c 128,-1,23
 396 553 396 553 427 523 c 128,-1,24
 458 493 458 493 476.5 454.5 c 128,-1,25
 495 416 495 416 495 373 c 0,26,27
 495 331 495 331 476.5 292.5 c 128,-1,28
 458 254 458 254 427 224 c 128,-1,29
 396 194 396 194 357.5 176.5 c 128,-1,30
 319 159 319 159 280 159 c 256,31,32
 241 159 241 159 202.5 176.5 c 128,-1,33
 164 194 164 194 133 224 c 128,-1,34
 102 254 102 254 83.5 292.5 c 128,-1,35
 65 331 65 331 65 373 c 0,16,17
2 570 m 1,36,-1
 85 654 l 1,37,-1
 205 534 l 1,38,-1
 115 457 l 1,39,-1
 2 570 l 1,36,-1
558 570 m 1,40,-1
 445 457 l 1,41,-1
 355 534 l 1,42,-1
 475 654 l 1,43,-1
 558 570 l 1,40,-1
2 175 m 1,44,-1
 115 288 l 1,45,-1
 205 212 l 1,46,-1
 85 92 l 1,47,-1
 2 175 l 1,44,-1
558 175 m 1,48,-1
 475 92 l 1,49,-1
 355 212 l 1,50,-1
 445 288 l 1,51,-1
 558 175 l 1,48,-1
EndSplineSet
EndChar

StartChar: yen
Encoding: 165 165 209
Width: 560
GlyphClass: 1
Flags: W
LayerCount: 2
Fore
SplineSet
48 411 m 1,0,-1
 513 411 l 1,1,-1
 513 332 l 1,2,-1
 48 332 l 1,3,-1
 48 411 l 1,0,-1
48 242 m 1,4,-1
 513 242 l 1,5,-1
 513 163 l 1,6,-1
 48 163 l 1,7,-1
 48 242 l 1,4,-1
203 379 m 1,8,-1
 358 379 l 1,9,-1
 358 143 l 2,10,11
 358 121 358 121 377.5 114 c 128,-1,12
 397 107 397 107 425 107 c 2,13,-1
 448 107 l 1,14,-1
 448 0 l 1,15,-1
 113 0 l 1,16,-1
 113 107 l 1,17,-1
 135 107 l 2,18,19
 164 107 164 107 183.5 114 c 128,-1,20
 203 121 203 121 203 143 c 2,21,-1
 203 379 l 1,8,-1
344 333 m 1,22,-1
 209 334 l 1,23,-1
 75 569 l 2,24,25
 63 591 63 591 49 597 c 128,-1,26
 35 603 35 603 15 603 c 2,27,-1
 9 603 l 1,28,-1
 9 710 l 1,29,-1
 269 710 l 1,30,-1
 269 603 l 1,31,-1
 258 603 l 2,32,33
 246 603 246 603 238.5 601.5 c 128,-1,34
 231 600 231 600 227 598 c 128,-1,35
 223 596 223 596 223 592 c 2,36,-1
 338 375 l 1,37,-1
 276 375 l 1,38,-1
 401 580 l 2,39,40
 401 587 401 587 396.5 592 c 128,-1,41
 392 597 392 597 384 600 c 128,-1,42
 376 603 376 603 363 603 c 2,43,-1
 358 603 l 1,44,-1
 358 710 l 1,45,-1
 551 710 l 1,46,-1
 551 603 l 1,47,-1
 546 603 l 2,48,49
 525 603 525 603 513 591.5 c 128,-1,50
 501 580 501 580 485 556 c 2,51,-1
 344 333 l 1,22,-1
EndSplineSet
Substitution2: "'pnum' Proportional Numbers lookup 57 subtable" yen.proportional
EndChar

StartChar: Euro
Encoding: 128 8364 210
Width: 560
GlyphClass: 1
Flags: W
LayerCount: 2
Fore
SplineSet
15 310 m 1,0,-1
 403 310 l 1,1,-1
 403 216 l 1,2,-1
 15 216 l 1,3,-1
 15 310 l 1,0,-1
15 478 m 1,4,-1
 433 478 l 1,5,-1
 433 384 l 1,6,-1
 15 384 l 1,7,-1
 15 478 l 1,4,-1
335 -25 m 0,8,9
 248 -25 248 -25 192.5 14 c 128,-1,10
 137 53 137 53 111 136.5 c 128,-1,11
 85 220 85 220 85 355 c 0,12,13
 85 483 85 483 112.5 567.5 c 128,-1,14
 140 652 140 652 201.5 693.5 c 128,-1,15
 263 735 263 735 366 735 c 0,16,17
 409 735 409 735 445 729.5 c 128,-1,18
 481 724 481 724 507.5 717 c 128,-1,19
 534 710 534 710 543 706 c 1,20,-1
 543 554 l 1,21,-1
 412 554 l 1,22,-1
 412 671 l 1,23,24
 422 671 422 671 431.5 661.5 c 128,-1,25
 441 652 441 652 448 639.5 c 128,-1,26
 455 627 455 627 458.5 617 c 128,-1,27
 462 607 462 607 461 606 c 0,28,29
 445 616 445 616 420.5 622.5 c 128,-1,30
 396 629 396 629 367 629 c 0,31,32
 336 629 336 629 315 615 c 128,-1,33
 294 601 294 601 282.5 569.5 c 128,-1,34
 271 538 271 538 266 485.5 c 128,-1,35
 261 433 261 433 261 355 c 0,36,37
 261 275 261 275 265.5 222.5 c 128,-1,38
 270 170 270 170 281.5 140.5 c 128,-1,39
 293 111 293 111 313 99 c 128,-1,40
 333 87 333 87 362 87 c 0,41,42
 394 87 394 87 413 98.5 c 128,-1,43
 432 110 432 110 444 132.5 c 128,-1,44
 456 155 456 155 466 186 c 1,45,-1
 561 154 l 1,46,47
 544 100 544 100 519.5 59.5 c 128,-1,48
 495 19 495 19 451.5 -3 c 128,-1,49
 408 -25 408 -25 335 -25 c 0,8,9
EndSplineSet
Substitution2: "'pnum' Proportional Numbers lookup 57 subtable" Euro.proportional
EndChar

StartChar: florin
Encoding: 131 402 211
Width: 560
GlyphClass: 1
Flags: W
LayerCount: 2
Fore
SplineSet
114 568 m 1,0,-1
 514 568 l 1,1,-1
 497 470 l 1,2,-1
 97 470 l 1,3,-1
 114 568 l 1,0,-1
258 -81 m 2,4,5
 247 -144 247 -144 220 -181 c 128,-1,6
 193 -218 193 -218 147 -234 c 128,-1,7
 101 -250 101 -250 35 -250 c 0,8,9
 4 -250 4 -250 -21.5 -246.5 c 128,-1,10
 -47 -243 -47 -243 -69 -238 c 1,11,-1
 -56 -133 l 1,12,13
 -38 -137 -38 -137 -17.5 -140.5 c 128,-1,14
 3 -144 3 -144 19 -144 c 0,15,16
 42 -144 42 -144 56.5 -141 c 128,-1,17
 71 -138 71 -138 80.5 -130 c 128,-1,18
 90 -122 90 -122 96 -109 c 128,-1,19
 102 -96 102 -96 105 -76 c 2,20,-1
 226 647 l 2,21,22
 235 699 235 699 261.5 730.5 c 128,-1,23
 288 762 288 762 332 776 c 128,-1,24
 376 790 376 790 437 790 c 0,25,26
 480 790 480 790 512.5 785 c 128,-1,27
 545 780 545 780 562 775 c 1,28,-1
 551 676 l 1,29,30
 537 679 537 679 511.5 684 c 128,-1,31
 486 689 486 689 456 689 c 0,32,33
 428 689 428 689 411.5 681.5 c 128,-1,34
 395 674 395 674 387 657.5 c 128,-1,35
 379 641 379 641 374 614 c 2,36,-1
 258 -81 l 2,4,5
EndSplineSet
Substitution2: "'pnum' Proportional Numbers lookup 57 subtable" florin.proportional
EndChar

StartChar: asciicircum
Encoding: 94 94 212
Width: 567
GlyphClass: 1
Flags: W
LayerCount: 2
Fore
SplineSet
184 307 m 1,0,-1
 35 307 l 1,1,-1
 200 713 l 1,2,-1
 297 713 l 1,3,-1
 309 650 l 1,4,-1
 184 307 l 1,0,-1
377 307 m 1,5,-1
 251 650 l 1,6,-1
 260 713 l 1,7,-1
 367 713 l 1,8,-1
 532 307 l 1,9,-1
 377 307 l 1,5,-1
EndSplineSet
EndChar

StartChar: asciitilde
Encoding: 126 126 213
Width: 560
GlyphClass: 1
Flags: W
LayerCount: 2
Fore
SplineSet
364 210 m 0,0,1
 326 210 326 210 302 225.5 c 128,-1,2
 278 241 278 241 262 264 c 128,-1,3
 246 287 246 287 235 309.5 c 128,-1,4
 224 332 224 332 213 347 c 128,-1,5
 202 362 202 362 186 362 c 256,6,7
 170 362 170 362 159 342 c 128,-1,8
 148 322 148 322 141.5 289 c 128,-1,9
 135 256 135 256 129 218 c 1,10,-1
 31 239 l 1,11,12
 40 311 40 311 56.5 368.5 c 128,-1,13
 73 426 73 426 106.5 459 c 128,-1,14
 140 492 140 492 196 492 c 0,15,16
 233 492 233 492 258 476.5 c 128,-1,17
 283 461 283 461 298.5 438.5 c 128,-1,18
 314 416 314 416 326 393.5 c 128,-1,19
 338 371 338 371 349.5 355.5 c 128,-1,20
 361 340 361 340 377 340 c 0,21,22
 395 340 395 340 405.5 362.5 c 128,-1,23
 416 385 416 385 423 420 c 128,-1,24
 430 455 430 455 437 491 c 1,25,-1
 532 470 l 1,26,27
 526 417 526 417 514.5 370 c 128,-1,28
 503 323 503 323 484 287 c 128,-1,29
 465 251 465 251 435.5 230.5 c 128,-1,30
 406 210 406 210 364 210 c 0,0,1
EndSplineSet
EndChar

StartChar: acute
Encoding: 180 180 214
Width: 500
GlyphClass: 4
Flags: W
AnchorPoint: "Anchor-0" 217 527 mark 0
LayerCount: 2
Fore
SplineSet
260 805 m 2,0,1
 273 826 273 826 286.5 843.5 c 128,-1,2
 300 861 300 861 317.5 871.5 c 128,-1,3
 335 882 335 882 362 882 c 0,4,5
 398 882 398 882 420 859.5 c 128,-1,6
 442 837 442 837 442 808 c 0,7,8
 442 785 442 785 432.5 768 c 128,-1,9
 423 751 423 751 407 737.5 c 128,-1,10
 391 724 391 724 371 712 c 2,11,-1
 258 644 l 1,12,-1
 196 644 l 1,13,-1
 196 689 l 1,14,-1
 260 805 l 2,0,1
EndSplineSet
EndChar

StartChar: grave
Encoding: 96 96 215
Width: 500
GlyphClass: 4
Flags: W
AnchorPoint: "Anchor-0" 214 531 mark 0
LayerCount: 2
Fore
SplineSet
349 805 m 2,0,-1
 414 689 l 1,1,-1
 414 644 l 1,2,-1
 349 644 l 1,3,-1
 235 711 l 2,4,5
 216 723 216 723 200 736.5 c 128,-1,6
 184 750 184 750 174.5 767.5 c 128,-1,7
 165 785 165 785 165 806 c 0,8,9
 165 836 165 836 187.5 859.5 c 128,-1,10
 210 883 210 883 246 883 c 0,11,12
 273 883 273 883 291 872.5 c 128,-1,13
 309 862 309 862 322.5 844.5 c 128,-1,14
 336 827 336 827 349 805 c 2,0,-1
EndSplineSet
EndChar

StartChar: circumflex
Encoding: 136 710 216
Width: 500
GlyphClass: 4
Flags: W
AnchorPoint: "Anchor-0" 245 529 mark 0
LayerCount: 2
Fore
SplineSet
307 860 m 1,0,-1
 193 860 l 1,1,-1
 44 677 l 1,2,-1
 44 635 l 1,3,-1
 117 635 l 1,4,-1
 288 763 l 1,5,-1
 204 761 l 1,6,-1
 379 635 l 1,7,-1
 456 635 l 1,8,-1
 456 677 l 1,9,-1
 307 860 l 1,0,-1
EndSplineSet
EndChar

StartChar: tilde
Encoding: 152 732 217
Width: 500
GlyphClass: 4
Flags: W
AnchorPoint: "Anchor-0" 250 516 mark 0
LayerCount: 2
Fore
SplineSet
326 631 m 0,0,1
 296 631 296 631 274.5 642 c 128,-1,2
 253 653 253 653 237.5 669.5 c 128,-1,3
 222 686 222 686 209.5 703 c 128,-1,4
 197 720 197 720 185 731 c 128,-1,5
 173 742 173 742 159 742 c 0,6,7
 135 742 135 742 129.5 715 c 128,-1,8
 124 688 124 688 115 630 c 1,9,-1
 31 645 l 1,10,11
 41 720 41 720 55.5 768.5 c 128,-1,12
 70 817 70 817 97.5 840.5 c 128,-1,13
 125 864 125 864 173 864 c 0,14,15
 201 864 201 864 221.5 853 c 128,-1,16
 242 842 242 842 257 826 c 128,-1,17
 272 810 272 810 285 793.5 c 128,-1,18
 298 777 298 777 311 766 c 128,-1,19
 324 755 324 755 339 755 c 0,20,21
 356 755 356 755 363 767.5 c 128,-1,22
 370 780 370 780 374.5 805 c 128,-1,23
 379 830 379 830 386 869 c 1,24,-1
 470 854 l 1,25,26
 460 775 460 775 443.5 726 c 128,-1,27
 427 677 427 677 399 654 c 128,-1,28
 371 631 371 631 326 631 c 0,0,1
EndSplineSet
EndChar

StartChar: macron
Encoding: 175 175 218
Width: 500
GlyphClass: 4
Flags: W
AnchorPoint: "Anchor-0" 250 526 mark 0
LayerCount: 2
Fore
SplineSet
51 789 m 1,0,-1
 449 789 l 1,1,-1
 449 671 l 1,2,-1
 51 671 l 1,3,-1
 51 789 l 1,0,-1
EndSplineSet
EndChar

StartChar: dieresis
Encoding: 168 168 219
Width: 500
GlyphClass: 4
Flags: W
AnchorPoint: "Anchor-0" 250 526 mark 0
LayerCount: 2
Fore
SplineSet
206 733 m 256,0,1
 206 686 206 686 178.5 663.5 c 128,-1,2
 151 641 151 641 101 641 c 0,3,4
 53 641 53 641 25 663 c 128,-1,5
 -3 685 -3 685 -3 733 c 0,6,7
 -3 780 -3 780 25 802.5 c 128,-1,8
 53 825 53 825 101 825 c 0,9,10
 151 825 151 825 178.5 802.5 c 128,-1,11
 206 780 206 780 206 733 c 256,0,1
503 733 m 256,12,13
 503 686 503 686 475.5 663.5 c 128,-1,14
 448 641 448 641 398 641 c 0,15,16
 350 641 350 641 322 663 c 128,-1,17
 294 685 294 685 294 733 c 0,18,19
 294 780 294 780 321.5 802.5 c 128,-1,20
 349 825 349 825 398 825 c 0,21,22
 448 825 448 825 475.5 802.5 c 128,-1,23
 503 780 503 780 503 733 c 256,12,13
EndSplineSet
EndChar

StartChar: ring
Encoding: 869 730 220
Width: 500
GlyphClass: 4
Flags: W
AnchorPoint: "Anchor-0" 250 526 mark 0
LayerCount: 2
Fore
SplineSet
194 710 m 0,0,1
 194 680 194 680 209.5 665.5 c 128,-1,2
 225 651 225 651 251 651 c 0,3,4
 278 651 278 651 293 665.5 c 128,-1,5
 308 680 308 680 308 710 c 0,6,7
 308 741 308 741 292.5 755.5 c 128,-1,8
 277 770 277 770 251 770 c 256,9,10
 225 770 225 770 209.5 755.5 c 128,-1,11
 194 741 194 741 194 710 c 0,0,1
400 710 m 0,12,13
 400 674 400 674 381 646.5 c 128,-1,14
 362 619 362 619 329 604 c 128,-1,15
 296 589 296 589 251 589 c 0,16,17
 207 589 207 589 173.5 604 c 128,-1,18
 140 619 140 619 121 646.5 c 128,-1,19
 102 674 102 674 102 710 c 0,20,21
 102 747 102 747 121 774 c 128,-1,22
 140 801 140 801 173.5 816 c 128,-1,23
 207 831 207 831 251 831 c 0,24,25
 296 831 296 831 329 816 c 128,-1,26
 362 801 362 801 381 774 c 128,-1,27
 400 747 400 747 400 710 c 0,12,13
EndSplineSet
EndChar

StartChar: cedilla
Encoding: 184 184 221
Width: 500
GlyphClass: 4
Flags: W
AnchorPoint: "Anchor-1" 248 34 mark 0
LayerCount: 2
Fore
SplineSet
330 10 m 1,0,-1
 229 -93 l 1,1,-1
 228 -69 l 1,2,3
 293 -70 293 -70 337 -82.5 c 128,-1,4
 381 -95 381 -95 403.5 -120 c 128,-1,5
 426 -145 426 -145 426 -184 c 0,6,7
 426 -219 426 -219 411 -244 c 128,-1,8
 396 -269 396 -269 371.5 -284 c 128,-1,9
 347 -299 347 -299 315 -306 c 128,-1,10
 283 -313 283 -313 249 -313 c 0,11,12
 189 -313 189 -313 149 -294 c 128,-1,13
 109 -275 109 -275 86 -250 c 1,14,-1
 138 -191 l 1,15,16
 146 -198 146 -198 158.5 -208.5 c 128,-1,17
 171 -219 171 -219 190 -227.5 c 128,-1,18
 209 -236 209 -236 233 -236 c 0,19,20
 263 -236 263 -236 276 -224 c 128,-1,21
 289 -212 289 -212 289 -187 c 0,22,23
 289 -163 289 -163 271.5 -150.5 c 128,-1,24
 254 -138 254 -138 203 -138 c 2,25,-1
 161 -138 l 1,26,-1
 215 23 l 1,27,-1
 330 10 l 1,0,-1
EndSplineSet
EndChar

